<?xml version="1.0" encoding="utf-8"?>
<!-- Generator: Adobe Illustrator 15.0.0, SVG Export Plug-In . SVG Version: 6.00 Build 0)  -->
<!DOCTYPE svg PUBLIC "-//W3C//DTD SVG 1.1//EN" "http://www.w3.org/Graphics/SVG/1.1/DTD/svg11.dtd">
<svg version="1.1" id="Layer_1" xmlns="http://www.w3.org/2000/svg" xmlns:xlink="http://www.w3.org/1999/xlink" x="0px" y="0px"
	 width="170.34px" height="218.015px" viewBox="533.954 -119.434 170.34 218.015"
	 enable-background="new 533.954 -119.434 170.34 218.015" xml:space="preserve">
<g>
	<g>
		<path fill-rule="evenodd" clip-rule="evenodd" fill="#F6921E" d="M628.897-56.216c-0.287,0.567-0.714,1.001-1.145,1.431
			c0.365,0.246,0.861-0.563,1.145-0.288c0.033,0.034-0.025,0.574,0,0.574c0.826,0.006,0.912-0.928,1.148-0.286
			c0.016,0.494-0.223,0.736-0.574,0.859c-0.19-0.383-0.612-0.531-1.144-0.573c-0.047,0.813,0.86,0.668,0.856,1.435
			c0.544-0.064,0.633,0.323,1.148,0.285c0.043-0.336-0.049-0.813,0.285-0.857c0.658,0.563,1.01,1.581,1.434,2.006
			c0.366,0.365,0.935,0.384,1.146,0.575c0.121,0.105,0.188,0.442,0.287,0.57c0.182,0.241,0.362,0.369,0.574,0.573
			c-0.255,0.499-1.256-0.213-0.574,0.286c0.115,0.49,0.371-0.06,0.859,0c0.237,0.427,1.06,1.877,0,1.149
			c-0.215,1.076,1.094,0.623,1.148,1.433c-0.451,0.977-0.497,1.508-0.286,2.58c-0.227,0.064-0.567,0.006-0.574,0.283
			c1.041,0.268,2.576,0.196,3.727,0.289c0.46,0.039,1.175,0.807,1.433,0c-1.126-0.005,0.336-1.434-0.573-1.434
			c-0.995,0-0.378-1.686-0.574-2.58c-0.021-0.108-0.723,0.027-0.572-0.287c0.352,0.092,1.771-0.045,0.859-0.284
			c-0.533-0.04-0.96-0.19-1.146-0.575c1.078,0.165,0.648-0.703,0.858-1.147c0.026-0.048,0.517-0.243,0.574-0.286
			c0.187-0.135,0.421,0.339,0.573,0.286c0.047-0.014-0.025-0.512,0-0.57c0.004-0.013,0.557-0.285,0.572-0.286
			c0.003,0-0.01,0.273,0,0.286c0.706,0.704,2.022-0.661,2.293-0.577c0.046,0.339-0.047,0.815,0.291,0.861
			c0.114-0.489,0.367,0.063,0.857,0c0.269-0.402,0.429-1.324,0.861-1.146c0.133,0.056-0.051,0.698,0.285,0.575
			c0.127-0.83,0.603-1.309,1.435-1.435c0.431,0.118,0.524,0.409,0.859,0c0.208-0.255,2.584-0.048,2.867,0
			c0.021,0.003-0.022,0.27,0,0.285c0.429,0.299,0.828-0.103,1.146,0.288c0.314,0.383,1.51-0.158,1.694-0.27
			c-0.008-0.007-0.005-0.017,0.025-0.019c0.007,0-0.005,0.009-0.025,0.019c0.069,0.114,1.849,0.686,1.458-0.019
			c-0.494,0.016-0.735-0.22-0.859-0.574c0.901-0.137,1.122,0.409,1.722,0.574c0.364-0.717-0.147-0.897,0.286-1.146
			c0.365,0.016,0.396,0.368,0.86,0.286c-0.145,1.114,1.405,1.216,1.433,1.718c0.021,0.408,0.667,0.326,0.858,0.577
			c0.124-1.079-0.896-1.017-1.146-1.721c0.395-0.013,0.629,0.133,0.859,0.285c0.064-0.224,0.009-0.563,0.286-0.574
			c-0.159-1.024-1.655-1.792-0.858-2.865c-0.744,0.171-1.031-0.115-0.861-0.861c-1.231-0.135-0.365,0.772-0.857,0.861
			c-0.019-0.367-0.367-0.396-0.288-0.861c0.535-0.038,0.958-0.188,1.146-0.571c-1.431-0.042-0.176-1.288-1.146-2.008
			c0.412-0.636,0.699,0.36,0.861-0.289c-0.381,0-0.264-0.499-0.573-0.572c-0.006,0.378-0.797,0.366-0.86,0
			c0.673,0.01,0.842-0.494,1.718-0.284c0.277-1.042-1.287-0.241-1.146-1.147c0.543-0.063,0.634,0.322,1.146,0.287
			c-0.029-0.716-0.536-0.887,0-1.433c-0.563-0.088-0.567,0.385-0.857,0.57c-0.193-0.569-0.99-1.224,0-1.432
			c0.108,0.333,1.39,0.333,0.573,0c-0.177-0.397-1.105-0.042-1.147-0.573c0.438-0.068,0.042-0.472-0.286-0.575
			c-0.028,0.45,0.036,0.998-0.575,0.861c-0.376-1.235,0.815-0.907,1.147-1.433c-1.337,0.251,0.394-0.743-0.572-0.859
			c-0.479,0.673,0.025-0.105,0-0.574c-0.534,0.276-0.96-0.858-1.148,0c0.157-0.002,0.328,0.234,0,0.287
			c-0.73-0.031-1.003-0.526-1.434-0.861c1.525,0.264,0.202-0.685,0.572-1.72c-1.019-0.325-1.646-1.005-2.005-1.718
			c-0.163-0.328-0.01-0.371-0.285-0.572c0.096,0.069-0.118,0.629-0.287,0.572c-0.068-0.023,0.058-0.52,0-0.572
			c-0.142-0.129-0.682,0.07-0.859,0c-0.376-0.152-0.148-0.717-0.575-0.289c-0.188,0.188-0.407-0.646-0.572-0.572
			c0.028,0.242-0.781,0.35-1.147,0c-0.055-0.051,0.059-0.559,0-0.574c-0.366-0.109-0.653,0.211-0.86,0.287
			c0.053-0.627-0.234-0.911-0.86-0.861c-0.289,0.223-1.065,1.374-1.432,0.574c0.771,0.197,0.553-0.594,0.857-0.859
			c-0.563-0.087-0.566,0.386-0.857,0.573c-0.533-0.515-1.895-0.584-2.579-0.573c-0.008,0.378-0.504,0.262-0.575,0.573
			c0.504,0.163,1.686-0.347,1.723,0.286H641.8c-0.496-0.114-0.738,0.426-0.863,0c0.44-0.07,0.043-0.474-0.285-0.574
			c0.08,0.75-0.104,1.234-0.86,1.148c0.837-0.922-0.654-1.254-0.86-2.008c-0.628-0.087-0.91,0.52-1.434,0.574
			c-0.009,0,0.017-0.57,0-0.574c-0.434-0.125-1.309,0.271-2.005,1.147c0.395,0.013,0.63-0.136,0.86-0.288
			c-0.124,0.805,1.066-0.719,1.145,0.288c-1.599-0.072-2.028,1.028-3.153,1.433c-0.642-0.764-1.436,0.404-2.008-0.287
			c-0.167,0.595-0.549,0.978-1.143,1.148c-0.061-0.572,1.211-1.225,0.57-1.434c-0.291,0.76-1.322,0.777-1.719,1.434
			c0.67,0.072,0.164,1.255,0,1.432c1.042,0.274,0.24-1.289,1.148-1.145c-0.346,0.61-0.352,1.56-1.148,1.717
			c-0.557-0.85,0.385-1.412-0.574-1.717c-0.061,0.344-0.318,0.173-0.574,0c-0.063,0.539,0.326,0.631,0.287,1.145
			c-0.32,0.029-0.445-0.418-0.571,0c0.333,0.051,0.311,0.453,0.284,0.86c-0.891-0.476-1.023,1.431-0.569,0.574
			c0.062-0.223,0.237-0.333,0.569-0.29c0.372,1.137-0.941,0.589-0.569,1.723c0.563,0.086,0.567-0.387,0.856-0.572
			c0,0.285,0.234,0.341,0.287,0.572c-0.003,0.38-0.503,0.262-0.574,0.572c0.765,0.289,0.947,1.158,1.436,1.721
			c-0.622,0.595,0.036,0.926,0.285,1.435c-0.717-0.036-0.898-0.55-1.146,0.285c0.175,0.015,0.338,0.042,0.287,0.285
			c0.017,0.176,0.043,0.34,0.287,0.288c0.118-0.359,0.371-0.584,0.858-0.573c0.071,0.41,0.474,0.483,0.575,0.86
			c-0.6,0.781-1.078-1.013-1.434,0.287c0.174,0.396,1.104,0.042,1.148,0.572c-0.049,0.338,0.048,0.813-0.29,0.86
			c-0.421-0.492-0.603,0.374-0.286-0.86c-1.702-0.11,0.149,1.545-1.146,1.722c-0.221-0.64-0.164-1.555-0.858-1.722
			c0.019,0.328-0.114,0.435-0.285,0.572c-0.201,0.161,0.296,0.327,0.285,0.288c0.313,1.184,0.898,1.074,0,1.435
			c-1.094,0.437-0.19,0.058,0.284,0.285c0.015,0.007,0.282,0.55,0.287,0.574c0.005,0.016-0.59-0.279-0.571-0.29
			c-0.524,0.231-0.06,1.359-0.86,0.577c0.063,0.541-0.322,0.632-0.287,1.146C628.109-55.711,628.38-57.256,628.897-56.216z
			 M653.838-65.678c0.267,0.305,1.057,0.091,0.859,0.859C654.431-65.123,653.64-64.907,653.838-65.678z M652.117-68.546
			c-0.419-0.248-0.906-0.428-0.858-1.147C651.678-69.441,652.167-69.261,652.117-68.546z M639.505-72.844
			c0.132,0.066-0.646,0.839-1.434,0.286C638.493-73.052,639.2-72.997,639.505-72.844z M629.184-67.973
			c0.242-0.838,0.923,0.174,1.434,0C630.544-67.3,629.36-67.806,629.184-67.973z"/>
		<path fill-rule="evenodd" clip-rule="evenodd" fill="#F6921E" d="M614.85,55.581c-0.17,0.668,0.657,0.729,0.861,0.863
			c0.046,0.025-0.035,0.242,0,0.284c0.021,0.024,0.87,0.29,0.859,0.285c0.739,0.186,0.668,0.55,1.146,0.575
			c0.317,0.016,0.146,0.218,0.288,0.286c0.453,0.222,1.027,0.077,1.435,0.288c0.221,0.115,0.344,0.725,0.571,0.859
			c0.222,0.129,1.025,0.125,1.435,0.286c0.029,0.011-0.026,0.257,0,0.285c0.018,0.025,0.871,0.293,0.859,0.288
			c0.354,0.088,0.382,0.053,0.574,0.288c0.071,0.085,0.47-0.06,0.57,0c0.165,0.088,0.381,0.486,0.574,0.573
			c0.239,0.105,0.609-0.076,0.861,0c0.108,0.032,0.425,0.52,0.573,0.57c0.755,0.266,1.116,0.163,1.432,0.287
			c0.071,0.029,0.211-0.002,0.289,0c0.254,0.016,0.22,0.272,0.286,0.287c0.828,0.204,1.098,0.151,1.432,0.287
			c0.071,0.029,0.213-0.005,0.287,0c0.254,0.014,0.227,0.272,0.287,0.287c0.545,0.128,1.604-0.118,1.723,0
			c0.538,0.541,1.014,0.066,1.433,0.574c0.276,0.339,2.659-0.088,3.151,0c0.372,0.063,0.392,0.271,0.861,0.287
			c0.477,0.016,0.46-0.49,0.858,0c0.233,0.282,1.095-0.291,1.146-0.287c0.15,0.009,0.15,0.357,0.574,0.287
			c0.02-0.004-0.017-0.268,0-0.287c0.045-0.055,0.493,0.005,0.573,0c1.518-0.094,2.709-0.17,3.441-0.287
			c1.241-0.196,2.572-0.399,3.153-0.574c0.464-0.141,0.599,0.03,0.859-0.287c0.064-0.078,0.47,0.041,0.571,0
			c0.511-0.202,1.196-0.283,1.435-0.574c0.066-0.078,0.471,0.043,0.575,0c0.645-0.257,1.787-0.593,2.004-0.858
			c0.07-0.084,0.471,0.05,0.576,0c0.035-0.018-0.029-0.253,0-0.285c0.066-0.083,0.469,0.042,0.571,0
			c1.597-0.692,3.589-1.595,4.874-2.295c0.627-0.345,1.564-1.122,2.006-1.146c0.346-0.017,0.576-0.429,0.86-0.574
			c0.798-0.41,1.135-0.771,1.72-1.145c0.719-0.461,1.189-0.769,1.722-1.146c0.3-0.216,0.346-0.297,0.573-0.575
			c0.079-0.096,0.475,0.083,0.572,0c0.494-0.4,2.28-2.324,2.293-2.581c0.019-0.33,0.185-0.126,0.288-0.286
			c0.302-0.466,0.356-0.852,0.572-1.146c0.133-0.181,0.444-0.368,0.573-0.572c0.431-0.679,0.825-1.525,1.147-2.007
			c0.253-0.383,0.121-0.599,0.285-1.148c0.034-0.105,0.525-0.423,0.574-0.572c0.112-0.347-0.104-0.797,0-1.147
			c0.009-0.03,0.267,0.03,0.287,0c0.15-0.215-0.049-0.88,0-1.145c0.004-0.02,0.238-0.1,0.286-0.288
			c0.112-0.45-0.12-0.938-0.286-1.147c-0.143-0.176-0.124,0.614-0.287,0.574c-0.063-0.015-0.186-0.544-0.285-0.574
			c-0.247-0.068-0.407,0.36-0.574,0.286c-0.229-0.097-0.287-0.782-0.86-0.571c-0.033,0.348-0.086,0.679-0.573,0.571
			c0.042-0.336,0.51-0.646,0-0.856c0.002,0.159-0.233,0.323-0.287,0c-0.54-0.065-0.632,0.323-1.146,0.285
			c-0.33,0.625-0.056,1.854-0.861,2.008c-0.046-0.336-0.453-0.312-0.858-0.287c0.302,1.527-0.603,0.072-0.859,0.859
			c0.797,0.769,0.045,1.602,0.572,2.294c-0.347,0.418-0.564-0.06-0.859,0c-0.121,0.023,0.049,0.317-0.286,0.287
			c-0.803-0.075-0.717-0.825-1.149-0.287c-0.164,0.208-0.274-0.274-0.285-0.289c0.461,0.52,0.691-2.108-0.287-0.572
			c0.223,0.064,0.565,0.009,0.572,0.287c-1.335-0.38-1.271,0.639-1.718,1.146c-0.073-0.404-0.63-0.326-0.859-0.572v0.859
			c-0.886,0.702,0.62-0.516,0.571,0.287c0.027,0.476-0.838,0.157-0.859,0.571c-0.021,0.337-0.157,0.127-0.287,0.287
			c-0.215,0.277-0.808,0.848-0.859,0.861c-0.178,0.045-0.496-0.349-0.574-0.287c-0.52,0.424,0.234,0.746-0.285,0.859
			c-0.935,0.204-1.61-0.271-2.294-0.285c-0.43-0.007-0.586,0.25-0.859,0.285c-0.478,0.064-0.231-0.345-0.575,0
			c-0.19,0.191-0.785-0.02-0.859,0.289c0.085-0.342,1.155-1.082,0.287-1.434c-0.117,0.359-0.369,0.586-0.86,0.572
			c-0.065-0.221-0.009-0.566-0.287-0.572c-0.044,0.337,0.051,0.813-0.284,0.859c-0.204,0.712,1.26,1.177,0.284,1.718
			c0.141-0.903-0.889-0.676-1.146-0.858c-0.148-0.103,0.058-0.66-0.287-0.574c-0.303,1.069,0.604,0.926,0.858,1.433
			c-0.688,0.12-0.621-0.524-1.431-0.286c-0.078,0.977-1.293,0.813-1.721,1.434c-0.938,0.016-1.098,0.816-2.294,0.574
			c0.08,0.652-0.069,1.08-0.573,1.146c-0.497-0.933-0.753,0.743-1.719,0.288c0.084-0.468-0.39-0.776-0.574-0.288
			c0.1-0.08,0.436,0.168,0.285,0.288c-0.492,0.391-0.989-0.112-1.434,0.86c0.188-0.414,0.033,0.857,0,1.144
			c-0.498,0.265-0.632,0.897-0.57,1.722c0.57,0.061,0.629-0.358,0.861,0c0.053,0.087,0.037,0.719,0.285,0.574
			c0.179-0.11-0.156-0.992,0.285-0.862c0.46-0.121,0.965,1.069,0.287,1.148c-0.175,0.015-0.34,0.043-0.287,0.287
			c0.895-0.245,1.234-0.841,2.007,0c0.06,0.38-0.479,0.37-0.573,0.572c-0.199,0.427,0.28,1.449-0.572,1.435
			c-0.394,0.652,0.74,1.076,0,1.145c-1.687,0.402-3.087,0.268-4.3,0.574c0,0.158-0.232,0.326-0.288,0
			c0.151-0.273,1.287-0.953,0.572-1.148c-0.053,0.601-1.966,1.67-1.146,0.574c-1.021-0.446-0.173,0.975-0.859,0.861
			c-0.46-0.805-1.292,0.402-2.296,0c-0.305-0.957,0.093-0.98-0.285-2.006c1.002-0.087-0.232-1.758,1.148-0.861
			c0.294-0.803-0.304-1.264-0.287-1.719c0.006-0.22,0.326-0.428,0.287-0.574c-0.018-0.063-0.5-0.104-0.573-0.288
			c-0.101-0.246,0.077-0.602,0-0.856c-1.091-0.248-1.901-0.778-3.44-0.577c-0.004-0.288,0.232-0.341,0.285-0.571h-1.719
			c-0.113,0.492,0.422,0.734,0,0.858c-0.42-0.248-0.91-0.429-0.861-1.145c-0.823,0.059-1.457-0.073-1.721-0.573
			c0.713,0.043,1.189-0.149,1.436-0.573c-0.453-0.031-0.996,0.037-0.861-0.575c-0.707,0.037-1.381,0.045-1.719-0.286
			c-0.479,0.901,1.066,1.171,0.286,1.435c-0.665-0.092-1.102,0.045-1.434,0.287c0.405,1.043-0.159,1.285,0.574,2.005
			c-0.544,0.03-0.199,0.947-0.859,0.86c-0.936-0.044-1.849-0.402-2.582,0c-0.172,0.096,0.024,0.875-0.571,0.574
			c0.02-0.401-0.064-1.097-0.287-0.574c-0.116,0.691,0.522,0.621,0.287,1.434c-0.922-0.241-0.595-0.244-1.147,0.286
			c-0.29,0.034-0.34-0.274-0.573-0.286c-0.314-0.018-0.15-0.225-0.286-0.286c-0.384-0.18-1.091-0.118-1.435-0.287
			c-0.099-0.047-0.182-0.497-0.285-0.574c-0.199-0.148-0.685-0.192-0.861-0.286c-0.496-0.265-0.87-0.547-1.435-0.575
			c-0.193-0.665-0.73-0.985-1.146-1.433C615.809,56.441,615.386,55.31,614.85,55.581z M665.877,43.542
			c0.513,0.211,0.041,0.523,0,0.86C665.369,44.192,665.836,43.882,665.877,43.542z M658.139,49.564
			c0.487,0.104,0.541-0.225,0.571-0.574c1.147,0.368-0.078,0.591,0,1.432h-0.571c-0.314,0.729,1.342,1.112,0,1.148
			C657.838,50.757,657.838,50.374,658.139,49.564z M656.419,49.564h0.571c0.083,0.461-0.27,0.492-0.284,0.857h-0.573
			C656.051,49.959,656.403,49.927,656.419,49.564z"/>
		<path fill-rule="evenodd" clip-rule="evenodd" fill="#F6921E" d="M656.991-57.938c0.395-0.012,0.631,0.136,0.861,0.284
			c-0.483-0.773,0.455-1.34-0.574-1.72C657.514-58.562,656.873-58.627,656.991-57.938z"/>
		<path fill-rule="evenodd" clip-rule="evenodd" fill="#F6921E" d="M635.207-72.844c-0.712-0.042-1.192,0.148-1.437,0.573
			C634.201-71.817,635.406-71.849,635.207-72.844z"/>
		<path fill-rule="evenodd" clip-rule="evenodd" fill="#F6921E" d="M617.717,53.575c0.175,0.016,0.343,0.043,0.288,0.288
			c0.012,0.394-0.135,0.629-0.288,0.86c0.57,0.477,0.363-0.025,1.147,0c0,0.157,0.232,0.324,0.285,0
			c-0.531,0.023,0.067-0.434,0-0.575C618.991,53.802,617.607,53.048,617.717,53.575z"/>
		<path fill-rule="evenodd" clip-rule="evenodd" fill="#F6921E" d="M565.259,93.423c-0.275,0.488-0.536,0.863-0.571,1.432
			c0,0.38,0.5,0.264,0.571,0.575c-1.128,1.308,0.954,0.733,0,0.573c0.213-0.543,0.855-0.199,0.286-0.859
			c0.388-0.094,0.548-0.41,1.146-0.289c-0.366,0.387-0.871,0.575,0,0.862c0.449-0.772-0.227-1.523,0.571-2.294
			c-0.414-0.249-1.106-0.23-0.861-1.147c0.682,0.419,0.536,0.604,1.436,0.286c0.235,0.721,1.513,0.4,2.006,0.861
			c0.41-0.93,0.121-2.556,1.435-2.582c0.244-1.193,0.178-1.109,0-2.006c-0.053-0.275,0.061-0.586,0-0.86
			c-0.056-0.257-0.263-0.358-0.286-0.572c-0.039-0.355,0.32-0.4,0.286-0.859c0.004,0.046-0.251-0.148-0.286-0.287
			c-0.148-0.599,0.489-0.529,0.571-0.86c-0.006,0.035-0.559-0.518-0.285-0.861c0.829-0.035,0.499-1.222,1.435-1.146
			c1.161,1.163,1.107,3.487,1.431,5.447c0.063,0.373,0.256,0.399,0.289,0.86c0.122,1.795-0.632,3.267,0.285,4.014
			c0.025,0.481-0.07,0.987,0.287,1.146c-0.244-0.107,0.508-1.044,0.575-0.285c-0.033,0.542-0.949,0.198-0.862,0.86h1.147
			c-0.513,0.37,0.192,0.797,0.287,1.146c0.073,0.268-0.551,0.987,0.285,0.859c0.015-0.174,0.043-0.338,0.287-0.287
			c0,0.16,0.233,0.325,0.289,0c-0.536,0.017,0.088-0.933,0.286-0.858c-0.007-0.003,0.118,0.787,0.286,0.571
			c0.08-0.1-0.031-0.443,0-0.571c0.18-0.722,0.735-1.853,1.433-1.72c0.026-0.451-0.037-0.993,0.574-0.86
			c0.119-0.69-0.525-0.624-0.289-1.434c0.367,0.016,0.398,0.369,0.861,0.286c-0.035-0.715-0.547-0.896,0.287-1.147
			c0.07,0.313,0.473,0.689,0.573,0.286c-0.321-0.06-0.444-0.316-0.573-0.572c1.297,0.533,0.499-1.03,1.146-1.148
			c0.546,0.538,0.722,0.033,1.433,0c0.589-0.582,0.278-1.613,0.575-2.292c0.16-0.37,0.707-0.15,0.286-0.572
			c-0.192-0.192,0.146-0.911,0-1.146c0.452-0.027,0.225-0.729,0.859-0.573c0.012-1.074-0.443-0.969,0-1.434
			c0.448-0.47,0.751-1.734,0.86-2.007c0.256-0.634,0.408-1.396,0.572-2.005c0.193-0.715-0.682-1.935,0.861-1.719
			c-0.574,0.583,0.125,0.558,0.289,1.144c0.02,0.377-0.465,0.382-0.576,1.147c0.02-0.145,0.268,0.213,0.287,0.285
			c0.226,0.906-0.418,1.226-0.287,1.723c0.031,0.113,0.72-0.034,0.576,0.285c-0.928,0.971-0.844,1.83-0.576,3.153
			c-1.231,0.356-0.494,0.904-0.858,2.006c-0.224,0.066-0.568,0.009-0.574,0.287c0.335,0.429,0.718,0.812,1.147,1.148
			c-0.119,0.551-1.112,0.226-0.861,1.146c0.04,0.363,0.457,0.28,0.572,0.572c-0.036-0.096-0.323,0.342-0.284,0.572
			c0.013,0.098,0.499,0.216,0.284,0.575c0.731-0.15,1.004-0.38,1.433,0.286c-0.267,0.306-1.057,0.089-0.858,0.861
			c0.161,0.412,0.447,0.697,0.858,0.861c0.354-0.416,1.097-0.436,1.437-0.861c-0.043,0.9,0.735,0.984,1.432,1.146
			c0.571-0.004,0.364-0.783,1.148-0.574c-0.227-0.99,0.266-1.26,0.859-1.434c0.093,0.671,0.345,1.186,0.572,1.723
			c1.073-0.119,1.507-0.255,2.581-0.861c0.635-0.414-0.361-0.703,0.285-0.861c0.926,0.317,1.574,0.912,1.434,2.293
			c0.563,0.084,0.569-0.388,0.861-0.57c0.545,0.536,0.519-0.172,1.433,0c-0.452-1.123,0.742-0.596,0.862-1.15
			c-0.227-0.063-0.335-0.24-0.289-0.572c0.763,0.188,0.345-0.486,0.574-0.861c0.103-0.165,0.853,0.005,0.857-0.286
			c0.031,0.715,0.538,0.889,0,1.435c1.466,0.689,0.965,1.92,2.008,2.581c-0.165-0.107,0.2-0.564,0.287-0.575
			c0.079-0.008,0.396,0.866,0.861,0.575c0.043-0.337-0.053-0.815,0.285-0.86c1.05,1.426,2.487-0.639,3.726,0.285
			c0.051-0.429-0.102-1.057,0.289-1.146c-0.018,0.492,0.221,0.733,0.571,0.86c0.188-0.387,0.615-0.535,1.146-0.574
			c0.046-0.338-0.048-0.813,0.286-0.861c0.41,0.113,0.484,0.348,0.861,0c-0.035,0.72-0.545,0.897,0.285,1.15
			c0.063-0.35,0.321-0.177,0.576,0c0.361-0.358,0.272-1.185,0.285-1.436c0.012-0.219,0.285-0.267,0.287-0.287
			c0.199-1.261-0.809,0.309-0.861-0.861c0.389,0.561,0.996-0.023,0.861-0.286c-0.072-0.14-0.686,0.054-0.572-0.286
			c0.9-0.476,1.171,1.065,1.435,0.286c-0.478,0.126,0.023-1.066,0.285-1.145c0.206,0.649,0.863,0.856,1.432,1.145
			c0.113-0.49-0.424-0.734,0-0.858c0.854,0.102,1.745,0.164,2.008,0.858c-0.223,0.065-0.332,0.242-0.288,0.575
			c0.331,0.461,1.128,0.906,0.574,1.434c0.35,0.031,0.68,0.084,0.573,0.572c-0.286,0.002-0.34-0.233-0.573-0.286
			c-0.037,0.516,0.285,0.67,0.858,0.575c0.063,0.318,0.32,0.443,0.575,0.57c0.027,0.323-0.417,0.446,0,0.575
			c0.281-0.388,0.767-0.575,1.146-0.86v1.147c0.965-0.108,2.296-0.37,2.867,0.572c-0.393,0.026-1.116,1.117-0.571,1.146
			c0.04-0.821,1.193-0.524,2.004-0.574c-0.086,0.467,0.387,0.775,0.573,0.287c-0.221-0.062-0.332-0.237-0.285-0.572
			c0.745-0.186,1.229,0.264,1.721,0c0.194-0.104,0.062-1.029,0.573-0.858c0.074,0.4,0.628,0.325,0.86,0.572
			c0.118-0.568,1.239-0.818,2.005-0.859c0.434-0.024,1.103,0.391,1.146,0c-0.754-0.323,0.387-1.111,0.572-1.435
			c0.033,1.078,1.296,0.198,0.576,1.435c0.651-0.209,1.464-0.255,2.006-0.575c-0.373,0.383-0.177,0.866,0.288,1.148
			c0.05-0.426,0.692-0.266,1.146-0.286c0.004,0.473,0.795,0.159,0.857,0.572c-0.723,0.453,0.463,1.345,0.575,0.571
			c-0.529-0.043-0.179-0.969-0.575-1.144c1.565,0.301-0.081-0.972,1.434-0.862c1,0.084-0.024,0.777,0.574,0.862
			c0.51-0.752,1.159,0.005,1.719,0c0.323-0.008,0.456-0.222,0.863-0.287c0.498-0.083,0.317,0.343,0.856,0
			c0.689-0.438,0.527,0.133,1.434,0c0.289-0.38,0.271-1.065,0.861-1.146c0.583,0.838,1.5-0.39,2.005-0.575
			c0.034,0.349,0.087,0.679,0.575,0.575c-0.253,0.918,0.945,0.392,0.859,1.146c-0.176,0.017-0.339,0.044-0.284,0.287
			c0.71,0.234,1.694,0.487,2.006,0.858c0.806-0.453,1.217,0.331,2.004-0.286c-0.082,0.175-0.711,1.103,0,1.146
			c0.271-1.578,2.162-1.049,3.156-0.574c0.882,0.216,0.55-0.785,1.434-0.571c-0.028,0.453-0.733,0.224-0.573,0.858
			c0.781,0.026,0.575-0.477,1.145,0c-0.075-0.684,0.967-1.121,1.433-0.858c0.152,0.085-0.063,0.671,0.288,0.571
			c0.127-0.035-0.113-1.044,0.285-0.857c0.047,0.336-0.05,0.813,0.287,0.857c0.726-1.123,2.618-0.189,3.154,0.574
			c-0.041-1.024,0.734,0.029,1.435-0.574v0.574c1.431-0.126-0.636-0.604-0.288-1.432c0.539,0.355,1.291,0.056,1.721,0.286
			c0.169,0.09-0.021,0.876,0.571,0.571c0.662,0.09,0.32-0.826,0.861-0.857c0.264,0.963,0.534,0.142,1.434,0.286
			c0.113-0.496-0.427-0.736,0-0.859c-0.098,0.515,0.522-0.048,0.573,0c0.094,0.081-0.427,0.534,0,1.146
			c0.798-0.342,1.744-0.329,2.294,0.285c0.882,0.216,0.55-0.785,1.432-0.571c-0.329,0.771,1.377,1.378,0.573,0.858
			c-0.089-0.387-0.406-0.547-0.288-1.145c0.583,0.274,0.541,0.642,1.149,0.572c0.238-0.028,0.555-0.375,0.574,0
			c0.016,0.3,0.08,0.176,0.285,0.285c-0.368-0.195,0.563-0.039,0.286,0c0.153-0.02,0.496-0.317,0.575-0.285
			c0.069,0.027,0.45,0.482,0.572,0.572c0.296,0.223,0.567,0.357,0.861,0.574c0.051-0.401,0.691-0.295,1.145-0.287
			c0.466,0.007,0.263,0.314,0.574,0c0.191-0.189,0.259,0.258,0.287,0.287c0.152,0.186,0.816-0.26,0.861-0.287
			c0.726-0.462,0.637,0.029,1.144,0c0.078-0.004,0.229-0.51,0.574-0.287c0.409-1.265-0.97-0.749-0.858-1.718
			c0.674-0.01,0.844,0.491,1.72,0.287c0.064,0.226,0.008,0.558,0.286,0.572c0.83,0.042,1.312,0.894,2.006,1.146
			c0.756-0.83,1.638,0.644,2.865,0.287c0.113,0.408,0.346,0.483,0,0.859c0.411-0.111,0.484-0.346,0.861,0
			c-0.33-1.211-0.168-0.678,0.573-0.288c-0.249-0.917,0.443-0.896,0.859-1.146c0.493-0.111,0.735,0.426,0.861,0
			c-0.302-0.016-0.227-0.365,0.286-0.287c-0.087-0.667-0.612-1.231,0.287-1.431c0.064,0.222,0.24,0.331,0.576,0.287
			c0.027,0.318-0.42,0.445,0,0.572c-0.035-0.294,0.438-0.243,0.57,0c0.211,0.387-0.458,0.258,0,0.571
			c-0.127-0.086,0.135-0.313,0.287-0.285c-0.024-0.005,0.158,0.24,0.287,0.285c0.447,0.164,1.095,0.355,0.859,0.861
			c1.869-0.127,2.979-0.075,3.44-1.719c0.118-0.426-0.228-0.742-0.285-1.148c-0.137-0.913-0.07-2.11-0.575-2.579
			c0.852-0.13-0.082-0.975,0-1.147c0.115-0.244,0.82-0.227,0.86-0.572c-0.47-0.406-1.001-1.865,0.286-1.721
			c0.699,0.639,1.379,1.298,1.435,2.579c0.493-0.015,0.732,0.224,0.858,0.575c-0.218,1.081,0.35,1.369,0.287,2.295
			c0.773-0.259,0.33,0.57,0.574,0.859c0.327,0.384,1.125,0.746,1.146,1.146c0.017,0.324,0.201,0.136,0.283,0.286
			c0.094,0.167,0.146,0.725,0.29,0.859c0.202,0.19,0.918-0.157,0.858,0.287c-0.016,0.493,0.223,0.736,0.576,0.859
			c-0.271-1.438-0.967-2.736-1.435-4.012c-0.258-0.704-0.324-1.229-0.573-1.436c-0.025-0.02-0.29-0.87-0.288-0.858
			c-0.043-0.17,0.067-0.411,0-0.575c-0.055-0.135-0.501-0.403-0.571-0.572c-0.069-0.159,0.041-0.402,0-0.572
			c-0.062-0.244-0.242-0.186-0.287-0.286c-0.257-0.59-0.337-1.204-0.574-1.72c-0.066-0.148-0.499-0.396-0.571-0.575
			c-0.071-0.159,0.042-0.405,0-0.572c-0.063-0.249-0.24-0.181-0.29-0.287c-0.244-0.546-0.351-1.21-0.571-1.72
			c-0.063-0.141-0.217-0.001-0.288-0.289c-0.042-0.165,0.069-0.412,0-0.572c-0.06-0.136-0.491-0.404-0.573-0.572
			c-0.272-0.56-0.326-1.268-0.572-1.721c-0.097-0.172-0.438-0.337-0.571-0.571c-0.365-0.625-0.546-1.044-0.862-1.434
			c-0.396-0.484-0.576-0.704-0.861-1.148c-0.339-0.532-0.523-0.585-0.859-0.856c-0.097-0.08,0.082-0.478,0-0.576
			c-0.702-0.859-1.791-1.504-2.579-2.292c-0.794-0.795-1.631-1.671-2.295-2.582c-0.859-1.18-1.957-2.032-2.865-3.153
			c-0.447-0.548-1.188-1.623-1.433-2.006c-0.206-0.324-0.374-0.547-0.575-0.858c-0.203-0.324-0.372-0.55-0.571-0.861
			c-0.34-0.531-0.527-0.586-0.861-0.86c-0.093-0.077,0.073-0.471,0-0.574c-0.069-0.099-0.473-0.205-0.572-0.285
			c-0.093-0.076,0.069-0.471,0-0.574c-0.064-0.096-0.478-0.209-0.574-0.285c-0.095-0.078,0.076-0.471,0-0.574
			c-0.302-0.41-0.915-0.669-1.146-0.861c-0.098-0.078,0.081-0.475,0-0.574c-0.416-0.51-1.096-0.869-1.436-1.144
			c-0.095-0.08,0.09-0.482,0-0.576c-0.147-0.151-0.699-0.16-0.856-0.285c-0.241-0.188-0.35-0.646-0.577-0.859
			c-0.8-0.761-1.599-1.31-2.291-1.721c-0.075-0.042-0.154-0.199-0.289-0.284c-0.321-0.208-0.545-0.377-0.857-0.577
			c-0.604-0.384-0.646-0.827-1.436-0.857c-0.816,0.746-2.034,1.626-2.577,2.291c-0.077,0.093-0.471-0.07-0.574,0
			c-0.307,0.211-0.553,0.639-0.86,0.862c-0.301,0.215-0.345,0.293-0.573,0.573c-0.079,0.093-0.47-0.076-0.576,0
			c-0.122,0.09-0.164,0.459-0.283,0.572c-0.23,0.212-0.593,0.09-0.861,0.285c-0.343,0.251-0.541,0.633-0.861,0.861
			c-0.298,0.215-0.345,0.297-0.571,0.573c-0.078,0.095-0.472-0.075-0.574,0c-0.281,0.211-0.551,0.609-0.858,0.859
			c-1.001,0.811-2.278,1.463-3.155,2.006c-0.172,0.109-0.379,0.46-0.571,0.574c-0.294,0.175-0.62,0.137-0.862,0.287
			c-0.174,0.107-0.373,0.47-0.572,0.573c-0.551,0.292-1.22,0.341-1.721,0.574c-0.033,0.015,0.026,0.254,0,0.285
			c-0.207,0.254-1.235,0.204-1.433,0.287c-0.142,0.062-0.398,0.499-0.572,0.574c-0.161,0.066-0.406-0.044-0.575,0
			c-0.229,0.058-0.203,0.254-0.287,0.286c-1.946,0.766-5.137,1.549-6.879,2.008c-1.472,0.385-3.947,0.699-5.16,0.859
			c-1.045,0.137-1.407,0.241-2.008,0.285c-1.705,0.133-3.827,0.23-5.731,0c-0.368-0.044-0.407-0.238-0.862-0.285
			c-1.211-0.121-1.943-0.18-2.576-0.287c-0.209-0.035-1.01,0.139-1.148,0c-0.524-0.521-0.998-0.138-1.433-0.572
			c-0.153-0.152-0.926,0.06-1.147,0c-0.022-0.007,0.021-0.284,0-0.289c-0.817-0.152-1.139-0.212-1.433-0.285
			c-0.368-0.09-0.608-0.226-0.862-0.285c-0.367-0.095-0.607-0.225-0.861-0.287c-0.365-0.094-0.605-0.225-0.859-0.285
			c-0.17-0.047-0.406,0.061-0.57,0c-0.129-0.052-0.405-0.517-0.574-0.576c-0.764-0.268-1.466-0.264-1.72-0.571
			c-0.067-0.085-0.471,0.048-0.574,0c-0.035-0.019,0.027-0.256,0-0.289c-0.067-0.083-0.471,0.046-0.571,0
			c-0.036-0.013,0.027-0.252,0-0.287c-0.065-0.076-0.474,0.04-0.575,0c-0.343-0.129-0.645-0.313-0.859-0.571
			c-0.068-0.084-0.469,0.047-0.574,0c-0.035-0.018,0.029-0.257,0-0.288c-0.067-0.085-0.468,0.056-0.572,0
			c-0.037-0.019,0.028-0.252,0-0.286c-0.073-0.086-0.468,0.061-0.574,0c-0.163-0.093-0.387-0.471-0.573-0.574
			c-0.055-0.029-0.221,0.004-0.287,0c-0.329-0.016-0.128-0.184-0.284-0.285c-0.47-0.304-0.836-0.382-1.147-0.574
			c-0.226-0.14-0.616-0.559-0.861-0.572c-0.33-0.019-0.127-0.184-0.285-0.287c-0.466-0.302-0.826-0.408-1.148-0.574
			c-0.263-0.136-0.584-0.109-0.86-0.287c-0.432-0.283-0.438-0.837-0.858-0.859c-0.333-0.019-0.128-0.184-0.288-0.285
			c-0.557-0.363-1.027-0.541-1.433-0.861c-0.281-0.222-0.537-0.633-0.858-0.859c-0.127-0.089-0.432,0.064-0.576,0
			c-0.209-0.096-0.203-0.554-0.571-0.573c-0.333-0.019-0.129-0.186-0.288-0.286c-0.905-0.587-1.526-1.137-2.006-1.719
			c-0.08-0.1-0.475,0.081-0.573,0c-0.465-0.398-0.702-1.082-1.146-1.435c-0.115-0.095-0.463,0.095-0.575,0
			c-0.774-0.665-1.122-1.847-2.291-2.008c-0.739,0.028-0.41,1.119-1.146,1.146c-0.868,0.137-1.164,0.716-1.723,1.147
			c-0.474,0.367-0.753,0.396-1.146,0.571c-0.094,0.042-0.179,0.505-0.286,0.577c-0.246,0.158-0.649,0.171-0.858,0.284
			c-0.795,0.427-1.645,0.987-2.008,1.435c-0.079,0.094-0.475-0.08-0.572,0c-0.68,0.52-1.29,1.572-2.009,2.292
			c-0.742,0.744-1.688,1.282-2.29,2.007c-0.096,0.107,0.057,0.441,0,0.574c-0.041,0.088-0.504,0.186-0.576,0.287
			c-0.064,0.088-0.28,0.492-0.285,0.57c-0.02,0.337-0.172,0.128-0.289,0.289c-0.473,0.654-0.701,1.07-1.146,1.434
			c-0.095,0.079,0.076,0.47,0,0.571c-0.311,0.42-0.813,0.723-1.146,1.147c-0.174,0.223-0.424,0.375-0.575,0.576
			c-0.168,0.22-0.096,0.635-0.286,0.857c-0.684,0.798-1.623,1.271-2.292,2.008c-0.097,0.106,0.09,0.458,0,0.571
			c-0.521,0.646-1.418,1.138-2.006,1.72c-0.325,0.322-0.564,0.85-0.861,1.147c-0.336,0.337-0.891,0.546-1.147,0.861
			c-0.089,0.113,0.097,0.465,0,0.571c-0.874,0.965-2.036,1.597-2.867,2.584c-0.18,0.212-0.128,0.653-0.284,0.856
			c-0.187,0.241-0.681,0.323-0.86,0.573c-0.091,0.127,0.063,0.431,0,0.575c-0.047,0.102-0.508,0.164-0.574,0.286
			c-0.213,0.388-0.067,0.772-0.285,1.147c-0.099,0.168-0.475,0.376-0.575,0.571c-0.314,0.614-0.33,1.18-0.571,1.434
			c-0.252,0.263-0.367,0.533-0.574,0.859c-0.128,0.204-0.176,0.385-0.289,0.572c-0.098,0.173-0.461,0.387-0.571,0.575
			c-0.085,0.144,0.069,0.421,0,0.574c-0.047,0.101-0.505,0.165-0.574,0.287c-0.219,0.381-0.098,0.757-0.285,1.145
			c-0.015,0.028-0.225,0.189-0.286,0.287c-0.128,0.199-0.183,0.386-0.289,0.575c-0.163,0.291-0.429,0.347-0.574,0.571
			c-0.225,0.358-0.092,0.775-0.285,1.148c-0.021,0.042-0.214,0.175-0.286,0.286c-0.378,0.589-0.603,1.509-0.859,1.72
			c-0.096,0.076,0.071,0.471,0,0.573C565.68,93.069,565.418,93.138,565.259,93.423z M677.918,96.289c0.357,0.07,0.288,0.566,0,0.571
			c-0.585,0.161-0.563,0.863-1.146,0.287C676.964,96.075,677.722,97.36,677.918,96.289z M645.237,93.423
			c-0.029,0.037-0.646,1.195-1.146,0.861v-1.15c1.146,0.156,0.865,0.156,2.008,0C647.25,93.581,645.409,93.213,645.237,93.423z
			 M645.525,71.348c-0.123,0.642-1.413,0.117-2.007,0.288C643.643,70.992,644.932,71.52,645.525,71.348z M637.786,71.922h0.858
			c0.05,0.622-1.018,0.129-1.434,0.288C637.22,71.93,637.561,71.985,637.786,71.922z M635.778,93.423h0.861
			C636.715,94.195,634.11,93.419,635.778,93.423z M636.926,94.57c-0.354,0.41-0.984,0.543-1.72,0.574
			C634.933,94.108,636.333,94.741,636.926,94.57z M633.198,71.636h0.572C633.828,72.443,631.629,71.558,633.198,71.636z
			 M628.039,70.777c0.802,0.149,1.491,0.42,2.294,0.571c0.709-0.034,0.486,0.352,0,0.288c-0.925-0.128-1.554-0.549-2.58-0.575
			C627.312,70.911,627.733,70.762,628.039,70.777z M628.328,95.144c0.089,0.504-1.606,0.508-1.148-0.289
			C627.433,95.077,627.824,95.164,628.328,95.144z M624.024,69.628c0.254,0.063,0.493,0.194,0.861,0.287
			c0.282,0.072,1.435,0.589,2.294,0.572c-0.387,0.561-1.378,0.158-2.009,0c-0.635-0.157-1.156-0.582-1.721-0.572
			C623.437,69.726,623.833,69.58,624.024,69.628z M618.292,67.335c0.002,0.295,0.36,0.201,0.573,0.287
			c0.321,0.129,0.653,0.5,1.436,0.574c0.068,0.31,0.566,0.192,0.57,0.572c-1.091-0.244-1.822-0.852-2.865-1.146
			C617.564,67.472,617.985,67.322,618.292,67.335z M613.706,65.328c0.326,0.1,0.879,0.077,1.145,0.288
			c0.373,0.291,0.092,0.754,0,0.286c-0.711,0.043-0.886-0.448-1.432-0.574C613.506,64.886,613.662,65.317,613.706,65.328z
			 M607.111,60.743c0.149,0.147-0.042,0.285,0.289,0.285c0.432,0,0.025,0.406-0.289,0.285c-0.163-0.06-0.16-0.465-0.287-0.57
			C606.406,60.389,606.911,60.543,607.111,60.743z M599.373,93.709c-0.161,0.829-0.449-0.441-0.861-0.286
			C598.792,92.474,599.077,93.741,599.373,93.709z M590.773,93.134c-0.191-0.036,0.329,0.46,0.285,0.289
			c0.082,0.328-0.418,0.802-0.573,0.572c-0.032-0.049,0.276-0.438,0.288-0.572C590.773,93.441,590.359,93.052,590.773,93.134z
			 M586.758,77.081c0.478-0.567-0.025-0.363,0-1.146C587.318,75.794,587.79,77.359,586.758,77.081z M587.045,69.628
			c0.086-0.759-0.325-1.439,0-2.006c0.786-0.301,0.226,0.861,0.571,1.146c0.026,0.019,0.283-0.023,0.287,0
			c0.122,0.43-0.278,0.424-0.287,0.574c-0.032,0.547,0.696,1.078,0.86,2.005c-0.506,0.257-0.363,1.163-1.432,0.862
			c0.273-0.537-0.268-0.995-0.287-1.434C586.729,70.14,586.997,70.058,587.045,69.628z M586.758,73.929
			c0.053-0.244-0.114-0.271-0.285-0.286c0.103-0.451,0.502,0.251,0.572-0.29c0.325,0.057,0.16,0.29,0,0.29
			c-0.117,0.69,0.522,0.621,0.289,1.434c-0.154,0.441-0.303,0.017-0.289-0.286c-0.045-0.338-0.522-0.245-0.861-0.288
			C586.08,74.016,586.411,73.962,586.758,73.929z"/>
		<path fill-rule="evenodd" clip-rule="evenodd" fill="#F6921E" d="M616.285,53.864c-0.174,0.014-0.339,0.042-0.287,0.285
			c0.902-0.141,0.217,1.315,0.861,1.433V55.01c0.635,0.211,1.18-1.06,0.572-1.146c-0.702,0.884,0.517-0.622-0.287-0.575
			c-0.139,0.34-0.306,0.651-0.573,0.86C615.926,54.302,616.918,53.033,616.285,53.864z"/>
		<rect x="653.551" y="28.351" fill-rule="evenodd" clip-rule="evenodd" fill="#F6921E" width="0.573" height="0.572"/>
		<path fill-rule="evenodd" clip-rule="evenodd" fill="#F6921E" d="M653.838,20.323c0.203,0.463-1.352,0.463-1.147,0
			c0.28-0.295,0.565-0.58,0.86-0.86h0.573c-0.508-2.16-2.186,1.011-3.151,0c0.563,0.083,0.567-0.39,0.857-0.572
			c0.5,0.019,0.891-0.064,1.147-0.29c-0.234-1.094,1.382-0.336,1.146-1.431c-0.81-0.047-0.666,0.859-1.434,0.859
			c-0.185-0.626,0.813-0.914-0.284-0.859c-0.491,0.116,0.058,0.367,0,0.859c-0.381,0.002-0.262,0.5-0.576,0.571
			c-0.228,0.066-0.556,0.01-0.572,0.29c-0.05,0.968-1.432,0.64-1.432,1.433c0.632,0.14-0.215,0.377-0.287,0.572
			c-0.238,0.644-0.249,1.621,0,2.008c-0.324,0.059-0.448,0.317-0.574,0.572c0.653,0.394,1.078-0.739,1.147,0
			c-0.033,1.021-0.573,1.813,0.286,0.859c0,0.288,0.232,0.341,0.287,0.574c-0.204,0.023-0.797,0.495-0.573,0.859
			c0.088,0.146,0.671-0.057,0.573,0.288c-0.494-0.017-0.737,0.22-0.859,0.571c0.748,0.944,1.095-0.711,1.432,0
			c0.218,0.967-0.93,0.473-1.432,0.576c-0.11,0.021-0.407,0.546-0.861,0.285c-0.276,1.04,1.289,0.242,1.147,1.146
			c-0.391,0.093-0.549,0.407-1.147,0.288c0.564-1.451-1.47-0.586-0.574-0.288c0.016-0.175,0.043-0.339,0.288-0.284v0.861
			c-1.329,0.201-1.898,1.157-2.581,2.005c0.713,0.371,1.39-0.642,1.434,0c-0.586-0.093-0.051,0.883-0.286,1.146
			c-0.173,0.19-0.941-0.165-0.859,0.285c0.655,0.542,2.083-0.561,2.865,0.287c-0.891-0.03-0.817,0.901-2.006,0.571
			c0.355,0.93-0.927,0.221-0.574,1.148c0.285,0.646,1.563-0.62,2.008,0.287c-0.34,0.138-0.65,0.308-0.862,0.574
			c1.057,0.854,1.868,0.234,2.296-0.29c0.079-0.097,0.483,0.091,0.573,0c0.226-0.221-0.029-0.397,0.287-0.571
			c0.204-0.115,0.979,0.601,0.857-0.287c-0.333-0.049-0.31-0.451-0.285-0.861c0.414,0.322,0.699,0.311,0.861-0.285
			c-0.881-0.209-0.844,0.493-1.721,0.285c0.698-0.674-0.43-0.531-0.287-1.433c0.73,0.308,1.004-1.233,1.432-0.286
			c0.033,0.293-1.234,0.579-0.285,0.86c0.302-0.81,1.135-0.359,0.571-1.432c0.235-0.099,0.642,0.118,0.861,0
			c0.088-0.05-0.073-0.503,0-0.574c0.084-0.083,0.508,0.093,0.573,0c0.194-0.28,0.194-0.897,0-0.862
			c-0.806,1.008-0.226,0.257,0-0.568c-1.465-0.594-1.583,1.64-2.293,0.856c0.885-0.931,2.228-1.404,2.866-2.579
			c-0.926-0.355-0.219,0.928-1.146,0.571c0.067-0.408,0.474-0.481,0.573-0.856c-0.824,0.059-1.456-0.075-1.721-0.576
			c0.359-0.03,0.398-0.356,0.576-0.571c0.053-0.069,0.541,0.075,0.571,0c0.111-0.277-0.327-0.812-0.287-0.862
			c0.105-0.132,0.483,0.334,0.572,0.287c0.142-0.068-0.052-0.686,0.288-0.572c-0.26-0.839-0.26-0.881,0-1.721
			c-0.373,0.094-0.146-0.438-0.288-0.571c-0.219-0.213-1.202-0.029-0.856-0.863c0.284,0.003,0.339-0.23,0.571-0.286
			c-0.061,0.505,1.218,1.54,0.573,0.861c0.246-0.914-0.451-0.888-0.573-1.434C653.562,21.14,654.76,20.645,653.838,20.323z
			 M648.391,29.781c0.09-0.605,1.358-0.059,1.148,0.574C648.61,30.709,649.32,29.428,648.391,29.781z M648.965,34.656
			c0.099-0.378,0.504-0.451,0.574-0.861C650.251,33.912,649.556,34.909,648.965,34.656z M652.691,30.355
			c-0.126,0.354-0.364,0.588-0.86,0.573C651.959,30.575,652.198,30.339,652.691,30.355z M650.399,22.617
			c-0.863-0.429,0.209-1.288,0.859-1.149C651.173,22.053,650.482,22.031,650.399,22.617z M651.258,22.042
			c0.125-0.089,0.432,0.062,0.572,0c0.017-0.006,0.414-0.386,0.286,0c-0.04,0.13-0.438,0.221-0.571,0.287
			C650.845,22.677,650.981,22.24,651.258,22.042z M652.978,23.762c-0.431-0.456-1.207,0.009-1.433,0.573
			C650.173,23.615,653.072,22.318,652.978,23.762z"/>
		<path fill-rule="evenodd" clip-rule="evenodd" fill="#F6921E" d="M645.525,6.277c0.427-0.559-0.09-0.804,0.573-1.15
			c0.283-0.143,0.854,0.131,0.858-0.285c-0.793-0.928,0.531-0.9,0-1.43c-0.211-0.213,0.915-0.408,0.575-0.862
			c-1.251,0.199-1.613-0.488-2.865-0.286c-0.066,0.222-0.01,0.566-0.287,0.573c-1.091,0.003-1.981,0.555-2.293,0.575
			c-0.36,0.016-0.294,0.457-0.573,0.57c0.106-0.043-0.124-0.305-0.288-0.285c0.044-0.004-0.16,0.246-0.288,0.285
			c-0.892,0.271-0.789,0.104-1.146,0.575c-0.137-0.34-0.308-0.649-0.573-0.86c-0.004,0.379-0.502,0.262-0.574,0.572
			c0.313,0.069,0.691,0.473,0.287,0.572c-0.173-0.492-1.358,0.024-1.434-0.572c0.16,0.002,0.325-0.231,0-0.287
			c-0.004,0.477-0.795,0.16-0.858,0.575c0.158-0.003,0.323,0.231,0,0.284c-0.166-0.254-1.181-1.272-0.576-0.572
			c0.068,1.418-0.412,0.952-1.431,0.857c0.087,0.566-0.388,0.572-0.573,0.861c0.395,0.014,0.63-0.135,0.859-0.285
			c0.144,0.561-0.625,1.829,0,1.145c0.365-0.764,1.598,0.447,0.859,0.574c0.762,0.274,1.676-0.328,1.72-0.283
			c0.079,0.072-0.293,0.572-0.287,0.572c0.526,0.02,0.54-0.383,1.721-0.289c1.263,1.287,3.177,0.206,4.874,0.859
			c0.678-0.545,0.615-2.096,1.146-1.434c0.168,0.21,0.274-0.271,0.285-0.286c-0.005,0.01-0.277,0.01-0.285,0
			C644.716,6.327,645.509,6.298,645.525,6.277z M636.639,6.847c-0.508-0.256-0.837-0.69-1.433-0.859
			C635.458,5.388,636.805,6.08,636.639,6.847z"/>
		<path fill-rule="evenodd" clip-rule="evenodd" fill="#F6921E" d="M661.004-46.471c-0.26-0.077-0.592,0.049-0.859,0
			c-0.502-0.092-0.657-0.258-1.146-0.285c-0.457-0.03-1.22-0.234-1.721,0.285h2.293c0.482,0.567,1.931,0.496,2.581,0.572
			c0.588,0.071,1.919,0.75,2.294,0c-1.176,0.029-1.479-0.138-2.294-0.285c-0.21-0.037-0.247-0.275-0.286-0.287
			c-0.276-0.073-0.356,0.324-0.573,0.287C661.302-46.182,661.157-46.427,661.004-46.471z"/>
		<path fill-rule="evenodd" clip-rule="evenodd" fill="#F6921E" d="M662.152-60.518C660.993-61.525,661.473-59.594,662.152-60.518
			L662.152-60.518z"/>
		<path fill-rule="evenodd" clip-rule="evenodd" fill="#F6921E" d="M663.01-27.838c-0.888,0.395-2.033,1.677-2.865,1.719
			c-0.332,0.019-0.129,0.185-0.287,0.286c-0.723,0.468-1.674,0.262-2.58,0.575c-0.03,0.011,0.026,0.259,0,0.287
			c-0.434,0.431-2.093-0.473-2.292,0.574c0.542,0.126,1.726-0.39,1.434,0.572c-1.199-0.242-1.356,0.559-2.295,0.571
			c0.002,0.77-0.906,0.624-0.861,1.434c0.341,0.047,0.815-0.049,0.861,0.289c-0.651,0.754,0.245,0.305,0.286,0.859
			c0.042,0.514,1.574,0.712,1.723,0.859c0.142,0.146-0.348,0.455-0.288,0.572c0.876,0.21,1.042-0.294,1.72-0.286
			c0.569,0.003,0.365,0.783,1.146,0.574c0.308-0.956,0.87-0.021,1.723-0.574c0.245-0.337,0.049-0.825,0.285-1.146
			c0.104-0.141,0.509,0.361,0.574,0.284c0.134-0.155-0.093-0.667,0-0.858c0.048-0.104,0.503-0.167,0.573-0.285
			c0.133-0.227,0.221-0.686,0.286-0.861c-0.002,0.002-0.275,0.009-0.286,0c-0.201-0.16,0.297-0.322,0.286-0.287
			c0.313-1.004-0.126-0.625,0-1.432c0.002-0.02,0.268,0.016,0.286,0c0.441-0.361-0.132-2.254-0.286-2.58
			C662.438-26.942,663.631-28.492,663.01-27.838z"/>
		<path fill-rule="evenodd" clip-rule="evenodd" fill="#F6921E" d="M616.285-26.404c0.217-0.686,0.482,0.521,0.574,0.571
			c0.323,0.191,0.705-0.336,0.858-0.286c0.187,0.064,0.151,0.782,0.288,0.861c0.232,0.135,0.892-0.09,0.859-0.286
			c-0.288-0.004-0.358-0.504,0-0.575c-0.012,0.396,0.136,0.63,0.285,0.861c0.863-0.013,2.92-0.309,2.296-0.861
			c-0.692,0.628,0.447-0.542,0.573-0.857c-0.32-0.063-0.445-0.32-0.573-0.576c0.34-0.138,0.647-0.306,0.859-0.572
			c-0.715-0.042-0.083-0.97,0-1.146c-0.914-0.246-0.888,0.45-1.435,0.576c0.392-1.281,0.047-0.606-0.57-0.576
			c-0.244,0.01-0.401-0.334-0.575-0.287c-0.13,0.035,0.043,0.281-0.285,0.287c-0.281,0.005-0.355-0.305-0.575-0.287
			c-0.029,0.003-0.479,0.551-0.573,0.572c0.35-0.089,0.988,0.828,0.287,0.86c-0.358-0.115-0.585-0.369-0.573-0.86
			c-0.811-0.05-0.667,1.079-1.435,0.291c-0.012,0.39,0.135,0.625,0.288,0.856c-0.226,0.064-0.332,0.24-0.288,0.574
			C616.224-27.351,615.583-26.435,616.285-26.404z"/>
		<path fill-rule="evenodd" clip-rule="evenodd" fill="#F6921E" d="M606.252-53.636C607.217-52.767,607.123-54.698,606.252-53.636
			L606.252-53.636z"/>
		<path fill-rule="evenodd" clip-rule="evenodd" fill="#F6921E" d="M608.546,31.788c0.066,0.313,0.469,0.688,0.573,0.286
			c-0.589-0.084-0.014-0.618,0-0.857c0.014-0.249,0.274-0.234,0.285-0.289c0.068-0.311-0.247-0.183-0.285-0.285
			c-0.213-0.563,0.481-1.073,0.571-1.147c0.177-0.141-0.281-0.371-0.286-0.283c0.056-1.137,0.241-1.422,0.286-2.295
			c0.009-0.178,0.291-0.324,0.288-0.289c0.021-0.363-0.313-0.395-0.288-0.859c0.011-0.204,0.288-0.289,0.288-0.287
			c0.214-1.863,0.225-3.32,0.286-5.158c0.012-0.385,0.285-0.643,0.285-0.86c0-0.357-0.398-0.411-0.285-0.862
			c0.109-0.43,0.668-0.239,0.572-0.859c-0.777,0.016-0.287-0.22-0.287-0.571v-1.435c0-0.277-0.265-0.207-0.285-0.286
			c-0.069-0.261,0.272-0.364,0.285-0.574c0.028-0.472,0-0.958,0-1.435c0-0.276,0.267-0.203,0.287-0.285
			c0.069-0.262-0.274-0.362-0.287-0.571c-0.024-0.479,0.041-0.961,0-1.435c-0.054-0.676-0.257-1.309-0.285-2.008
			c-0.038-0.939,0.448-1.063,0-1.432c-0.431-0.352,0.285-1.441,0.285-1.434c0,0-0.55-0.24-0.571-0.289
			c-0.127-0.266,0.279-0.242,0.286-0.285c0.056-0.279-0.279-0.235-0.286-0.287c-0.045-0.289,0.286-0.341,0.286-0.574
			c0,0.084-0.26-0.171-0.286-0.284c-0.257-1.024,0.364-1.222,0.571-1.721c-0.377-0.081-0.629-0.012-0.285-0.287
			c0.183-0.146-0.288-0.36-0.286-0.286c-0.012-0.52,0.42-0.761,0.286-1.434c-0.792-0.068-0.104-1.617-1.146-1.434
			c-0.021,0.326,0.109,0.435,0.285,0.572c0.174,0.138-0.279,0.375-0.285,0.287c0.038,0.514,0.25,0.854,0.285,1.147
			c0.251,2.05,0.181,4.167,0.286,6.308c0.023,0.427,0.255,1.041,0.288,1.432c0.254,3.041,0.151,7.257,0,10.608
			c-0.019,0.415-0.251,0.591-0.288,0.858c-0.039,0.299,0.263,0.197,0.288,0.287c0.068,0.262-0.275,0.362-0.288,0.572
			c-0.097,1.592-0.187,2.693-0.286,3.441c-0.072,0.563,0.051,0.87-0.285,1.147c-0.078,0.061,0.036,0.472,0,0.571
			C608.533,28.185,607.769,30.052,608.546,31.788z"/>
		<path fill-rule="evenodd" clip-rule="evenodd" fill="#F6921E" d="M641.8,32.649h-0.575c0.002,0.287-0.232,0.343-0.288,0.573
			c0.535-0.272,0.96,0.857,1.149,0c-0.225-0.063-0.568-0.01-0.573-0.286C641.687,32.92,641.85,32.894,641.8,32.649z"/>
		<path fill-rule="evenodd" clip-rule="evenodd" fill="#F6921E" d="M598.798-16.655c-0.05,0.715,0.437,0.895,0.86,1.143
			c-0.004-0.533-0.236-0.641-0.286-1.143c-0.096-0.9,0.271-2.928-0.288-2.296c0.169,1.027-0.333,1.388-0.573,2.008
			C598.688-16.929,598.852-16.901,598.798-16.655z"/>
		<path fill-rule="evenodd" clip-rule="evenodd" fill="#F6921E" d="M608.546,32.936c-0.235,0.21-0.771,1.982,0.284,1.72
			C608.358,34.019,608.893,33.102,608.546,32.936z"/>
		<path fill-rule="evenodd" clip-rule="evenodd" fill="#F6921E" d="M601.664-42.172c0.081-0.391-0.177-1.118-0.286-0.571
			C601.299-42.354,601.558-41.625,601.664-42.172z"/>
		<path fill-rule="evenodd" clip-rule="evenodd" fill="#F6921E" d="M603.671-52.779c-0.719,0.809-1.834,1.222-1.717,2.867
			c0.49,0.114,0.732-0.425,0.856,0c-0.407,0.351,0.109,0.853,0,1.436c-0.014,0.071-0.543,0.449-0.572,0.571
			c-0.271,1.112,0.198,2.314,0,3.725c0.73-0.078,1.28,0.113,2.007,0c0.019-0.001-0.02-0.264,0-0.283
			c0.173-0.175,2.405-0.347,2.293-0.289c0.143-0.073-0.054-0.682,0.285-0.572c0.159,0.646,0.449-0.349,0.862,0.288
			c0.004-0.473,0.795-0.16,0.86-0.573c-0.479,0.029-0.125-0.555-0.288-0.861c-0.118-0.219-0.458-0.249-0.572-0.572
			c-0.094-0.262,0.32-0.365,0.286-0.573c-0.028-0.176-0.837-0.329-0.572-0.859c-0.495-0.115-0.734,0.426-0.861,0
			c0.593-1.211,1.479,1.14,1.72,0.284c-0.318-0.058-0.446-0.318-0.572-0.572c0.141-1.193-0.34-1.762-1.147-2.005
			c0.432-1.264-0.835-1.024-0.574-1.721c0.049-0.131,0.705,0.044,0.574-0.289c-1.067,0.304-0.925-0.603-1.434-0.857
			c0.076,0.289-0.162,0.187-0.285,0.286c-0.58,0.457-0.309,1.493-0.861,1.72C603.91-52.059,604.06-52.689,603.671-52.779z
			 M607.111-49.626c-0.352-0.124-0.589-0.366-0.572-0.859C606.892-50.356,607.127-50.118,607.111-49.626z M605.964-47.044
			c0.569,0.002,0.365,0.781,1.146,0.572C606.863-45.391,605.841-46.146,605.964-47.044z"/>
		<path fill-rule="evenodd" clip-rule="evenodd" fill="#F6921E" d="M602.526-29.844c-0.14-0.339-0.309-0.649-0.571-0.861
			C601.909-30.321,602.401-29.124,602.526-29.844z"/>
		<path fill-rule="evenodd" clip-rule="evenodd" fill="#F6921E" d="M606.824-35.29c0.104-0.652,0.347-2.707-0.571-3.153
			c-0.173,0.687-0.414,1.307-0.288,2.292C606.651-36.266,605.807-34.845,606.824-35.29z"/>
		<path fill-rule="evenodd" clip-rule="evenodd" fill="#F6921E" d="M597.078-28.125c0.078-0.39-0.177-1.12-0.285-0.569
			C596.713-28.308,596.969-27.578,597.078-28.125z"/>
		<path fill-rule="evenodd" clip-rule="evenodd" fill="#F6921E" d="M607.686-25.544c-1.514-0.136,0.665,0.771-0.286,0.86
			c-0.789-0.009-0.683-1.353-0.289-1.721c-0.348-0.429-0.739-0.738-0.858-1.148c-0.137-0.466,0.538-0.422,0-0.856
			c-0.072-0.062,0.026-0.479,0-0.576c-0.264-0.922-0.141-0.59,0-1.146c0.034-0.14,0.026-0.432,0-0.574
			c-0.204-1.1-0.865-2.206-1.147-3.439c-0.343-1.501-0.299-2.849-0.574-4.298c-0.691-0.12-0.621,0.522-1.434,0.286
			c-0.044,0.34,0.051,0.813-0.286,0.86c-0.086,0.562,0.388,0.565,0.574,0.86c-0.617,0.68-0.162,1.704-0.288,2.578
			c-0.052,0.374-0.257,0.396-0.286,0.86c-0.096,1.546,0.223,3.245,0.286,4.013c0.106,1.248,0.227,2.252,0.288,2.866
			c0.067,0.651-0.125,1.438,0,2.009c0.054,0.248,0.271,0.365,0.286,0.573c0.036,0.479-0.496,0.454,0,0.858
			c0.061,0.05-0.012,0.486,0,0.574c0.15,1.051,0.216,1.396,0.287,2.008c0.143,1.2,0.175,1.947,0.287,2.578
			c0.185,1.047,0.435,2.191,0.574,3.153c0.181,1.282,0.138,2.185,0.571,2.867c0.652,1.022,0.235,2.778,1.147,3.728
			c-0.121-1.175,0.266-1.838,0.572-2.581c-0.382-0.703-0.862,0.517-1.146-0.287c0.873-0.287,0.368-0.472,0-0.859
			c0.294-0.155,0.573-1.15,0.574-1.146c-0.012-0.063-0.454-0.001-0.286-0.287c0.086-0.144,0.675,0.06,0.571-0.287
			c-0.458-0.398-0.306-1.416-0.859-1.718c0.447-0.078,0.199-0.633,0-0.861c0.862,0.288,0.507-0.64,0.574-1.146
			c0.467,0.085,0.773-0.389,0.285-0.575c0.003,0.159-0.229,0.328-0.285,0c-0.06-0.552,0.601-0.332,0.861-0.574
			c0.165-0.154,0.103-1.253,0.858-0.858c0.021-0.499-0.063-0.89-0.286-1.146c0.366,0.014,0.397,0.367,0.858,0.285
			c0.427-1.984-0.24-2.456-0.284-4.585C608.125-24.647,607.635-24.828,607.686-25.544z M607.111-18.666
			c-0.927,0.356-0.218-0.926-1.146-0.573c0.079-0.59,1.069-0.27,1.146-0.857c0.325,0.052,0.161,0.285,0,0.285
			C607.086-19.028,607.588-19.235,607.111-18.666z M607.972-24.396C609.032-23.528,607.1-23.433,607.972-24.396L607.972-24.396z"/>
		<path fill-rule="evenodd" clip-rule="evenodd" fill="#F6921E" d="M596.503-26.976c-0.249,1.091,0.156,1.435,0.289,0.857
			C596.835-26.318,596.691-27.786,596.503-26.976z"/>
		<path fill-rule="evenodd" clip-rule="evenodd" fill="#F6921E" d="M665.018,44.69c-0.38-0.373-1.067-0.379-1.146,0.285
			C664.252,45.348,664.937,45.352,665.018,44.69z"/>
		<path fill-rule="evenodd" clip-rule="evenodd" fill="#F6921E" d="M647.246,38.957h-0.859c-0.224,0.063-0.566,0.007-0.575,0.286
			C646.23,39.087,647.293,39.577,647.246,38.957z"/>
		<rect x="636.353" y="61.888" fill-rule="evenodd" clip-rule="evenodd" fill="#F6921E" width="0.573" height="0.574"/>
		<path fill-rule="evenodd" clip-rule="evenodd" fill="#F6921E" d="M643.805-37.297c-0.541,0.063-0.632-0.325-1.148-0.285v1.146
			c0.328,0.069,0.436-0.178,0.576-0.289C643.418-36.873,643.593-37.164,643.805-37.297z"/>
		<path fill-rule="evenodd" clip-rule="evenodd" fill="#F6921E" d="M640.652-15.512c-0.38-0.002-0.262-0.501-0.572-0.572
			C639.752-15.497,640.526-14.718,640.652-15.512z"/>
		<path fill-rule="evenodd" clip-rule="evenodd" fill="#F6921E" d="M642.372-32.137c0.008,0.027,0.259-0.022,0.285,0
			c0.09,0.072-0.058,0.468,0,0.573c0.095,0.165,0.48,0.381,0.576,0.574c0.261,0.524,0.304,1.288,0.572,1.72
			c0.068,0.106,0.478,0.184,0.574,0.285c0.189,0.205,0.093,0.652,0.287,0.86c0.137,0.148,0.703,0.169,0.858,0.287
			c0.55,0.428,0.765,1.112,1.432,1.147c0.306,0.016,0.164,0.234,0.289,0.286c0.863,0.355,1.434,0.186,2.294,0.285
			c0.364,0.044,0.407,0.24,0.859,0.286c1.009,0.105,1.062,0.225,1.718,0.289c1.296,0.132,2.235-0.196,2.869-0.289
			c0.941-0.134,1.148,0.063,1.434-0.286c0.013-0.015,1.182-0.297,1.146-0.285c0.626-0.175,1.296-0.075,1.719-0.286
			c0.204-0.104,0.611-0.652,0.861-0.862c0.343-0.285,0.832-0.431,0.859-0.856c-1.135,0.048,0.094-0.443-0.571-0.861
			c-0.103-0.41-1.462-0.979-1.723-0.287c0.338,0.045,0.813-0.048,0.86,0.287c-0.653,0.079-1.075-0.07-1.146-0.574
			c-0.332-0.693,1.368-0.861,0.286-0.861c-0.767,0-0.542-1.19-0.571-1.719c-1.268-0.898-3.158-0.693-4.301-0.573
			c-0.789,0.083-2.087-0.052-2.58,0c-0.579,0.062-0.619,0.241-0.859,0c-0.145-0.145-0.934,0.046-1.147,0
			c-0.587-0.129-1.754-0.511-2.006-0.572c-0.368-0.093-0.609-0.225-0.859-0.288c-0.196-0.047-0.59,0.098-0.575,0.288
			c0.724,0.104,1.066-0.016,1.435,0.286c0.06,0.049-0.066,0.553,0,0.571c0.528,0.173,0.923-0.392,1.146,0
			c-0.122,0.642-1.412,0.118-2.005,0.288c-0.384-0.288-0.866-0.472-1.149-0.859c-1.649,0.217-2.002-0.861-3.15-1.147
			C642.352-33.806,642.166-32.786,642.372-32.137z M659.858-28.694h-0.574C659.227-29.507,661.428-28.62,659.858-28.694z"/>
		<path fill-rule="evenodd" clip-rule="evenodd" fill="#F6921E" d="M644.09-13.505c1.292-0.321,2.304,0.316,2.866,0.286
			c0.286-0.013,0.346-0.218,0.575-0.286c0.322-0.098,0.825,0.089,0.859-0.286c-0.721-0.047-0.877-0.394-1.146-0.574
			c-0.609-0.407-1.848-0.479-2.579-0.286c-0.178-0.496-1.361,0.021-1.434-0.572c-0.412-0.072-0.607,0.216-0.861,0.287
			c-1.051,0.295-1.231,0.105-1.72,0c-0.966-0.211-1.128,0.207-1.721,0.285c-0.562,0.073-0.87-0.051-1.146,0.286
			c-0.064,0.079-0.472-0.04-0.575,0c-0.204,0.082-0.39,0.258-0.571,0.285c-0.77,0.129-1.387-0.347-2.007,0.289
			c0.114,0.362,0.908,0.048,1.146,0.286c0.055,0.054-0.063,0.555,0,0.573c0.672,0.217,1.303-0.151,2.294,0
			c0.018,1.082,0.278,0.129,0.859,0.287c0.139,0.038,0.304,0.499,0.574,0.573c-0.092-0.024,0.118-0.296,0.286-0.288
			c0.075,0.002,0.23,0.51,0.572,0.288c0.072-0.535,0.475,0.162,0.573-0.288c-0.66,0.037,0.56-1.86,0.863-0.859
			c-0.226,0.064-0.566,0.007-0.575,0.287c0.7,0.153,1.069-0.448,1.723-0.573c0.416-0.079,0.611,0.286,0.857,0.286
			C643.722-13.219,643.975-13.473,644.09-13.505z"/>
		<path fill-rule="evenodd" clip-rule="evenodd" fill="#F6921E" d="M609.979,95.43c-0.035-0.295,1.235-0.579,0.286-0.86
			C610.418,94.982,609.148,95.268,609.979,95.43z"/>
		<rect x="646.671" y="37.521" fill-rule="evenodd" clip-rule="evenodd" fill="#F6921E" width="0.574" height="0.575"/>
		<path fill-rule="evenodd" clip-rule="evenodd" fill="#F6921E" d="M648.391-0.604c-0.082,0.178-0.714,1.104,0,1.146
			C647.998-0.11,649.131-0.535,648.391-0.604z"/>
		<path fill-rule="evenodd" clip-rule="evenodd" fill="#F6921E" d="M664.16-42.743c-2.3-2.541-9.163-3.9-13.761-2.867
			c-0.332,0.074-0.82-0.073-0.859,0.285c0.938,0.297,2.193,0.745,2.577,0.861c1.042,0.314,1.622,0.1,2.008,0.572
			c0.074,0.088,0.47-0.058,0.573,0c0.165,0.092,0.384,0.475,0.575,0.574c0.493,0.254,1.024,0.359,1.434,0.574
			c0.78,0.41,1.513,0.861,2.004,1.144c1.84,1.067,3.903-0.197,4.874-0.858C663.81-42.522,664.15-42.465,664.16-42.743z
			 M657.278-43.604c0.181-1.008,1.197-0.256,1.146,0.572C657.964-43.611,658.042-43.32,657.278-43.604z M661.866-42.172
			c0.006-0.28,0.351-0.222,0.572-0.286c-0.362-0.43-1.17-0.862-0.572-1.434c0.527,0.333,0.197,1.521,1.433,1.148
			C663.053-42.32,662.579-42.129,661.866-42.172z"/>
		<path fill-rule="evenodd" clip-rule="evenodd" fill="#F6921E" d="M647.532,36.948c0.034-0.54,0.948-0.199,0.859-0.859
			C647.898,36.018,646.693,36.629,647.532,36.948z"/>
		<path fill-rule="evenodd" clip-rule="evenodd" fill="#F6921E" d="M654.986-42.458c0.45,0.279,0.917,0.422,1.147,0.573
			c0.367,0.245,1.951,0.69,1.719,0.285c-0.58-0.208-0.98-0.575-1.433-0.858c-0.521-0.327-1.553-0.891-1.722-1.146
			c-0.429,0.048-1.059-0.103-1.146,0.287c0.398-0.016,0.625,0.141,0.859,0.285C654.585-42.923,654.793-42.575,654.986-42.458z"/>
		<path fill-rule="evenodd" clip-rule="evenodd" fill="#F6921E" d="M633.77-25.833c-0.754,0.742-0.271,1.066-0.572,2.009
			c0.529-0.05,0.617,0.336,0.861,0.571c0.142,0.14,0.424,0.166,0.573,0.289c0.091,0.072-0.093,0.506,0,0.572
			c0.188,0.138,0.651-0.107,0.86,0c0.227,0.779,0.736,1.184,1.146,1.432c0.672,0.415,1.203,1.432,1.72,0.863
			c0.425-0.055,0.261-0.693,0.285-1.148c0.663,0.086,0.319-0.826,0.861-0.859c1.094,0.055,2.458-0.164,2.581,0.859
			c1.281-0.202,2.165-0.164,3.725-0.574c-0.245,0.902-1.084,1.212-1.145,2.294c0.082,0.583,0.574,0.764,0.858,1.147
			c-0.452,0.026-0.226,0.732-0.858,0.573c-0.062,0.543,0.351,0.595,0.57,0.861c0.188,0.222,0.517,0.51,0.574,0.858
			c-0.006-0.055-0.642,0.841,0,0.861c-0.145-0.589,0.395-0.61,0.575-0.861c0.207-0.287,0.25-0.688,0.57-0.858
			c0.571,0.002,0.366,0.78,1.15,0.571c0.449-0.026,0.222-0.73,0.858-0.571c0.781,0.268,0.543,1.556,2.008,1.146
			c0.35-1.308-1.006-0.906-1.146-1.721c-0.007-0.379-0.505-0.26-0.575-0.574c0.647-0.158-0.347-0.443,0.288-0.858
			c-0.328-0.175-0.723,0.347-0.86,0.285c-0.21-0.088,0.306-0.386,0.286-0.285c0.117-0.595-1.578-1.047-0.858-2.009
			c-0.41-0.109-0.484-0.343-0.861,0c0.628-0.683-0.466-0.977-0.859-1.145c-0.166-0.07,0.062-0.266-0.288-0.287
			c0.011,0-0.24,0.453-0.287,0c0.158,0,0.324-0.23,0-0.287c0.21-1.45-0.786-1.696-0.859-2.865c-0.563-0.488-1.434-0.671-1.719-1.433
			c-0.318-1.214-1.125-2.303-1.72-3.44c-0.501-0.955-1.39-2.297-1.434-3.153c-0.017-0.308-0.232-0.157-0.288-0.288
			c-0.479-1.116-0.846-2.532-1.433-3.724c-0.479-0.978-0.89-2.866-2.581-2.582c-0.133,1.054-1.26,3.102-0.571,4.3
			c-0.29-0.062-0.19,0.142-0.288,0.287c-0.461,0.69,0.089,0.771-0.286,1.146c-0.149,0.147,0.052,0.931,0,1.147
			c-0.09,0.366-0.241,0.402-0.288,0.859c-0.08,0.81,0.242,3.197,0,3.439C633.775-28.414,633.815-26.569,633.77-25.833z"/>
		<rect x="674.192" y="97.148" fill-rule="evenodd" clip-rule="evenodd" fill="#F6921E" width="0.574" height="0.574"/>
		<path fill-rule="evenodd" clip-rule="evenodd" fill="#F6921E" d="M641.8-37.297c0.031-0.411,1.256-1.497,0-1.434
			C642.172-38.019,640.958-37.542,641.8-37.297z"/>
		<path fill-rule="evenodd" clip-rule="evenodd" fill="#F6921E" d="M629.184-6.626c0.973,0.039,0.787,1.095,1.148,1.435
			c0.32,0.305,0.713,0.038,1.146,0.285c0.422,0.242,0.658,1.053,0.857,1.147c0.152,0.072,0.412-0.042,0.576,0
			c0.191,0.049,0.245,0.276,0.285,0.289c0.888,0.268,1.188,0.162,2.009,0.286c0.419,0.062,0.513,0.37,1.146,0.286
			c0.884-0.118,0.304-0.84,0.857-0.286c1.246,1.241,3.978-0.79,5.737-0.286c0.061-0.225,0.005-0.565,0.285-0.576
			c0.061,0.237,0.149,0.407,0.285,0.576c0.159,0.197,0.333-0.299,0.287-0.289c-0.686,0.16,0.345-0.701,0.861-0.287
			c0.09-0.387,0.406-0.547,0.285-1.146c1.436,0.119,0.348-0.29,0.573-0.86c0.115-0.292,1.26-0.575,1.146,0
			c0.271,1.165-1.661,0.883-0.86,1.721c-0.797-0.457-0.794,1.238-0.286,1.147c0.097-0.273,0.381-0.405,0.573-0.575
			c0.267-0.234,0.364-0.572,0.858-0.572c-0.52,0.514-0.053,0.665,0,1.147c0.004,0.017-0.34,0.013-0.285,0.286
			c-0.007-0.034,0.458,0.286,0,0.286c-0.425,0-0.263,0.731-0.285,1.148c-0.224,0.063-0.566,0.004-0.575,0.284
			c0.965-0.029,1.518-0.571,2.006,0.29c1.097,0.137,0.898-1.017,1.435-1.437c0.837,0.081,0.985-0.068,0.575-0.572
			c0.953,0.063,0.972-0.759,1.146-1.148c0.049-0.107,0.518-0.146,0.572-0.285c0.156-0.4-0.136-1.033,0.571-0.86
			c0.21-0.782-0.566-0.577-0.571-1.146c1.209,0.047-0.005-0.441,0-0.861c0.835,0.131,0.207-0.373,0.285-0.572
			c0.016-0.033,0.259,0.023,0.286,0c0.003,0,0.269-0.959,0.29-0.861c-0.014-0.047-0.468-0.017-0.29-0.289
			c0.352-0.029,0.68-0.082,0.574-0.569c-0.059-0.345-0.317-0.179-0.574,0c-0.156-0.511-0.145-1.192-0.571-1.435
			c0,0.157-0.234,0.324-0.287,0c-0.881,0.076-1.287,0.622-2.007,0.859c-0.644-0.652-1.849,0.315-2.58,0.288
			c-0.301-0.015-0.741-0.312-0.86-0.288c-0.186,0.039-0.318,0.83-0.859,0.575v-1.148c-1.122-0.165-1.663,0.248-2.295,0.573
			c-0.042-1.213-2.367-0.455-2.577,0c-1.329-0.728-3.319,0.038-4.302,0.575c-1.186-0.67-3.408-0.255-4.014,0.569
			c-0.154,0.419,0.336,1.484-0.285,1.438c-1.131,0.457-0.1-1.238-0.861-1.148c-0.037,0.916-1.281,0.634-1.721,1.148
			C629.996-7.538,629.003-7.251,629.184-6.626z M648.391-1.178c-0.754,0.088-0.738-0.601-0.859-1.146
			C648.288-2.412,648.27-1.726,648.391-1.178z"/>
		<path fill-rule="evenodd" clip-rule="evenodd" fill="#F6921E" d="M622.305,97.435c0.216-0.185,0.695-0.639,0-1.146
			C621.99,96.734,622.178,97.542,622.305,97.435z"/>
		<path fill-rule="evenodd" clip-rule="evenodd" fill="#F6921E" d="M671.899-36.725c-1.141-0.088-1.553,0.555-1.435,1.723
			C671.946-34.775,672.312-35.831,671.899-36.725z"/>
		<path fill-rule="evenodd" clip-rule="evenodd" fill="#F6921E" d="M695.978,98.581h0.86v-0.859h-0.573
			C696.249,98.089,695.897,98.118,695.978,98.581z"/>
		<path fill-rule="evenodd" clip-rule="evenodd" fill="#F6921E" d="M664.733-45.325c0.465,0.068,0.971-0.092,1.431,0
			c0.026,0.006-0.024,0.271,0,0.288c0.215,0.148,0.884-0.046,1.148,0c0.017,0.001,0.103,0.241,0.286,0.284
			c0.195,0.05,0.587-0.097,0.571-0.284C667.242-45.093,665.184-46.095,664.733-45.325z"/>
		<path fill-rule="evenodd" clip-rule="evenodd" fill="#F6921E" d="M669.892-32.713c-0.065,1.082-1.082,1.218-1.146,2.296
			c0.924,0.445,0.98,2.195,2.293,1.432c0.09-1.195-0.077-2.005-0.285-2.579C670.584-32.028,670.509-32.969,669.892-32.713z"/>
		<path fill-rule="evenodd" clip-rule="evenodd" fill="#F6921E" d="M666.737-27.263c0.186,1.154-0.371,3.048,0.288,3.727
			c0.159-0.511,0.147-1.193,0.573-1.434c-0.081,0.356,0.107,0.795,0,1.146c-0.031,0.104-0.511,0.433-0.573,0.571
			c-0.222,0.513-1.17,1.067-0.288,1.723c0.07-0.508,0.494-0.655,1.149-0.574c-0.014,0.394,0.136,0.633,0.283,0.859
			c-0.375,0.295-1.056,0.283-1.433,0.574c-0.229,0.994,0.428,1.102,0.288,2.005c-0.782,0.028-0.576-0.476-1.147,0
			c-0.084,1.33,0.004,2.483,0.573,3.153h1.719c0.031,0.323-0.416,0.449,0,0.576c0.517-0.359,0.751-0.954,1.149-1.436
			c0.409-0.491,1.235-0.764,1.146-1.721c-0.54,0.065-0.632-0.321-1.146-0.285c-0.509,0.945,0.305,1.433-0.573,2.006
			c-0.229-0.534-0.479-1.051-0.576-1.721c0.935,0.441,0.214,0.089,0.289-0.285c0.021-0.108,0.816-0.787,0.86-0.861
			c0.371-0.596,0.737-1.258,0.86-1.721c-0.396-0.025-1.12-1.117-0.572-1.145c0.928-0.354,0.217,0.93,1.146,0.574
			c1.138-0.266,1.099-2.041,1.434-3.153c0.021-0.077,0.535-0.176,0.57-0.287c0.141-0.416,0.198-1.05,0.285-1.434
			c0.11-0.466,0.755-1.174,0-1.434c-0.059,0.321-0.315,0.446-0.569,0.574c-0.037,0.183,0.043,0.394,0,0.573
			c-0.037,0.139-0.295,0.317-0.286,0.286c-0.095,0.493,0.313,1.502-0.288,1.721c0.03-1.751,0.251-3.694-1.146-4.011
			c-0.162,0.411-0.45,0.695-0.861,0.856c-0.159,0.511-0.147,1.191-0.573,1.434c-0.693-0.271-1.529-0.03-2.007-0.286
			C667.141-26.783,667.332-27.567,666.737-27.263z"/>
	</g>
	<g>
		<text transform="matrix(1 0 0 1 534.6743 -86.7463)"><tspan x="0" y="0" fill="#F6921E" font-family="'HoboStd'" font-size="38.593">C</tspan><tspan x="24.893" y="0" fill="#F6921E" font-family="'HoboStd'" font-size="38.593">o</tspan><tspan x="45.887" y="0" fill="#F6921E" font-family="'HoboStd'" font-size="38.593">n</tspan><tspan x="67.189" y="0" fill="#F6921E" font-family="'HoboStd'" font-size="38.593">t</tspan><tspan x="81.198" y="0" fill="#F6921E" font-family="'HoboStd'" font-size="38.593">a</tspan><tspan x="101.267" y="0" fill="#F6921E" font-family="'HoboStd'" font-size="38.593">c</tspan><tspan x="120.1" y="0" fill="#F6921E" font-family="'HoboStd'" font-size="38.593">t</tspan><tspan x="0.001" y="46.312" fill="none" stroke="#F6921E" stroke-width="1.4439" stroke-miterlimit="10" font-family="'HoboStd'" font-size="38.593">m</tspan><tspan x="32.611" y="46.312" fill="none" stroke="#F6921E" stroke-width="1.4439" stroke-miterlimit="10" font-family="'HoboStd'" font-size="38.593">y</tspan></text>
	</g>
</g>
</svg>
