<?xml version="1.0" encoding="utf-8"?>
<!-- Generator: Adobe Illustrator 15.0.0, SVG Export Plug-In . SVG Version: 6.00 Build 0)  -->
<!DOCTYPE svg PUBLIC "-//W3C//DTD SVG 1.1//EN" "http://www.w3.org/Graphics/SVG/1.1/DTD/svg11.dtd">
<svg version="1.1" id="Layer_1" xmlns="http://www.w3.org/2000/svg" xmlns:xlink="http://www.w3.org/1999/xlink" x="0px" y="0px"
	 width="170.34px" height="218.016px" viewBox="0 0 170.34 218.016" enable-background="new 0 0 170.34 218.016"
	 xml:space="preserve">
<g>
	<g>
		<path fill="#F6921E" d="M94.107,63.216c-0.287,0.567-0.715,1.001-1.146,1.431c0.365,0.246,0.861-0.563,1.146-0.288
			c0.031,0.034-0.025,0.574,0,0.574c0.824,0.006,0.91-0.928,1.146-0.286c0.018,0.494-0.223,0.736-0.574,0.859
			c-0.189-0.383-0.611-0.531-1.143-0.573c-0.047,0.813,0.859,0.668,0.855,1.436c0.545-0.064,0.633,0.322,1.148,0.284
			c0.043-0.336-0.049-0.813,0.285-0.856c0.658,0.563,1.01,1.581,1.434,2.006c0.365,0.365,0.936,0.384,1.146,0.575
			c0.121,0.104,0.188,0.441,0.287,0.57c0.182,0.24,0.361,0.368,0.572,0.572c-0.254,0.499-1.256-0.213-0.572,0.286
			c0.113,0.49,0.371-0.06,0.857,0c0.238,0.427,1.061,1.877,0,1.149c-0.215,1.076,1.096,0.623,1.148,1.433
			c-0.451,0.978-0.496,1.508-0.285,2.58c-0.227,0.064-0.568,0.006-0.574,0.283c1.041,0.268,2.576,0.196,3.727,0.289
			c0.461,0.039,1.176,0.807,1.434,0c-1.127-0.005,0.336-1.435-0.574-1.435c-0.994,0-0.377-1.686-0.572-2.58
			c-0.021-0.107-0.725,0.027-0.572-0.286c0.352,0.092,1.77-0.046,0.857-0.284c-0.531-0.04-0.959-0.19-1.145-0.575
			c1.078,0.165,0.648-0.703,0.857-1.147c0.025-0.048,0.518-0.242,0.574-0.285c0.188-0.136,0.42,0.339,0.572,0.285
			c0.047-0.014-0.025-0.512,0-0.569c0.004-0.014,0.557-0.285,0.572-0.286c0.004,0-0.01,0.272,0,0.286
			c0.707,0.704,2.021-0.661,2.293-0.577c0.047,0.339-0.047,0.814,0.291,0.861c0.115-0.489,0.367,0.063,0.857,0
			c0.27-0.402,0.43-1.324,0.861-1.146c0.133,0.056-0.051,0.698,0.285,0.575c0.127-0.83,0.602-1.31,1.434-1.436
			c0.432,0.118,0.525,0.409,0.859,0c0.209-0.255,2.584-0.048,2.867,0c0.021,0.003-0.021,0.271,0,0.285
			c0.43,0.299,0.828-0.103,1.146,0.288c0.314,0.383,1.51-0.158,1.693-0.27c-0.008-0.007-0.004-0.018,0.025-0.02
			c0.008,0-0.006,0.009-0.025,0.02c0.07,0.113,1.85,0.686,1.459-0.02c-0.494,0.017-0.736-0.22-0.859-0.574
			c0.9-0.137,1.121,0.409,1.723,0.574c0.363-0.717-0.148-0.896,0.285-1.146c0.365,0.016,0.396,0.368,0.859,0.286
			c-0.145,1.113,1.406,1.216,1.434,1.718c0.021,0.408,0.666,0.326,0.857,0.577c0.125-1.079-0.895-1.018-1.145-1.722
			c0.395-0.013,0.629,0.134,0.857,0.285c0.064-0.224,0.01-0.563,0.287-0.574c-0.16-1.023-1.656-1.792-0.859-2.864
			c-0.742,0.171-1.029-0.115-0.859-0.861c-1.232-0.135-0.365,0.772-0.857,0.861c-0.02-0.367-0.367-0.396-0.289-0.861
			c0.535-0.038,0.959-0.188,1.146-0.571c-1.432-0.042-0.176-1.288-1.146-2.008c0.412-0.636,0.699,0.36,0.861-0.289
			c-0.381,0-0.264-0.499-0.572-0.572c-0.006,0.378-0.797,0.366-0.859,0c0.672,0.011,0.842-0.493,1.717-0.283
			c0.277-1.042-1.287-0.241-1.146-1.147c0.543-0.063,0.635,0.322,1.146,0.287c-0.029-0.716-0.535-0.887,0-1.433
			c-0.563-0.089-0.566,0.385-0.857,0.569c-0.191-0.568-0.988-1.224,0-1.432c0.109,0.333,1.391,0.333,0.574,0
			c-0.178-0.397-1.105-0.042-1.146-0.573c0.438-0.067,0.041-0.472-0.287-0.575c-0.027,0.45,0.037,0.998-0.574,0.861
			c-0.377-1.235,0.814-0.907,1.146-1.433c-1.338,0.251,0.395-0.743-0.572-0.859c-0.479,0.673,0.025-0.105,0-0.574
			c-0.533,0.276-0.959-0.857-1.148,0c0.158-0.002,0.328,0.234,0,0.287c-0.729-0.031-1.002-0.526-1.434-0.861
			c1.525,0.265,0.201-0.685,0.572-1.72c-1.02-0.325-1.646-1.005-2.006-1.718c-0.162-0.328-0.01-0.371-0.285-0.572
			c0.098,0.069-0.117,0.629-0.285,0.572c-0.068-0.023,0.057-0.521,0-0.572c-0.143-0.129-0.684,0.07-0.859,0
			c-0.377-0.151-0.148-0.717-0.576-0.289c-0.188,0.188-0.406-0.646-0.572-0.571c0.029,0.241-0.779,0.35-1.146,0
			c-0.055-0.052,0.059-0.56,0-0.574c-0.365-0.109-0.652,0.211-0.859,0.287c0.053-0.627-0.234-0.911-0.859-0.861
			c-0.289,0.223-1.066,1.374-1.434,0.574c0.771,0.196,0.553-0.594,0.857-0.859c-0.563-0.087-0.566,0.386-0.857,0.573
			c-0.533-0.515-1.895-0.584-2.578-0.573c-0.008,0.378-0.504,0.262-0.574,0.573c0.504,0.163,1.686-0.347,1.723,0.286h-1.148
			c-0.496-0.114-0.738,0.426-0.863,0c0.439-0.07,0.043-0.475-0.285-0.574c0.08,0.75-0.104,1.234-0.859,1.148
			c0.836-0.923-0.654-1.255-0.859-2.009c-0.629-0.087-0.91,0.521-1.436,0.574c-0.008,0,0.018-0.57,0-0.574
			c-0.434-0.125-1.309,0.271-2.004,1.147c0.395,0.013,0.629-0.136,0.859-0.288c-0.123,0.805,1.066-0.719,1.145,0.288
			c-1.598-0.072-2.027,1.028-3.152,1.433c-0.643-0.764-1.436,0.404-2.008-0.287c-0.168,0.596-0.549,0.979-1.143,1.148
			c-0.063-0.572,1.211-1.225,0.568-1.434c-0.291,0.76-1.32,0.776-1.719,1.434c0.67,0.072,0.164,1.255,0,1.432
			c1.043,0.274,0.24-1.289,1.148-1.145c-0.346,0.609-0.352,1.56-1.148,1.717c-0.557-0.85,0.385-1.412-0.574-1.717
			c-0.061,0.344-0.316,0.173-0.572,0c-0.064,0.539,0.326,0.631,0.287,1.145c-0.32,0.029-0.445-0.418-0.572,0
			c0.334,0.052,0.311,0.453,0.285,0.86c-0.893-0.476-1.023,1.431-0.57,0.574c0.063-0.224,0.238-0.333,0.57-0.29
			c0.371,1.137-0.941,0.589-0.57,1.723c0.564,0.086,0.568-0.387,0.857-0.572c0,0.285,0.232,0.342,0.287,0.572
			c-0.004,0.38-0.504,0.262-0.574,0.572c0.764,0.289,0.947,1.158,1.436,1.721c-0.623,0.595,0.035,0.926,0.285,1.436
			c-0.717-0.036-0.898-0.551-1.146,0.284c0.176,0.016,0.338,0.042,0.287,0.285c0.018,0.176,0.043,0.34,0.287,0.288
			c0.117-0.358,0.371-0.584,0.857-0.573c0.072,0.41,0.475,0.483,0.576,0.86c-0.602,0.781-1.078-1.013-1.436,0.287
			c0.174,0.396,1.105,0.042,1.148,0.572c-0.049,0.338,0.049,0.813-0.289,0.859c-0.422-0.491-0.604,0.374-0.287-0.859
			c-1.701-0.11,0.15,1.545-1.146,1.722c-0.221-0.64-0.162-1.555-0.857-1.722c0.02,0.328-0.113,0.435-0.285,0.571
			c-0.201,0.161,0.297,0.327,0.285,0.288c0.313,1.185,0.898,1.074,0,1.436c-1.094,0.437-0.189,0.058,0.285,0.285
			c0.014,0.007,0.281,0.55,0.287,0.573c0.004,0.017-0.592-0.278-0.572-0.29c-0.523,0.231-0.061,1.359-0.859,0.577
			c0.063,0.541-0.322,0.632-0.287,1.146C93.318,63.721,93.59,62.176,94.107,63.216z M119.047,53.754
			c0.268,0.305,1.059,0.091,0.859,0.859C119.641,54.309,118.85,54.525,119.047,53.754z M117.326,50.886
			c-0.418-0.248-0.906-0.428-0.857-1.146C116.887,49.991,117.377,50.171,117.326,50.886z M104.715,46.588
			c0.131,0.066-0.646,0.839-1.434,0.286C103.703,46.38,104.41,46.435,104.715,46.588z M94.395,51.459
			c0.24-0.838,0.922,0.174,1.434,0C95.754,52.132,94.57,51.626,94.395,51.459z"/>
		<path fill="#F6921E" d="M80.059,175.012c-0.17,0.668,0.657,0.73,0.861,0.863c0.046,0.025-0.035,0.242,0,0.285
			c0.021,0.023,0.87,0.289,0.859,0.283c0.739,0.188,0.668,0.551,1.146,0.576c0.317,0.016,0.146,0.219,0.288,0.285
			c0.453,0.223,1.027,0.078,1.435,0.289c0.222,0.115,0.345,0.725,0.571,0.859c0.223,0.129,1.026,0.125,1.436,0.285
			c0.029,0.012-0.025,0.258,0,0.285c0.018,0.025,0.871,0.293,0.859,0.287c0.354,0.088,0.383,0.055,0.574,0.289
			c0.07,0.084,0.469-0.061,0.57,0c0.164,0.088,0.381,0.486,0.574,0.572c0.238,0.105,0.607-0.076,0.859,0
			c0.109,0.033,0.426,0.52,0.574,0.57c0.754,0.266,1.115,0.164,1.432,0.287c0.07,0.029,0.211-0.002,0.289,0
			c0.254,0.016,0.221,0.271,0.285,0.287c0.828,0.203,1.1,0.15,1.434,0.287c0.07,0.029,0.213-0.006,0.285,0
			c0.256,0.014,0.229,0.271,0.287,0.287c0.545,0.127,1.605-0.119,1.725,0c0.537,0.541,1.014,0.066,1.432,0.574
			c0.277,0.338,2.66-0.088,3.152,0c0.371,0.063,0.391,0.27,0.859,0.287c0.479,0.016,0.461-0.49,0.859,0
			c0.232,0.281,1.094-0.291,1.145-0.287c0.15,0.008,0.15,0.357,0.574,0.287c0.021-0.004-0.016-0.27,0-0.287
			c0.045-0.055,0.494,0.004,0.574,0c1.518-0.094,2.709-0.17,3.441-0.287c1.24-0.197,2.57-0.398,3.152-0.574
			c0.463-0.141,0.6,0.029,0.859-0.287c0.063-0.078,0.469,0.041,0.57,0c0.512-0.201,1.195-0.283,1.436-0.574
			c0.066-0.078,0.471,0.043,0.574,0c0.645-0.258,1.787-0.594,2.004-0.857c0.07-0.084,0.471,0.049,0.576,0
			c0.035-0.018-0.029-0.254,0-0.285c0.066-0.084,0.469,0.041,0.57,0c1.598-0.691,3.59-1.596,4.875-2.295
			c0.627-0.346,1.564-1.123,2.006-1.146c0.346-0.018,0.576-0.43,0.859-0.574c0.799-0.41,1.135-0.771,1.721-1.145
			c0.719-0.461,1.189-0.77,1.723-1.146c0.299-0.215,0.346-0.297,0.572-0.574c0.078-0.096,0.475,0.082,0.572,0
			c0.494-0.4,2.279-2.324,2.293-2.582c0.02-0.33,0.186-0.125,0.287-0.285c0.303-0.467,0.357-0.852,0.572-1.146
			c0.133-0.182,0.445-0.367,0.574-0.572c0.43-0.678,0.824-1.525,1.146-2.006c0.252-0.383,0.121-0.6,0.285-1.148
			c0.033-0.105,0.525-0.424,0.574-0.572c0.111-0.348-0.105-0.797,0-1.146c0.008-0.031,0.266,0.029,0.287,0
			c0.148-0.215-0.051-0.881,0-1.145c0.004-0.021,0.236-0.102,0.285-0.289c0.111-0.449-0.119-0.938-0.285-1.146
			c-0.145-0.176-0.125,0.613-0.287,0.574c-0.064-0.016-0.188-0.545-0.285-0.574c-0.248-0.068-0.408,0.359-0.574,0.285
			c-0.229-0.096-0.287-0.781-0.859-0.57c-0.033,0.348-0.086,0.68-0.574,0.57c0.043-0.336,0.51-0.646,0-0.855
			c0.002,0.158-0.232,0.322-0.287,0c-0.539-0.064-0.631,0.322-1.146,0.285c-0.328,0.625-0.055,1.854-0.859,2.008
			c-0.047-0.336-0.453-0.313-0.859-0.287c0.303,1.527-0.602,0.072-0.857,0.859c0.797,0.77,0.045,1.602,0.57,2.293
			c-0.346,0.418-0.563-0.059-0.857,0c-0.121,0.023,0.049,0.318-0.287,0.287c-0.803-0.074-0.717-0.824-1.148-0.287
			c-0.164,0.209-0.273-0.273-0.285-0.289c0.461,0.521,0.691-2.107-0.287-0.57c0.223,0.063,0.564,0.008,0.572,0.285
			c-1.336-0.379-1.271,0.641-1.719,1.146c-0.072-0.404-0.629-0.326-0.859-0.572v0.859c-0.885,0.703,0.621-0.516,0.572,0.287
			c0.027,0.477-0.838,0.158-0.859,0.57c-0.021,0.338-0.156,0.129-0.287,0.287c-0.215,0.277-0.809,0.85-0.859,0.861
			c-0.178,0.045-0.496-0.348-0.574-0.287c-0.52,0.424,0.234,0.746-0.285,0.859c-0.934,0.205-1.609-0.271-2.293-0.285
			c-0.43-0.006-0.586,0.25-0.859,0.285c-0.479,0.064-0.23-0.346-0.574,0c-0.191,0.191-0.785-0.02-0.859,0.289
			c0.084-0.342,1.154-1.082,0.287-1.434c-0.117,0.359-0.369,0.586-0.859,0.572c-0.066-0.221-0.01-0.566-0.287-0.572
			c-0.045,0.336,0.051,0.813-0.285,0.859c-0.203,0.711,1.26,1.176,0.285,1.717c0.141-0.902-0.891-0.676-1.146-0.857
			c-0.148-0.104,0.059-0.66-0.287-0.574c-0.303,1.068,0.604,0.926,0.857,1.434c-0.688,0.119-0.621-0.523-1.43-0.287
			c-0.078,0.979-1.295,0.814-1.723,1.436c-0.938,0.016-1.098,0.814-2.293,0.572c0.08,0.652-0.068,1.08-0.574,1.146
			c-0.496-0.932-0.752,0.744-1.719,0.289c0.084-0.469-0.389-0.777-0.574-0.289c0.102-0.08,0.438,0.168,0.285,0.289
			c-0.492,0.391-0.988-0.113-1.434,0.859c0.188-0.414,0.033,0.857,0,1.145c-0.498,0.264-0.631,0.896-0.57,1.721
			c0.57,0.063,0.629-0.357,0.861,0c0.053,0.088,0.037,0.721,0.285,0.574c0.18-0.109-0.156-0.992,0.285-0.861
			c0.459-0.121,0.965,1.068,0.287,1.148c-0.176,0.014-0.34,0.043-0.287,0.287c0.895-0.246,1.234-0.842,2.008,0
			c0.059,0.379-0.48,0.369-0.574,0.572c-0.199,0.426,0.281,1.447-0.572,1.434c-0.393,0.652,0.74,1.076,0,1.145
			c-1.686,0.402-3.086,0.27-4.299,0.574c0,0.158-0.232,0.326-0.289,0c0.152-0.271,1.287-0.953,0.572-1.146
			c-0.053,0.6-1.965,1.67-1.146,0.572c-1.02-0.445-0.172,0.977-0.857,0.861c-0.461-0.805-1.293,0.402-2.297,0
			c-0.305-0.957,0.094-0.979-0.285-2.006c1.002-0.086-0.232-1.758,1.148-0.861c0.293-0.803-0.305-1.264-0.287-1.719
			c0.006-0.219,0.326-0.428,0.287-0.574c-0.018-0.063-0.5-0.104-0.574-0.287c-0.1-0.246,0.078-0.602,0-0.855
			c-1.09-0.248-1.9-0.779-3.439-0.578c-0.004-0.287,0.232-0.34,0.285-0.57h-1.719c-0.113,0.492,0.422,0.734,0,0.857
			c-0.42-0.248-0.91-0.428-0.861-1.145c-0.822,0.059-1.457-0.072-1.721-0.572c0.713,0.043,1.189-0.15,1.436-0.574
			c-0.453-0.031-0.996,0.037-0.861-0.574c-0.707,0.037-1.381,0.045-1.719-0.287c-0.479,0.902,1.066,1.172,0.287,1.436
			c-0.666-0.092-1.104,0.045-1.436,0.287c0.406,1.043-0.158,1.285,0.574,2.006c-0.543,0.029-0.199,0.945-0.857,0.859
			c-0.938-0.045-1.85-0.402-2.582,0c-0.174,0.096,0.023,0.875-0.572,0.574c0.02-0.402-0.064-1.098-0.287-0.574
			c-0.115,0.691,0.523,0.621,0.287,1.434c-0.922-0.24-0.594-0.244-1.146,0.287c-0.291,0.033-0.34-0.275-0.572-0.287
			c-0.314-0.018-0.15-0.225-0.287-0.285c-0.383-0.18-1.09-0.119-1.436-0.287c-0.099-0.047-0.182-0.498-0.284-0.574
			c-0.199-0.148-0.686-0.191-0.861-0.287c-0.496-0.264-0.87-0.547-1.436-0.574c-0.192-0.664-0.729-0.984-1.146-1.434
			C81.019,175.874,80.595,174.743,80.059,175.012z M131.086,162.973c0.514,0.211,0.041,0.523,0,0.861
			C130.578,163.624,131.045,163.313,131.086,162.973z M123.348,168.997c0.488,0.104,0.541-0.227,0.572-0.574
			c1.146,0.367-0.078,0.59,0,1.432h-0.572c-0.313,0.729,1.344,1.111,0,1.148C123.047,170.188,123.047,169.805,123.348,168.997z
			 M121.629,168.997h0.57c0.084,0.461-0.27,0.492-0.283,0.855h-0.574C121.26,169.391,121.613,169.358,121.629,168.997z"/>
		<path fill="#F6921E" d="M122.201,61.494c0.395-0.013,0.631,0.136,0.861,0.283c-0.484-0.772,0.455-1.34-0.574-1.72
			C122.723,60.87,122.082,60.805,122.201,61.494z"/>
		<path fill="#F6921E" d="M100.416,46.588c-0.711-0.042-1.191,0.147-1.436,0.573C99.41,47.615,100.615,47.583,100.416,46.588z"/>
		<path fill="#F6921E" d="M82.926,173.007c0.175,0.016,0.343,0.043,0.288,0.289c0.012,0.393-0.135,0.629-0.288,0.859
			c0.57,0.477,0.363-0.025,1.147,0c0,0.156,0.231,0.324,0.285,0c-0.531,0.023,0.066-0.434,0-0.574
			C84.2,173.233,82.815,172.479,82.926,173.007z"/>
		<path fill="#F6921E" d="M30.468,212.854c-0.275,0.488-0.536,0.863-0.57,1.434c0,0.379,0.5,0.264,0.57,0.574
			c-1.128,1.309,0.954,0.732,0,0.572c0.213-0.543,0.855-0.199,0.286-0.857c0.388-0.096,0.548-0.41,1.146-0.289
			c-0.365,0.387-0.87,0.574,0,0.861c0.449-0.771-0.227-1.523,0.571-2.295c-0.414-0.248-1.105-0.229-0.86-1.146
			c0.682,0.42,0.535,0.604,1.436,0.287c0.235,0.721,1.513,0.398,2.006,0.859c0.41-0.93,0.121-2.555,1.436-2.582
			c0.244-1.191,0.178-1.107,0-2.006c-0.054-0.273,0.061-0.586,0-0.859c-0.057-0.258-0.264-0.357-0.286-0.572
			c-0.039-0.355,0.319-0.4,0.286-0.859c0.004,0.047-0.252-0.146-0.286-0.287c-0.148-0.598,0.489-0.527,0.57-0.859
			c-0.006,0.035-0.559-0.518-0.284-0.861c0.828-0.035,0.498-1.221,1.435-1.145c1.161,1.162,1.106,3.486,1.431,5.445
			c0.063,0.373,0.256,0.4,0.289,0.861c0.122,1.795-0.632,3.266,0.285,4.014c0.025,0.48-0.07,0.986,0.287,1.146
			c-0.244-0.107,0.508-1.045,0.575-0.285c-0.033,0.541-0.949,0.197-0.862,0.859h1.147c-0.514,0.369,0.191,0.797,0.286,1.146
			c0.073,0.268-0.551,0.986,0.285,0.859c0.016-0.176,0.043-0.338,0.287-0.287c0,0.16,0.233,0.324,0.289,0
			c-0.536,0.016,0.088-0.934,0.286-0.859c-0.007-0.002,0.118,0.787,0.286,0.572c0.08-0.102-0.031-0.443,0-0.572
			c0.18-0.721,0.734-1.852,1.433-1.719c0.026-0.451-0.037-0.994,0.574-0.861c0.119-0.689-0.525-0.623-0.289-1.434
			c0.367,0.016,0.398,0.369,0.861,0.287c-0.035-0.715-0.547-0.896,0.287-1.148c0.069,0.314,0.473,0.689,0.572,0.287
			c-0.32-0.061-0.443-0.316-0.572-0.572c1.297,0.533,0.499-1.029,1.146-1.148c0.546,0.539,0.723,0.033,1.434,0
			c0.589-0.582,0.277-1.613,0.574-2.291c0.16-0.371,0.707-0.15,0.286-0.572c-0.192-0.193,0.146-0.912,0-1.146
			c0.452-0.027,0.226-0.729,0.859-0.572c0.012-1.074-0.443-0.969,0-1.436c0.448-0.469,0.751-1.732,0.86-2.006
			c0.256-0.635,0.407-1.396,0.571-2.006c0.193-0.715-0.682-1.934,0.861-1.719c-0.574,0.584,0.125,0.559,0.289,1.145
			c0.02,0.377-0.465,0.381-0.576,1.146c0.021-0.145,0.269,0.213,0.287,0.285c0.226,0.906-0.418,1.227-0.287,1.723
			c0.031,0.113,0.72-0.033,0.576,0.285c-0.929,0.971-0.845,1.83-0.576,3.154c-1.231,0.355-0.494,0.902-0.858,2.006
			c-0.224,0.064-0.567,0.008-0.573,0.287c0.335,0.428,0.718,0.811,1.146,1.146c-0.119,0.551-1.112,0.227-0.86,1.146
			c0.039,0.363,0.457,0.279,0.571,0.572c-0.036-0.096-0.323,0.342-0.284,0.572c0.014,0.098,0.5,0.215,0.284,0.574
			c0.731-0.15,1.004-0.379,1.434,0.287c-0.268,0.305-1.058,0.088-0.858,0.859c0.161,0.412,0.447,0.697,0.858,0.861
			c0.354-0.416,1.097-0.436,1.437-0.861c-0.043,0.9,0.735,0.984,1.432,1.146c0.571-0.004,0.364-0.783,1.148-0.574
			c-0.227-0.99,0.266-1.26,0.859-1.434c0.093,0.672,0.345,1.186,0.572,1.723c1.072-0.119,1.507-0.254,2.58-0.861
			c0.636-0.414-0.36-0.701,0.285-0.859c0.926,0.316,1.574,0.912,1.435,2.293c0.563,0.084,0.568-0.389,0.86-0.57
			c0.545,0.535,0.52-0.172,1.434,0c-0.452-1.123,0.742-0.596,0.861-1.15c-0.227-0.063-0.335-0.24-0.289-0.572
			c0.764,0.188,0.346-0.486,0.574-0.861c0.104-0.164,0.854,0.006,0.857-0.285c0.031,0.715,0.538,0.889,0,1.436
			c1.466,0.688,0.965,1.92,2.008,2.58c-0.165-0.107,0.2-0.564,0.287-0.574c0.079-0.008,0.396,0.865,0.861,0.574
			c0.043-0.336-0.054-0.814,0.284-0.859c1.05,1.426,2.487-0.639,3.727,0.285c0.051-0.43-0.103-1.059,0.289-1.146
			c-0.019,0.492,0.221,0.732,0.57,0.859c0.188-0.387,0.615-0.535,1.146-0.574c0.046-0.338-0.048-0.813,0.286-0.861
			c0.41,0.113,0.483,0.35,0.861,0c-0.035,0.721-0.546,0.898,0.284,1.15c0.063-0.35,0.321-0.176,0.576,0
			c0.361-0.357,0.272-1.184,0.285-1.436c0.012-0.219,0.285-0.268,0.287-0.287c0.198-1.262-0.81,0.309-0.861-0.861
			c0.389,0.563,0.996-0.021,0.861-0.285c-0.072-0.141-0.687,0.055-0.572-0.287c0.9-0.475,1.171,1.066,1.435,0.287
			c-0.478,0.125,0.023-1.066,0.285-1.145c0.206,0.648,0.863,0.855,1.433,1.145c0.112-0.49-0.425-0.734,0-0.857
			c0.854,0.102,1.745,0.164,2.008,0.857c-0.224,0.064-0.332,0.242-0.288,0.574c0.331,0.461,1.128,0.906,0.574,1.434
			c0.35,0.031,0.68,0.084,0.572,0.572c-0.285,0.002-0.34-0.232-0.572-0.285c-0.037,0.516,0.285,0.67,0.857,0.574
			c0.063,0.318,0.32,0.443,0.575,0.57c0.027,0.324-0.417,0.445,0,0.576c0.281-0.389,0.768-0.576,1.146-0.861v1.146
			c0.965-0.107,2.297-0.369,2.867,0.572c-0.393,0.027-1.115,1.117-0.57,1.146c0.039-0.82,1.191-0.523,2.004-0.574
			c-0.086,0.467,0.387,0.775,0.572,0.287c-0.221-0.063-0.332-0.236-0.285-0.572c0.746-0.186,1.229,0.264,1.721,0
			c0.195-0.104,0.063-1.029,0.574-0.857c0.074,0.4,0.627,0.324,0.859,0.572c0.117-0.568,1.238-0.818,2.006-0.859
			c0.434-0.023,1.102,0.391,1.145,0c-0.754-0.322,0.387-1.111,0.572-1.436c0.033,1.078,1.297,0.199,0.576,1.436
			c0.65-0.209,1.465-0.256,2.006-0.574c-0.373,0.383-0.176,0.865,0.289,1.146c0.049-0.426,0.691-0.266,1.145-0.285
			c0.004,0.473,0.795,0.158,0.857,0.572c-0.723,0.453,0.463,1.344,0.576,0.57c-0.529-0.043-0.18-0.969-0.576-1.145
			c1.564,0.303-0.08-0.971,1.434-0.861c1,0.084-0.023,0.777,0.574,0.861c0.51-0.752,1.16,0.006,1.719,0
			c0.324-0.008,0.457-0.221,0.863-0.285c0.498-0.084,0.318,0.342,0.855,0c0.689-0.439,0.527,0.133,1.436,0
			c0.289-0.381,0.27-1.066,0.861-1.146c0.582,0.838,1.5-0.391,2.004-0.576c0.035,0.35,0.088,0.68,0.576,0.576
			c-0.254,0.918,0.943,0.391,0.857,1.146c-0.176,0.016-0.338,0.043-0.283,0.285c0.709,0.234,1.693,0.488,2.006,0.859
			c0.807-0.453,1.217,0.33,2.004-0.287c-0.082,0.176-0.711,1.104,0,1.146c0.271-1.578,2.162-1.049,3.156-0.574
			c0.883,0.217,0.551-0.785,1.434-0.57c-0.027,0.453-0.732,0.225-0.572,0.857c0.781,0.025,0.574-0.477,1.145,0
			c-0.074-0.684,0.967-1.121,1.434-0.857c0.152,0.084-0.064,0.67,0.287,0.57c0.127-0.035-0.113-1.043,0.285-0.857
			c0.047,0.336-0.051,0.814,0.287,0.857c0.727-1.123,2.617-0.189,3.154,0.574c-0.041-1.023,0.734,0.029,1.436-0.574v0.574
			c1.43-0.125-0.637-0.604-0.289-1.432c0.539,0.355,1.291,0.057,1.721,0.285c0.17,0.09-0.02,0.877,0.572,0.572
			c0.662,0.09,0.318-0.826,0.859-0.857c0.266,0.963,0.535,0.143,1.436,0.285c0.113-0.496-0.428-0.734,0-0.857
			c-0.1,0.514,0.521-0.049,0.572,0c0.094,0.08-0.428,0.533,0,1.145c0.799-0.342,1.744-0.328,2.295,0.285
			c0.881,0.217,0.549-0.785,1.432-0.57c-0.33,0.771,1.377,1.377,0.572,0.857c-0.088-0.387-0.406-0.547-0.287-1.145
			c0.582,0.273,0.541,0.643,1.148,0.572c0.238-0.029,0.555-0.375,0.574,0c0.016,0.299,0.08,0.176,0.285,0.285
			c-0.369-0.195,0.563-0.039,0.285,0c0.154-0.021,0.496-0.318,0.576-0.285c0.068,0.027,0.449,0.482,0.57,0.572
			c0.297,0.223,0.568,0.355,0.861,0.574c0.051-0.402,0.691-0.297,1.146-0.287c0.465,0.006,0.262,0.313,0.572,0
			c0.191-0.189,0.26,0.258,0.287,0.287c0.152,0.186,0.816-0.262,0.861-0.287c0.727-0.463,0.637,0.027,1.145,0
			c0.078-0.004,0.229-0.512,0.574-0.287c0.408-1.266-0.971-0.75-0.857-1.719c0.674-0.01,0.844,0.49,1.719,0.287
			c0.064,0.227,0.008,0.559,0.287,0.572c0.83,0.041,1.311,0.895,2.006,1.146c0.756-0.83,1.637,0.643,2.865,0.287
			c0.111,0.406,0.346,0.482,0,0.857c0.41-0.109,0.482-0.346,0.859,0c-0.33-1.211-0.168-0.678,0.574-0.287
			c-0.25-0.918,0.443-0.896,0.859-1.146c0.492-0.111,0.734,0.426,0.859,0c-0.301-0.016-0.227-0.365,0.287-0.287
			c-0.088-0.666-0.613-1.23,0.287-1.43c0.064,0.221,0.24,0.33,0.576,0.285c0.025,0.318-0.42,0.445,0,0.572
			c-0.035-0.293,0.438-0.242,0.57,0c0.211,0.387-0.459,0.258,0,0.572c-0.129-0.086,0.135-0.314,0.285-0.285
			c-0.023-0.006,0.158,0.24,0.287,0.285c0.447,0.164,1.096,0.354,0.859,0.861c1.869-0.129,2.979-0.076,3.439-1.721
			c0.119-0.426-0.227-0.742-0.283-1.146c-0.139-0.914-0.07-2.111-0.576-2.58c0.852-0.129-0.082-0.975,0-1.146
			c0.115-0.244,0.82-0.227,0.859-0.572c-0.469-0.406-1-1.865,0.287-1.721c0.699,0.639,1.379,1.297,1.436,2.578
			c0.492-0.014,0.73,0.225,0.857,0.576c-0.219,1.08,0.35,1.369,0.287,2.295c0.773-0.26,0.33,0.57,0.574,0.859
			c0.326,0.383,1.125,0.746,1.145,1.145c0.018,0.324,0.201,0.137,0.283,0.287c0.096,0.166,0.146,0.725,0.291,0.859
			c0.201,0.189,0.918-0.158,0.857,0.287c-0.016,0.492,0.223,0.734,0.576,0.857c-0.271-1.438-0.967-2.736-1.436-4.012
			c-0.258-0.703-0.324-1.229-0.572-1.436c-0.025-0.02-0.291-0.871-0.289-0.857c-0.043-0.17,0.068-0.412,0-0.576
			c-0.055-0.135-0.5-0.402-0.57-0.572c-0.068-0.158,0.041-0.4,0-0.57c-0.063-0.244-0.242-0.188-0.287-0.287
			c-0.256-0.59-0.336-1.203-0.574-1.721c-0.064-0.146-0.498-0.395-0.57-0.574c-0.07-0.158,0.041-0.404,0-0.572
			c-0.063-0.248-0.24-0.18-0.289-0.287c-0.244-0.545-0.352-1.209-0.572-1.719c-0.063-0.143-0.217-0.002-0.287-0.289
			c-0.043-0.166,0.068-0.412,0-0.572c-0.061-0.137-0.492-0.404-0.574-0.572c-0.271-0.561-0.326-1.268-0.572-1.721
			c-0.096-0.172-0.438-0.338-0.57-0.572c-0.365-0.625-0.545-1.043-0.861-1.434c-0.396-0.484-0.576-0.703-0.861-1.148
			c-0.34-0.531-0.523-0.584-0.859-0.855c-0.098-0.08,0.082-0.479,0-0.576c-0.701-0.859-1.791-1.504-2.578-2.291
			c-0.795-0.795-1.631-1.672-2.295-2.582c-0.859-1.18-1.957-2.033-2.865-3.154c-0.447-0.547-1.188-1.623-1.434-2.006
			c-0.205-0.324-0.373-0.547-0.574-0.857c-0.203-0.324-0.373-0.551-0.572-0.861c-0.34-0.531-0.525-0.586-0.861-0.859
			c-0.092-0.078,0.074-0.471,0-0.574c-0.068-0.1-0.473-0.205-0.57-0.285c-0.094-0.076,0.068-0.471,0-0.574
			c-0.064-0.096-0.479-0.209-0.574-0.285c-0.096-0.078,0.076-0.471,0-0.574c-0.303-0.41-0.916-0.668-1.146-0.859
			c-0.098-0.078,0.08-0.477,0-0.574c-0.416-0.51-1.096-0.869-1.436-1.145c-0.096-0.08,0.09-0.482,0-0.576
			c-0.146-0.15-0.699-0.16-0.857-0.285c-0.24-0.188-0.35-0.646-0.576-0.859c-0.801-0.76-1.6-1.309-2.291-1.721
			c-0.074-0.041-0.154-0.199-0.289-0.283c-0.32-0.209-0.545-0.377-0.857-0.578c-0.604-0.383-0.645-0.826-1.436-0.855
			c-0.816,0.744-2.033,1.625-2.576,2.291c-0.078,0.092-0.473-0.07-0.574,0c-0.307,0.211-0.553,0.639-0.861,0.861
			c-0.301,0.215-0.344,0.293-0.572,0.572c-0.078,0.094-0.471-0.076-0.576,0c-0.121,0.09-0.164,0.459-0.283,0.572
			c-0.229,0.213-0.592,0.09-0.861,0.285c-0.342,0.252-0.541,0.633-0.859,0.861c-0.299,0.215-0.346,0.297-0.572,0.572
			c-0.078,0.096-0.471-0.074-0.574,0c-0.281,0.211-0.551,0.609-0.857,0.859c-1,0.811-2.277,1.463-3.154,2.006
			c-0.172,0.109-0.379,0.461-0.572,0.574c-0.293,0.176-0.619,0.137-0.861,0.287c-0.174,0.107-0.373,0.471-0.572,0.572
			c-0.551,0.293-1.219,0.342-1.721,0.574c-0.033,0.016,0.025,0.254,0,0.285c-0.207,0.254-1.234,0.205-1.434,0.287
			c-0.141,0.063-0.396,0.5-0.572,0.574c-0.16,0.066-0.404-0.045-0.574,0c-0.229,0.059-0.203,0.254-0.287,0.285
			c-1.945,0.768-5.137,1.549-6.879,2.008c-1.473,0.387-3.947,0.699-5.16,0.859c-1.045,0.137-1.406,0.242-2.008,0.285
			c-1.705,0.133-3.826,0.23-5.73,0c-0.369-0.043-0.408-0.238-0.863-0.285c-1.211-0.121-1.941-0.18-2.576-0.287
			c-0.209-0.035-1.01,0.141-1.146,0c-0.525-0.52-0.998-0.137-1.434-0.572c-0.152-0.15-0.926,0.061-1.146,0
			c-0.021-0.006,0.021-0.283,0-0.287c-0.818-0.152-1.139-0.213-1.434-0.285c-0.367-0.09-0.607-0.227-0.861-0.285
			c-0.367-0.096-0.607-0.227-0.861-0.287c-0.365-0.094-0.605-0.225-0.859-0.285c-0.17-0.047-0.406,0.061-0.57,0
			c-0.129-0.053-0.404-0.518-0.574-0.576c-0.764-0.268-1.465-0.264-1.719-0.57c-0.068-0.086-0.471,0.047-0.575,0
			c-0.036-0.02,0.027-0.258,0-0.289c-0.067-0.084-0.471,0.045-0.571,0c-0.037-0.014,0.026-0.252,0-0.287
			c-0.065-0.076-0.475,0.039-0.575,0c-0.344-0.129-0.646-0.314-0.859-0.572c-0.068-0.084-0.469,0.047-0.574,0
			c-0.034-0.018,0.029-0.256,0-0.287c-0.066-0.086-0.468,0.055-0.571,0c-0.037-0.02,0.027-0.252,0-0.287
			c-0.073-0.086-0.469,0.063-0.574,0c-0.163-0.092-0.387-0.471-0.573-0.572c-0.055-0.029-0.221,0.004-0.287,0
			c-0.329-0.018-0.128-0.186-0.284-0.285c-0.47-0.305-0.836-0.383-1.146-0.574c-0.227-0.141-0.616-0.561-0.861-0.572
			c-0.33-0.02-0.127-0.184-0.285-0.287c-0.466-0.303-0.826-0.408-1.147-0.574c-0.263-0.137-0.584-0.109-0.86-0.287
			c-0.432-0.283-0.438-0.836-0.857-0.859c-0.334-0.018-0.129-0.184-0.288-0.285c-0.558-0.363-1.027-0.541-1.434-0.861
			c-0.28-0.221-0.537-0.633-0.857-0.857c-0.127-0.09-0.433,0.063-0.576,0c-0.209-0.096-0.203-0.555-0.571-0.574
			c-0.333-0.018-0.129-0.186-0.288-0.285c-0.905-0.588-1.525-1.137-2.006-1.719c-0.08-0.1-0.475,0.08-0.573,0
			c-0.465-0.398-0.701-1.082-1.146-1.436c-0.115-0.096-0.463,0.096-0.575,0c-0.773-0.664-1.122-1.848-2.291-2.008
			c-0.739,0.027-0.41,1.119-1.146,1.146c-0.867,0.137-1.163,0.715-1.723,1.146c-0.474,0.367-0.753,0.396-1.146,0.57
			c-0.095,0.043-0.18,0.506-0.286,0.578c-0.246,0.158-0.649,0.17-0.858,0.283c-0.795,0.428-1.645,0.986-2.008,1.436
			c-0.079,0.094-0.475-0.08-0.572,0c-0.68,0.52-1.29,1.572-2.009,2.291c-0.742,0.744-1.688,1.283-2.29,2.008
			c-0.096,0.107,0.058,0.441,0,0.574c-0.041,0.088-0.504,0.186-0.576,0.287c-0.063,0.088-0.279,0.492-0.284,0.57
			c-0.021,0.336-0.172,0.127-0.289,0.289c-0.474,0.652-0.701,1.068-1.146,1.434c-0.095,0.078,0.076,0.469,0,0.57
			c-0.311,0.42-0.813,0.723-1.146,1.146c-0.175,0.225-0.425,0.375-0.575,0.576c-0.168,0.221-0.096,0.635-0.286,0.857
			c-0.685,0.799-1.623,1.271-2.292,2.008c-0.097,0.105,0.09,0.459,0,0.572c-0.521,0.645-1.418,1.137-2.006,1.719
			c-0.325,0.322-0.564,0.85-0.861,1.146c-0.336,0.338-0.891,0.547-1.146,0.861c-0.09,0.113,0.097,0.465,0,0.572
			c-0.874,0.965-2.036,1.596-2.867,2.584c-0.18,0.211-0.128,0.652-0.284,0.855c-0.187,0.24-0.681,0.322-0.86,0.572
			c-0.091,0.127,0.063,0.432,0,0.576c-0.047,0.102-0.508,0.164-0.573,0.285c-0.214,0.389-0.067,0.771-0.285,1.146
			c-0.099,0.168-0.476,0.377-0.575,0.572c-0.314,0.613-0.33,1.18-0.571,1.434c-0.252,0.264-0.366,0.533-0.573,0.859
			c-0.129,0.203-0.177,0.385-0.289,0.572c-0.099,0.172-0.461,0.387-0.571,0.574c-0.085,0.145,0.069,0.422,0,0.574
			c-0.047,0.102-0.505,0.164-0.574,0.287c-0.219,0.381-0.098,0.756-0.285,1.145c-0.015,0.027-0.225,0.189-0.286,0.287
			c-0.127,0.199-0.183,0.387-0.289,0.574c-0.162,0.291-0.429,0.348-0.573,0.572c-0.226,0.357-0.092,0.775-0.285,1.148
			c-0.021,0.041-0.214,0.174-0.286,0.285c-0.378,0.59-0.603,1.51-0.859,1.721c-0.096,0.076,0.071,0.471,0,0.572
			C30.889,212.501,30.627,212.569,30.468,212.854z M143.127,215.721c0.357,0.07,0.289,0.566,0,0.57
			c-0.584,0.162-0.563,0.863-1.145,0.287C142.174,215.507,142.932,216.792,143.127,215.721z M110.447,212.854
			c-0.029,0.037-0.646,1.195-1.146,0.861v-1.15c1.146,0.156,0.865,0.156,2.008,0C112.459,213.012,110.619,212.645,110.447,212.854z
			 M110.734,190.78c-0.123,0.643-1.412,0.117-2.006,0.287C108.854,190.425,110.141,190.952,110.734,190.78z M102.996,191.354h0.857
			c0.051,0.621-1.018,0.129-1.434,0.287C102.43,191.362,102.771,191.417,102.996,191.354z M100.988,212.854h0.859
			C101.924,213.628,99.32,212.85,100.988,212.854z M102.135,214.003c-0.354,0.41-0.982,0.543-1.719,0.574
			C100.143,213.54,101.543,214.173,102.135,214.003z M98.408,191.067h0.572C99.037,191.876,96.838,190.991,98.408,191.067z
			 M93.248,190.21c0.803,0.148,1.492,0.42,2.295,0.57c0.709-0.033,0.486,0.352,0,0.287c-0.926-0.127-1.555-0.549-2.58-0.574
			C92.521,190.343,92.943,190.194,93.248,190.21z M93.537,214.577c0.09,0.504-1.605,0.508-1.148-0.289
			C92.643,214.509,93.033,214.596,93.537,214.577z M89.234,189.059c0.254,0.064,0.492,0.195,0.859,0.287
			c0.283,0.072,1.436,0.59,2.295,0.572c-0.387,0.561-1.379,0.158-2.01,0c-0.635-0.156-1.156-0.582-1.721-0.572
			C88.646,189.159,89.043,189.012,89.234,189.059z M83.501,186.766c0.002,0.295,0.36,0.201,0.573,0.287
			c0.321,0.129,0.653,0.5,1.435,0.574c0.068,0.311,0.567,0.191,0.571,0.572c-1.091-0.244-1.822-0.852-2.865-1.146
			C82.772,186.905,83.194,186.755,83.501,186.766z M78.915,184.76c0.326,0.1,0.879,0.076,1.145,0.287
			c0.373,0.291,0.093,0.754,0,0.287c-0.711,0.043-0.886-0.449-1.432-0.574C78.715,184.317,78.871,184.749,78.915,184.76z
			 M72.32,180.175c0.148,0.148-0.042,0.285,0.289,0.285c0.432,0,0.024,0.406-0.289,0.285c-0.163-0.061-0.16-0.465-0.287-0.57
			C71.615,179.821,72.12,179.975,72.32,180.175z M64.582,213.141c-0.161,0.828-0.449-0.441-0.861-0.287
			C64.001,211.907,64.286,213.173,64.582,213.141z M55.981,212.565c-0.19-0.035,0.33,0.461,0.285,0.289
			c0.082,0.328-0.418,0.803-0.572,0.572c-0.032-0.049,0.275-0.438,0.287-0.572C55.981,212.874,55.568,212.483,55.981,212.565z
			 M51.967,196.512c0.479-0.566-0.024-0.363,0-1.145C52.527,195.225,52.999,196.792,51.967,196.512z M52.254,189.059
			c0.086-0.758-0.325-1.438,0-2.006c0.786-0.301,0.226,0.861,0.571,1.146c0.025,0.02,0.283-0.023,0.287,0
			c0.121,0.43-0.278,0.424-0.287,0.574c-0.032,0.547,0.695,1.078,0.859,2.006c-0.506,0.256-0.362,1.162-1.432,0.861
			c0.273-0.537-0.268-0.996-0.287-1.434C51.938,189.573,52.206,189.491,52.254,189.059z M51.967,193.36
			c0.054-0.242-0.114-0.27-0.285-0.285c0.104-0.451,0.503,0.252,0.572-0.289c0.325,0.057,0.16,0.289,0,0.289
			c-0.117,0.689,0.522,0.621,0.289,1.434c-0.154,0.441-0.303,0.018-0.289-0.285c-0.045-0.338-0.521-0.246-0.86-0.289
			C51.289,193.448,51.62,193.393,51.967,193.36z"/>
		<path fill="#F6921E" d="M81.494,173.296c-0.174,0.014-0.339,0.043-0.287,0.285c0.901-0.141,0.217,1.314,0.861,1.434v-0.572
			c0.635,0.211,1.18-1.061,0.571-1.146c-0.701,0.885,0.518-0.621-0.287-0.574c-0.139,0.34-0.306,0.65-0.572,0.859
			C81.135,173.733,82.127,172.466,81.494,173.296z"/>
		<rect x="118.76" y="147.784" fill="#F6921E" width="0.574" height="0.57"/>
		<path fill="#F6921E" d="M119.047,139.755c0.203,0.463-1.352,0.463-1.146,0c0.279-0.295,0.564-0.58,0.859-0.859h0.574
			c-0.508-2.16-2.186,1.012-3.152,0c0.564,0.082,0.568-0.391,0.857-0.572c0.5,0.02,0.891-0.064,1.148-0.289
			c-0.234-1.096,1.381-0.336,1.145-1.432c-0.809-0.047-0.666,0.859-1.434,0.859c-0.186-0.627,0.813-0.914-0.283-0.859
			c-0.492,0.115,0.057,0.367,0,0.859c-0.381,0.002-0.264,0.5-0.576,0.57c-0.229,0.066-0.557,0.01-0.572,0.291
			c-0.051,0.967-1.432,0.639-1.432,1.432c0.631,0.141-0.215,0.377-0.287,0.572c-0.238,0.645-0.25,1.621,0,2.008
			c-0.324,0.059-0.449,0.316-0.574,0.572c0.652,0.395,1.078-0.738,1.146,0c-0.033,1.021-0.572,1.813,0.287,0.859
			c0,0.287,0.23,0.34,0.285,0.574c-0.203,0.023-0.797,0.494-0.572,0.859c0.088,0.145,0.672-0.059,0.572,0.287
			c-0.492-0.018-0.736,0.221-0.857,0.57c0.748,0.945,1.094-0.711,1.432,0c0.217,0.967-0.93,0.475-1.432,0.576
			c-0.111,0.021-0.408,0.547-0.861,0.285c-0.275,1.041,1.289,0.242,1.146,1.146c-0.391,0.094-0.549,0.406-1.146,0.287
			c0.564-1.451-1.471-0.586-0.574-0.287c0.016-0.176,0.043-0.34,0.287-0.283v0.859c-1.328,0.201-1.896,1.158-2.58,2.006
			c0.713,0.371,1.391-0.643,1.434,0c-0.586-0.094-0.051,0.883-0.285,1.146c-0.174,0.189-0.941-0.166-0.859,0.285
			c0.654,0.541,2.082-0.563,2.865,0.287c-0.891-0.031-0.818,0.9-2.006,0.57c0.354,0.93-0.928,0.221-0.574,1.148
			c0.285,0.645,1.563-0.621,2.008,0.287c-0.34,0.137-0.65,0.307-0.861,0.572c1.057,0.855,1.867,0.234,2.295-0.289
			c0.08-0.098,0.482,0.092,0.574,0c0.225-0.221-0.029-0.396,0.285-0.57c0.205-0.115,0.98,0.6,0.857-0.287
			c-0.332-0.049-0.309-0.451-0.285-0.861c0.414,0.322,0.699,0.311,0.861-0.285c-0.881-0.209-0.844,0.492-1.721,0.285
			c0.697-0.674-0.43-0.531-0.287-1.434c0.73,0.309,1.004-1.232,1.432-0.285c0.033,0.293-1.234,0.578-0.285,0.859
			c0.303-0.811,1.137-0.359,0.572-1.432c0.234-0.1,0.641,0.117,0.861,0c0.088-0.051-0.074-0.504,0-0.574
			c0.084-0.082,0.508,0.094,0.572,0c0.193-0.279,0.193-0.896,0-0.861c-0.807,1.008-0.227,0.256,0-0.568
			c-1.465-0.594-1.584,1.641-2.293,0.855c0.885-0.932,2.229-1.404,2.865-2.578c-0.926-0.355-0.219,0.928-1.145,0.57
			c0.066-0.408,0.473-0.48,0.572-0.855c-0.824,0.059-1.457-0.076-1.721-0.576c0.359-0.031,0.398-0.355,0.576-0.572
			c0.053-0.068,0.541,0.076,0.57,0c0.111-0.275-0.326-0.811-0.287-0.861c0.105-0.131,0.482,0.334,0.572,0.287
			c0.143-0.068-0.053-0.686,0.287-0.572c-0.26-0.838-0.26-0.881,0-1.721c-0.373,0.094-0.145-0.438-0.287-0.57
			c-0.219-0.213-1.201-0.029-0.855-0.863c0.283,0.002,0.338-0.23,0.57-0.287c-0.061,0.506,1.219,1.541,0.572,0.861
			c0.246-0.914-0.449-0.887-0.572-1.434C118.771,140.573,119.969,140.077,119.047,139.755z M113.6,149.214
			c0.092-0.605,1.359-0.059,1.148,0.574C113.82,150.141,114.529,148.86,113.6,149.214z M114.174,154.089
			c0.1-0.379,0.504-0.451,0.574-0.861C115.461,153.344,114.766,154.341,114.174,154.089z M117.9,149.788
			c-0.125,0.354-0.363,0.588-0.859,0.572C117.168,150.007,117.408,149.77,117.9,149.788z M115.609,142.05
			c-0.863-0.43,0.209-1.289,0.857-1.15C116.383,141.485,115.691,141.464,115.609,142.05z M116.467,141.473
			c0.125-0.088,0.434,0.063,0.572,0c0.018-0.006,0.414-0.385,0.287,0c-0.041,0.131-0.439,0.221-0.572,0.287
			C116.055,142.108,116.191,141.673,116.467,141.473z M118.188,143.194c-0.432-0.455-1.207,0.01-1.434,0.572
			C115.383,143.048,118.281,141.751,118.188,143.194z"/>
		<path fill="#F6921E" d="M110.734,125.71c0.428-0.561-0.09-0.805,0.572-1.15c0.283-0.143,0.855,0.131,0.859-0.285
			c-0.793-0.928,0.531-0.9,0-1.43c-0.211-0.213,0.914-0.408,0.574-0.863c-1.25,0.199-1.613-0.486-2.865-0.285
			c-0.064,0.223-0.01,0.566-0.287,0.572c-1.09,0.004-1.98,0.557-2.293,0.576c-0.359,0.016-0.293,0.457-0.572,0.57
			c0.105-0.043-0.125-0.307-0.289-0.285c0.045-0.004-0.158,0.246-0.287,0.285c-0.893,0.27-0.789,0.104-1.146,0.574
			c-0.137-0.34-0.307-0.648-0.572-0.859c-0.004,0.379-0.502,0.262-0.574,0.572c0.313,0.068,0.691,0.473,0.287,0.57
			c-0.174-0.49-1.357,0.025-1.434-0.57c0.16,0.002,0.324-0.232,0-0.287c-0.004,0.477-0.795,0.16-0.859,0.574
			c0.158-0.004,0.324,0.23,0,0.283c-0.166-0.254-1.18-1.271-0.574-0.57c0.066,1.418-0.412,0.951-1.432,0.855
			c0.086,0.566-0.389,0.572-0.574,0.861c0.396,0.014,0.631-0.135,0.859-0.285c0.145,0.561-0.625,1.83,0,1.146
			c0.365-0.766,1.598,0.445,0.859,0.572c0.762,0.275,1.676-0.328,1.721-0.283c0.078,0.072-0.293,0.572-0.287,0.572
			c0.525,0.021,0.539-0.383,1.721-0.289c1.264,1.287,3.178,0.207,4.873,0.859c0.68-0.545,0.615-2.096,1.146-1.434
			c0.168,0.211,0.273-0.271,0.285-0.285c-0.004,0.01-0.277,0.01-0.285,0C109.926,125.759,110.719,125.729,110.734,125.71z
			 M101.848,126.28c-0.508-0.258-0.836-0.691-1.432-0.859C100.668,124.819,102.014,125.512,101.848,126.28z"/>
		<path fill="#F6921E" d="M126.213,72.961c-0.26-0.077-0.592,0.049-0.857,0c-0.502-0.092-0.658-0.258-1.146-0.285
			c-0.457-0.03-1.221-0.234-1.721,0.285h2.293c0.48,0.566,1.93,0.496,2.58,0.572c0.588,0.07,1.92,0.75,2.295,0
			c-1.176,0.028-1.48-0.139-2.295-0.285c-0.209-0.037-0.246-0.275-0.285-0.287c-0.277-0.073-0.357,0.324-0.574,0.287
			C126.512,73.25,126.367,73.005,126.213,72.961z"/>
		<path fill="#F6921E" d="M127.361,58.914C126.203,57.907,126.682,59.838,127.361,58.914L127.361,58.914z"/>
		<path fill="#F6921E" d="M128.219,91.594c-0.887,0.396-2.031,1.677-2.863,1.719c-0.332,0.02-0.131,0.186-0.287,0.286
			c-0.725,0.468-1.674,0.262-2.58,0.575c-0.031,0.011,0.025,0.259,0,0.287c-0.436,0.431-2.094-0.473-2.293,0.574
			c0.543,0.126,1.727-0.391,1.434,0.571c-1.199-0.241-1.355,0.56-2.295,0.571c0.002,0.771-0.906,0.624-0.861,1.435
			c0.342,0.047,0.816-0.05,0.861,0.288c-0.65,0.755,0.246,0.306,0.287,0.859c0.041,0.514,1.574,0.712,1.723,0.859
			c0.143,0.146-0.348,0.455-0.289,0.571c0.877,0.21,1.043-0.294,1.721-0.285c0.568,0.003,0.365,0.782,1.146,0.573
			c0.309-0.956,0.869-0.021,1.723-0.573c0.244-0.338,0.049-0.825,0.285-1.146c0.104-0.141,0.51,0.361,0.574,0.284
			c0.133-0.155-0.094-0.667,0-0.858c0.047-0.104,0.502-0.167,0.572-0.285c0.133-0.227,0.221-0.686,0.287-0.86
			c-0.002,0.002-0.275,0.009-0.287,0c-0.201-0.16,0.297-0.322,0.287-0.287c0.313-1.004-0.127-0.625,0-1.433
			c0.002-0.02,0.268,0.017,0.285,0c0.441-0.36-0.133-2.254-0.285-2.579C127.648,92.49,128.84,90.94,128.219,91.594z"/>
		<path fill="#F6921E" d="M81.494,93.028c0.217-0.686,0.481,0.521,0.573,0.571c0.323,0.191,0.705-0.336,0.858-0.286
			c0.188,0.064,0.151,0.782,0.288,0.861c0.232,0.135,0.893-0.09,0.859-0.286c-0.288-0.004-0.358-0.504,0-0.575
			c-0.013,0.396,0.136,0.63,0.285,0.861c0.862-0.013,2.921-0.309,2.296-0.861c-0.691,0.628,0.447-0.542,0.572-0.856
			c-0.318-0.063-0.443-0.32-0.572-0.576c0.34-0.138,0.646-0.306,0.859-0.572c-0.715-0.042-0.084-0.97,0-1.146
			c-0.914-0.246-0.889,0.45-1.436,0.576c0.393-1.281,0.047-0.606-0.571-0.576c-0.244,0.01-0.401-0.334-0.575-0.287
			c-0.13,0.035,0.043,0.281-0.285,0.287c-0.28,0.005-0.354-0.306-0.574-0.287c-0.029,0.003-0.479,0.551-0.573,0.572
			c0.35-0.09,0.988,0.827,0.287,0.859c-0.358-0.115-0.585-0.369-0.573-0.859c-0.811-0.051-0.667,1.078-1.435,0.291
			c-0.013,0.39,0.135,0.625,0.288,0.855c-0.227,0.064-0.332,0.24-0.288,0.574C81.433,92.081,80.792,92.997,81.494,93.028z"/>
		<path fill="#F6921E" d="M71.461,65.796C72.426,66.665,72.332,64.734,71.461,65.796L71.461,65.796z"/>
		<path fill="#F6921E" d="M73.755,151.219c0.066,0.314,0.469,0.689,0.573,0.287c-0.589-0.084-0.015-0.619,0-0.857
			c0.014-0.25,0.274-0.234,0.285-0.289c0.067-0.311-0.247-0.184-0.285-0.285c-0.213-0.563,0.481-1.072,0.571-1.146
			c0.177-0.141-0.281-0.371-0.286-0.283c0.056-1.137,0.241-1.422,0.286-2.295c0.009-0.178,0.291-0.324,0.287-0.289
			c0.021-0.363-0.313-0.395-0.287-0.859c0.011-0.203,0.287-0.289,0.287-0.287c0.215-1.863,0.226-3.32,0.286-5.158
			c0.013-0.385,0.285-0.643,0.285-0.859c0-0.357-0.397-0.412-0.285-0.861c0.109-0.432,0.669-0.24,0.572-0.859
			c-0.776,0.016-0.287-0.221-0.287-0.572v-1.434c0-0.277-0.265-0.207-0.284-0.287c-0.069-0.26,0.271-0.363,0.284-0.574
			c0.028-0.471,0-0.957,0-1.434c0-0.277,0.268-0.203,0.287-0.285c0.069-0.262-0.274-0.363-0.287-0.572
			c-0.023-0.479,0.041-0.961,0-1.434c-0.054-0.676-0.257-1.311-0.284-2.008c-0.039-0.939,0.447-1.064,0-1.434
			c-0.432-0.352,0.284-1.439,0.284-1.434c0,0-0.55-0.24-0.571-0.289c-0.127-0.266,0.279-0.242,0.287-0.285
			c0.056-0.279-0.279-0.234-0.287-0.287c-0.045-0.289,0.287-0.34,0.287-0.574c0,0.084-0.261-0.17-0.287-0.283
			c-0.257-1.023,0.364-1.223,0.571-1.721c-0.377-0.082-0.629-0.012-0.284-0.287c0.183-0.146-0.289-0.359-0.287-0.285
			c-0.012-0.521,0.421-0.762,0.287-1.436c-0.793-0.066-0.104-1.617-1.146-1.434c-0.021,0.326,0.109,0.436,0.285,0.572
			c0.174,0.139-0.279,0.375-0.285,0.287c0.038,0.514,0.25,0.854,0.285,1.146c0.251,2.051,0.181,4.168,0.286,6.309
			c0.022,0.428,0.255,1.041,0.288,1.432c0.254,3.041,0.15,7.258,0,10.607c-0.02,0.416-0.252,0.592-0.288,0.859
			c-0.039,0.299,0.263,0.197,0.288,0.287c0.067,0.262-0.275,0.361-0.288,0.57c-0.098,1.594-0.188,2.693-0.286,3.441
			c-0.072,0.564,0.051,0.871-0.285,1.148c-0.078,0.061,0.036,0.471,0,0.57C73.742,147.618,72.978,149.483,73.755,151.219z"/>
		<path fill="#F6921E" d="M107.01,152.081h-0.576c0.004,0.287-0.23,0.344-0.287,0.574c0.535-0.273,0.961,0.855,1.148,0
			c-0.225-0.064-0.568-0.012-0.572-0.287C106.896,152.352,107.059,152.327,107.01,152.081z"/>
		<path fill="#F6921E" d="M64.007,102.777c-0.05,0.716,0.438,0.896,0.86,1.144c-0.004-0.533-0.236-0.641-0.286-1.144
			c-0.096-0.899,0.271-2.928-0.288-2.296c0.169,1.027-0.333,1.389-0.573,2.009C63.897,102.503,64.062,102.531,64.007,102.777z"/>
		<path fill="#F6921E" d="M73.755,152.368c-0.234,0.211-0.771,1.982,0.284,1.721C73.567,153.452,74.103,152.534,73.755,152.368z"/>
		<path fill="#F6921E" d="M66.873,77.26c0.081-0.391-0.177-1.118-0.286-0.571C66.508,77.078,66.767,77.807,66.873,77.26z"/>
		<path fill="#F6921E" d="M68.88,66.653c-0.719,0.81-1.834,1.223-1.717,2.867c0.49,0.114,0.732-0.425,0.855,0
			c-0.406,0.352,0.109,0.854,0,1.437c-0.014,0.07-0.543,0.449-0.571,0.57c-0.271,1.112,0.198,2.314,0,3.726
			c0.729-0.078,1.28,0.113,2.007,0c0.019-0.001-0.02-0.264,0-0.283c0.173-0.175,2.405-0.347,2.293-0.289
			c0.143-0.073-0.054-0.682,0.285-0.572c0.159,0.646,0.449-0.349,0.861,0.288c0.005-0.473,0.795-0.16,0.86-0.572
			c-0.479,0.028-0.125-0.556-0.288-0.861c-0.118-0.219-0.458-0.249-0.572-0.572c-0.094-0.262,0.32-0.365,0.286-0.573
			c-0.027-0.176-0.837-0.328-0.571-0.858c-0.495-0.115-0.734,0.426-0.861,0c0.593-1.211,1.479,1.14,1.72,0.284
			c-0.317-0.059-0.446-0.318-0.572-0.572c0.142-1.193-0.34-1.762-1.146-2.005c0.432-1.265-0.835-1.024-0.574-1.722
			c0.049-0.131,0.705,0.045,0.574-0.288c-1.067,0.304-0.925-0.604-1.435-0.857c0.076,0.289-0.162,0.187-0.284,0.286
			c-0.58,0.457-0.31,1.493-0.861,1.72C69.119,67.373,69.269,66.743,68.88,66.653z M72.32,69.806
			c-0.353-0.124-0.589-0.366-0.572-0.858C72.101,69.076,72.336,69.314,72.32,69.806z M71.173,72.388
			c0.569,0.002,0.365,0.781,1.146,0.572C72.072,74.041,71.05,73.286,71.173,72.388z"/>
		<path fill="#F6921E" d="M67.735,89.588c-0.141-0.339-0.31-0.649-0.571-0.861C67.118,89.111,67.61,90.308,67.735,89.588z"/>
		<path fill="#F6921E" d="M72.033,84.142c0.104-0.651,0.347-2.707-0.571-3.152c-0.173,0.687-0.414,1.307-0.288,2.292
			C71.86,83.166,71.016,84.587,72.033,84.142z"/>
		<path fill="#F6921E" d="M62.287,91.307c0.078-0.39-0.177-1.12-0.285-0.568C61.922,91.124,62.178,91.854,62.287,91.307z"/>
		<path fill="#F6921E" d="M72.896,93.888c-1.515-0.136,0.664,0.771-0.287,0.86c-0.788-0.009-0.683-1.354-0.288-1.722
			c-0.349-0.429-0.739-0.737-0.858-1.147c-0.137-0.466,0.538-0.422,0-0.856c-0.072-0.062,0.026-0.479,0-0.575
			c-0.264-0.923-0.141-0.591,0-1.146c0.034-0.14,0.026-0.432,0-0.574c-0.204-1.1-0.865-2.206-1.146-3.438
			c-0.344-1.501-0.3-2.85-0.574-4.298c-0.691-0.12-0.621,0.521-1.435,0.285c-0.044,0.341,0.052,0.813-0.286,0.86
			c-0.086,0.563,0.389,0.565,0.574,0.86c-0.617,0.68-0.162,1.704-0.288,2.578c-0.052,0.374-0.257,0.396-0.286,0.859
			c-0.096,1.546,0.224,3.245,0.286,4.014c0.106,1.247,0.228,2.252,0.288,2.865c0.067,0.651-0.125,1.438,0,2.01
			c0.055,0.247,0.271,0.364,0.286,0.572c0.036,0.479-0.496,0.454,0,0.858c0.062,0.05-0.012,0.486,0,0.574
			c0.15,1.051,0.216,1.396,0.287,2.008c0.144,1.2,0.175,1.947,0.287,2.578c0.185,1.047,0.435,2.19,0.574,3.152
			c0.181,1.282,0.138,2.186,0.57,2.867c0.652,1.022,0.235,2.779,1.147,3.728c-0.121-1.176,0.266-1.838,0.572-2.581
			c-0.383-0.703-0.862,0.516-1.146-0.287c0.873-0.287,0.368-0.472,0-0.859c0.294-0.154,0.573-1.149,0.574-1.146
			c-0.012-0.063-0.454-0.001-0.286-0.287c0.086-0.145,0.675,0.06,0.571-0.287c-0.458-0.398-0.307-1.416-0.859-1.718
			c0.447-0.078,0.199-0.633,0-0.861c0.862,0.288,0.507-0.64,0.574-1.146c0.467,0.085,0.772-0.39,0.285-0.575
			c0.003,0.159-0.229,0.328-0.285,0c-0.061-0.552,0.601-0.332,0.861-0.574c0.164-0.154,0.103-1.253,0.857-0.858
			c0.021-0.499-0.063-0.89-0.286-1.146c0.366,0.014,0.397,0.367,0.858,0.285c0.427-1.984-0.24-2.456-0.284-4.585
			C73.334,94.785,72.844,94.604,72.896,93.888z M72.32,100.766c-0.927,0.356-0.218-0.926-1.146-0.573
			c0.079-0.59,1.069-0.27,1.146-0.856c0.325,0.052,0.161,0.285,0,0.285C72.295,100.405,72.797,100.198,72.32,100.766z
			 M73.181,95.036C74.241,95.905,72.309,95.999,73.181,95.036L73.181,95.036z"/>
		<path fill="#F6921E" d="M61.712,92.456c-0.249,1.091,0.156,1.435,0.289,0.856C62.044,93.115,61.899,91.646,61.712,92.456z"/>
		<path fill="#F6921E" d="M130.229,164.122c-0.381-0.373-1.068-0.379-1.146,0.285C129.461,164.78,130.146,164.784,130.229,164.122z"
			/>
		<path fill="#F6921E" d="M112.455,158.389h-0.859c-0.223,0.063-0.564,0.006-0.574,0.285
			C111.439,158.518,112.502,159.009,112.455,158.389z"/>
		<rect x="101.563" y="181.319" fill="#F6921E" width="0.572" height="0.574"/>
		<path fill="#F6921E" d="M109.014,82.135c-0.541,0.063-0.631-0.325-1.146-0.285v1.146c0.328,0.068,0.436-0.179,0.576-0.289
			C108.627,82.559,108.803,82.268,109.014,82.135z"/>
		<path fill="#F6921E" d="M105.861,103.92c-0.379-0.002-0.262-0.501-0.572-0.572C104.961,103.935,105.736,104.714,105.861,103.92z"
			/>
		<path fill="#F6921E" d="M107.582,87.295c0.008,0.027,0.258-0.022,0.285,0c0.09,0.072-0.059,0.468,0,0.573
			c0.094,0.165,0.479,0.381,0.576,0.573c0.26,0.524,0.303,1.288,0.57,1.721c0.068,0.105,0.479,0.184,0.574,0.285
			c0.189,0.204,0.094,0.651,0.287,0.859c0.137,0.148,0.703,0.169,0.859,0.287c0.549,0.428,0.764,1.112,1.432,1.147
			c0.305,0.016,0.164,0.233,0.289,0.285c0.863,0.355,1.434,0.187,2.293,0.285c0.365,0.044,0.408,0.24,0.859,0.286
			c1.01,0.105,1.063,0.226,1.719,0.289c1.295,0.132,2.234-0.196,2.869-0.289c0.939-0.134,1.146,0.063,1.434-0.286
			c0.012-0.015,1.182-0.297,1.146-0.285c0.625-0.175,1.295-0.074,1.719-0.285c0.203-0.104,0.611-0.652,0.861-0.862
			c0.342-0.285,0.832-0.431,0.857-0.856c-1.135,0.049,0.094-0.442-0.57-0.86c-0.104-0.41-1.463-0.979-1.723-0.287
			c0.338,0.045,0.813-0.048,0.859,0.287c-0.652,0.079-1.074-0.07-1.146-0.574c-0.332-0.693,1.369-0.861,0.287-0.861
			c-0.768,0-0.543-1.189-0.572-1.719c-1.268-0.898-3.156-0.693-4.301-0.573c-0.789,0.083-2.086-0.052-2.58,0
			c-0.578,0.063-0.619,0.241-0.857,0c-0.146-0.145-0.936,0.046-1.148,0c-0.586-0.129-1.754-0.511-2.006-0.571
			c-0.367-0.094-0.609-0.226-0.859-0.288c-0.195-0.048-0.59,0.098-0.574,0.288c0.725,0.104,1.066-0.017,1.436,0.285
			c0.059,0.05-0.066,0.554,0,0.571c0.527,0.173,0.922-0.392,1.146,0c-0.123,0.642-1.412,0.118-2.006,0.288
			c-0.385-0.288-0.865-0.472-1.148-0.859c-1.65,0.218-2.002-0.86-3.15-1.146C107.563,85.626,107.375,86.646,107.582,87.295z
			 M125.068,90.739h-0.574C124.438,89.925,126.637,90.812,125.068,90.739z"/>
		<path fill="#F6921E" d="M109.299,105.927c1.293-0.321,2.305,0.316,2.867,0.286c0.285-0.013,0.346-0.218,0.574-0.286
			c0.322-0.098,0.826,0.089,0.859-0.286c-0.721-0.047-0.877-0.394-1.146-0.574c-0.609-0.406-1.848-0.479-2.578-0.285
			c-0.178-0.496-1.361,0.021-1.434-0.572c-0.412-0.072-0.607,0.216-0.861,0.287c-1.051,0.295-1.232,0.104-1.721,0
			c-0.965-0.211-1.127,0.207-1.721,0.285c-0.563,0.072-0.869-0.052-1.146,0.285c-0.064,0.079-0.471-0.04-0.574,0
			c-0.205,0.082-0.391,0.259-0.572,0.285c-0.77,0.129-1.387-0.347-2.006,0.289c0.113,0.362,0.908,0.048,1.146,0.286
			c0.055,0.054-0.064,0.555,0,0.573c0.672,0.217,1.303-0.151,2.293,0c0.018,1.082,0.279,0.129,0.859,0.287
			c0.139,0.038,0.305,0.499,0.574,0.572c-0.092-0.023,0.117-0.296,0.285-0.287c0.076,0.002,0.23,0.51,0.572,0.287
			c0.072-0.534,0.475,0.162,0.574-0.287c-0.66,0.036,0.559-1.86,0.861-0.859c-0.225,0.063-0.564,0.007-0.574,0.287
			c0.699,0.152,1.068-0.448,1.723-0.573c0.416-0.079,0.611,0.286,0.857,0.286C108.932,106.213,109.184,105.959,109.299,105.927z"/>
		<path fill="#F6921E" d="M75.188,214.862c-0.035-0.295,1.234-0.578,0.285-0.859C75.627,214.415,74.356,214.7,75.188,214.862z"/>
		<rect x="111.881" y="156.954" fill="#F6921E" width="0.574" height="0.574"/>
		<path fill="#F6921E" d="M113.6,118.829c-0.08,0.178-0.713,1.104,0,1.145C113.207,119.323,114.34,118.897,113.6,118.829z"/>
		<path fill="#F6921E" d="M129.369,76.689c-2.299-2.541-9.162-3.899-13.76-2.866c-0.332,0.073-0.82-0.073-0.859,0.284
			c0.938,0.298,2.193,0.745,2.576,0.861c1.043,0.314,1.623,0.1,2.008,0.572c0.074,0.088,0.471-0.059,0.574,0
			c0.164,0.092,0.383,0.475,0.574,0.574c0.492,0.254,1.023,0.358,1.434,0.573c0.781,0.41,1.514,0.861,2.004,1.145
			c1.84,1.066,3.904-0.197,4.875-0.858C129.02,76.91,129.359,76.967,129.369,76.689z M122.488,75.828
			c0.18-1.009,1.197-0.256,1.145,0.571C123.174,75.822,123.252,76.113,122.488,75.828z M127.076,77.26
			c0.006-0.28,0.35-0.222,0.572-0.286c-0.363-0.43-1.17-0.861-0.572-1.434c0.527,0.333,0.197,1.521,1.432,1.147
			C128.262,77.113,127.789,77.303,127.076,77.26z"/>
		<path fill="#F6921E" d="M112.742,156.38c0.033-0.539,0.947-0.199,0.857-0.859C113.107,155.45,111.902,156.061,112.742,156.38z"/>
		<path fill="#F6921E" d="M120.195,76.974c0.451,0.279,0.918,0.422,1.146,0.573c0.367,0.245,1.951,0.69,1.721,0.285
			c-0.58-0.208-0.98-0.575-1.434-0.858c-0.521-0.327-1.553-0.891-1.723-1.146c-0.428,0.048-1.059-0.104-1.146,0.287
			c0.398-0.017,0.625,0.141,0.859,0.284C119.795,76.509,120.002,76.857,120.195,76.974z"/>
		<path fill="#F6921E" d="M98.98,93.599c-0.756,0.742-0.271,1.066-0.572,2.009c0.529-0.05,0.617,0.336,0.861,0.571
			c0.141,0.14,0.424,0.166,0.572,0.289c0.09,0.072-0.094,0.506,0,0.572c0.188,0.138,0.65-0.107,0.859,0
			c0.227,0.778,0.736,1.184,1.146,1.432c0.672,0.415,1.203,1.433,1.721,0.863c0.424-0.055,0.26-0.693,0.283-1.148
			c0.664,0.086,0.32-0.826,0.861-0.858c1.094,0.055,2.459-0.164,2.582,0.858c1.281-0.202,2.164-0.164,3.725-0.573
			c-0.244,0.901-1.084,1.212-1.145,2.294c0.082,0.583,0.574,0.764,0.857,1.146c-0.451,0.026-0.227,0.732-0.857,0.573
			c-0.063,0.543,0.35,0.595,0.57,0.861c0.188,0.222,0.516,0.51,0.572,0.857c-0.006-0.055-0.641,0.841,0,0.861
			c-0.145-0.589,0.396-0.61,0.576-0.861c0.207-0.287,0.25-0.688,0.57-0.857c0.57,0.002,0.365,0.779,1.15,0.57
			c0.447-0.025,0.221-0.729,0.857-0.57c0.781,0.268,0.543,1.556,2.008,1.146c0.35-1.308-1.006-0.906-1.146-1.721
			c-0.006-0.379-0.504-0.261-0.574-0.574c0.646-0.158-0.348-0.443,0.287-0.858c-0.328-0.175-0.723,0.348-0.859,0.285
			c-0.211-0.088,0.307-0.386,0.285-0.285c0.117-0.595-1.578-1.047-0.857-2.009c-0.41-0.108-0.484-0.343-0.861,0
			c0.629-0.683-0.465-0.977-0.859-1.145c-0.166-0.07,0.063-0.267-0.287-0.287c0.012,0-0.24,0.453-0.287,0
			c0.158,0,0.324-0.23,0-0.287c0.211-1.45-0.785-1.696-0.859-2.865c-0.563-0.488-1.434-0.671-1.719-1.433
			c-0.318-1.214-1.125-2.304-1.721-3.44c-0.5-0.955-1.389-2.297-1.434-3.152c-0.018-0.309-0.232-0.157-0.287-0.288
			c-0.48-1.116-0.846-2.532-1.434-3.725c-0.479-0.978-0.891-2.866-2.58-2.582c-0.135,1.055-1.262,3.103-0.572,4.3
			c-0.289-0.062-0.189,0.143-0.287,0.287c-0.461,0.69,0.088,0.771-0.287,1.146c-0.148,0.146,0.053,0.931,0,1.146
			c-0.09,0.366-0.24,0.402-0.287,0.859c-0.08,0.81,0.242,3.197,0,3.439C98.984,91.018,99.025,92.864,98.98,93.599z"/>
		<rect x="139.402" y="216.581" fill="#F6921E" width="0.572" height="0.574"/>
		<path fill="#F6921E" d="M107.01,82.135c0.031-0.411,1.256-1.497,0-1.434C107.381,81.413,106.168,81.89,107.01,82.135z"/>
		<path fill="#F6921E" d="M94.395,112.805c0.973,0.039,0.785,1.096,1.146,1.436c0.32,0.305,0.713,0.039,1.146,0.285
			c0.422,0.242,0.658,1.053,0.857,1.146c0.152,0.072,0.412-0.041,0.576,0c0.191,0.049,0.244,0.277,0.285,0.289
			c0.887,0.268,1.188,0.162,2.008,0.287c0.42,0.061,0.514,0.369,1.146,0.285c0.885-0.117,0.305-0.84,0.857-0.285
			c1.246,1.24,3.979-0.791,5.736-0.287c0.061-0.225,0.006-0.564,0.285-0.576c0.061,0.238,0.148,0.408,0.285,0.576
			c0.158,0.197,0.332-0.299,0.287-0.289c-0.686,0.16,0.344-0.701,0.861-0.287c0.09-0.387,0.406-0.547,0.285-1.145
			c1.436,0.117,0.348-0.291,0.572-0.861c0.115-0.291,1.26-0.574,1.146,0c0.27,1.166-1.662,0.883-0.861,1.721
			c-0.797-0.457-0.793,1.238-0.285,1.148c0.098-0.273,0.381-0.406,0.572-0.576c0.268-0.234,0.365-0.572,0.859-0.572
			c-0.521,0.516-0.053,0.666,0,1.148c0.004,0.016-0.34,0.012-0.285,0.285c-0.008-0.033,0.457,0.285,0,0.285
			c-0.426,0-0.264,0.732-0.285,1.148c-0.225,0.064-0.566,0.004-0.576,0.285c0.967-0.029,1.52-0.572,2.006,0.289
			c1.098,0.137,0.898-1.018,1.436-1.438c0.838,0.082,0.986-0.066,0.576-0.57c0.953,0.063,0.971-0.76,1.145-1.148
			c0.049-0.107,0.52-0.146,0.572-0.285c0.156-0.4-0.135-1.033,0.572-0.859c0.209-0.783-0.566-0.578-0.572-1.146
			c1.209,0.047-0.004-0.441,0-0.861c0.836,0.131,0.207-0.373,0.285-0.572c0.016-0.033,0.26,0.023,0.287,0
			c0.002,0,0.268-0.959,0.289-0.861c-0.014-0.047-0.469-0.016-0.289-0.289c0.352-0.029,0.68-0.082,0.572-0.568
			c-0.059-0.346-0.316-0.18-0.572,0c-0.156-0.511-0.146-1.192-0.572-1.435c0,0.157-0.234,0.324-0.287,0
			c-0.881,0.076-1.287,0.622-2.006,0.859c-0.645-0.652-1.85,0.314-2.58,0.289c-0.301-0.016-0.742-0.313-0.861-0.289
			c-0.186,0.039-0.316,0.83-0.857,0.574v-1.147c-1.123-0.165-1.664,0.248-2.295,0.573c-0.043-1.214-2.367-0.455-2.578,0
			c-1.328-0.729-3.318,0.038-4.301,0.574c-1.188-0.669-3.408-0.254-4.016,0.57c-0.152,0.418,0.336,1.484-0.285,1.438
			c-1.131,0.457-0.1-1.238-0.859-1.148c-0.037,0.916-1.281,0.635-1.723,1.148C95.205,111.893,94.213,112.18,94.395,112.805z
			 M113.6,118.255c-0.754,0.088-0.736-0.602-0.857-1.146C113.498,117.02,113.48,117.706,113.6,118.255z"/>
		<path fill="#F6921E" d="M87.514,216.868c0.217-0.186,0.695-0.641,0-1.146C87.199,216.167,87.387,216.973,87.514,216.868z"/>
		<path fill="#F6921E" d="M137.109,82.707c-1.143-0.088-1.555,0.555-1.436,1.723C137.156,84.657,137.521,83.601,137.109,82.707z"/>
		<path fill="#F6921E" d="M161.188,218.012h0.859v-0.857h-0.572C161.459,217.52,161.107,217.55,161.188,218.012z"/>
		<path fill="#F6921E" d="M129.943,74.107c0.465,0.068,0.971-0.092,1.43,0c0.027,0.007-0.023,0.271,0,0.288
			c0.215,0.148,0.885-0.046,1.148,0c0.018,0.001,0.104,0.241,0.285,0.284c0.195,0.05,0.588-0.097,0.572-0.284
			C132.451,74.339,130.395,73.337,129.943,74.107z"/>
		<path fill="#F6921E" d="M135.102,86.719c-0.064,1.082-1.082,1.218-1.146,2.296c0.924,0.445,0.98,2.195,2.293,1.433
			c0.09-1.195-0.076-2.006-0.285-2.579C135.793,87.405,135.719,86.463,135.102,86.719z"/>
		<path fill="#F6921E" d="M131.947,92.169c0.186,1.154-0.371,3.048,0.287,3.727c0.16-0.511,0.146-1.192,0.572-1.434
			c-0.08,0.355,0.107,0.795,0,1.146c-0.029,0.104-0.51,0.434-0.572,0.571c-0.223,0.513-1.17,1.067-0.287,1.723
			c0.068-0.508,0.494-0.654,1.148-0.573c-0.014,0.394,0.137,0.633,0.283,0.858c-0.375,0.295-1.057,0.283-1.434,0.574
			c-0.229,0.994,0.428,1.103,0.289,2.005c-0.783,0.028-0.576-0.476-1.148,0c-0.084,1.33,0.004,2.483,0.574,3.153h1.719
			c0.031,0.323-0.416,0.449,0,0.576c0.518-0.359,0.75-0.954,1.148-1.437c0.41-0.491,1.234-0.764,1.146-1.721
			c-0.541,0.064-0.633-0.321-1.146-0.285c-0.508,0.945,0.305,1.433-0.572,2.006c-0.229-0.534-0.479-1.051-0.576-1.721
			c0.936,0.441,0.213,0.089,0.289-0.285c0.021-0.108,0.816-0.787,0.859-0.861c0.371-0.596,0.736-1.258,0.859-1.721
			c-0.395-0.024-1.119-1.117-0.57-1.145c0.928-0.354,0.217,0.93,1.145,0.573c1.139-0.266,1.1-2.041,1.436-3.152
			c0.02-0.077,0.533-0.176,0.568-0.287c0.143-0.416,0.199-1.05,0.285-1.435c0.111-0.466,0.756-1.174,0-1.434
			c-0.059,0.321-0.314,0.446-0.568,0.574c-0.037,0.183,0.043,0.394,0,0.573c-0.037,0.139-0.295,0.316-0.285,0.285
			c-0.096,0.493,0.313,1.502-0.289,1.722c0.029-1.751,0.252-3.694-1.146-4.012c-0.162,0.411-0.449,0.695-0.861,0.856
			c-0.158,0.511-0.146,1.191-0.572,1.434c-0.693-0.271-1.529-0.029-2.006-0.285C132.35,92.649,132.541,91.865,131.947,92.169z"/>
	</g>
	<g>
		<g enable-background="new    ">
			<path fill="#F6921E" d="M0.848,17.52c0-8.374,4.708-17.52,14.085-17.52c3.357,0,8.528,1.428,8.528,5.596
				c0,2.238-1.543,3.512-3.975,3.512c-1.582,0,0.54-3.628-4.361-3.628C9.492,5.48,7.1,11.23,7.1,16.054
				c0,7.37,5.017,10.342,8.374,10.342c6.29,0,6.83-5.634,7.177-5.634c0.541,0,0.849,3.087,0.849,3.473
				c0,5.711-4.399,9.03-9.802,9.03C4.938,33.265,0.848,25.316,0.848,17.52z"/>
		</g>
		<g enable-background="new    ">
			<path fill="#F6921E" d="M25.587,20.299c0-6.213,2.971-12.889,9.686-12.889c6.715,0,9.686,6.676,9.686,12.889
				c0,9.069-5.248,12.967-9.686,12.967C30.835,33.265,25.587,29.368,25.587,20.299z M40.173,19.335c0-3.049-1.08-7.371-4.901-7.371
				c-3.82,0-4.9,4.322-4.9,7.371c0,3.087,1.003,7.486,4.9,7.486C39.17,26.821,40.173,22.422,40.173,19.335z"/>
		</g>
		<g enable-background="new    ">
			<path fill="#F6921E" d="M59.47,32.686c-0.501,0-1.351,0.116-1.351-0.617c0-0.386,1.968-5.519,1.968-13.353
				c0-2.739-0.232-6.174-2.856-6.174c-1.466,0-4.476,0.965-4.476,8.605c0,4.631,1.119,10.573,1.119,11.036
				c0,0.541-0.656,0.502-1.042,0.502h-3.28c-1.428,0-2.007,0.656-2.007-9.531c0-17.481,1.351-16.4,4.322-16.4
				c1.351,0,2.74-0.193,2.74,0.694c0,0.386-0.347,0.849-0.347,1.389c0,0.386,0.193,0.733,0.579,0.733
				c0.656,0,2.431-1.582,4.901-1.582c1.081,0,5.557,0.154,5.557,10.304c0,15.165-1.196,14.394-2.508,14.394H59.47z"/>
		</g>
		<g enable-background="new    ">
			<path fill="#F6921E" d="M77.877,3.166c0,1.041-1.158,3.396-1.158,3.858c0,0.694,0.193,1.158,0.771,1.158
				c0.502,0,0.965-0.193,1.467-0.193c1.466,0,1.505,1.042,1.505,2.354c0,0.541,0,2.007-0.811,2.007
				c-0.309,0-1.081-0.347-1.775-0.347c-2.123,0-2.123,2.47-2.123,5.904c0,10.265,2.161,11.962,2.161,12.618
				c0,0.579-4.477,2.74-5.364,2.74c-1.466,0-1.852-8.605-1.852-10.729c0-4.746,0.231-6.599,0.231-7.332
				c0-1.157,0.347-3.202-1.389-3.202c-0.695,0-1.081,0.463-1.505,0.463c-0.502,0-0.463-0.502-0.463-1.196
				c0-2.933,0.849-3.28,2.315-3.28c0.154,0,0.425,0.154,0.733,0.154c1.196,0,1.312-1.891,1.505-3.241
				c0.193-1.467,4.515-2.547,5.287-2.547C77.685,2.355,77.877,2.432,77.877,3.166z"/>
		</g>
		<g enable-background="new    ">
			<path fill="#F6921E" d="M91.461,16.634c1.119-0.193,2.008-0.387,2.008-1.66c0-1.968-2.045-3.01-3.744-3.01
				c-3.936,0-3.357,3.318-4.206,3.318c-1.235,0-2.585-1.505-2.585-3.164c0-2.855,3.203-4.708,6.754-4.708
				c1.234,0,6.521-0.038,8.488,5.364c0.811,2.238,0.889,13.66,0.889,15.012c0,1.697,0.309,2.701,0.309,4.013
				c0,0.811-3.627,0.888-7.063,0.888c-9.3,0-9.956-4.785-9.956-7.101C82.354,20.723,87.141,17.366,91.461,16.634z M93.854,23.386
				c0-1.351,0.232-2.972-1.619-2.972c-2.277,0-4.67,1.93-4.67,4.283c0,2.161,1.891,3.435,3.936,3.435
				c2.277,0,2.354-1.157,2.354-3.049V23.386z"/>
		</g>
		<g enable-background="new    ">
			<path fill="#F6921E" d="M101.961,21.573c0-6.638,3.357-14.163,10.959-14.163c3.357,0,5.789,1.813,5.789,4.014
				c0,1.157-0.85,3.396-2.277,3.396c-0.887,0-0.732-2.855-3.859-2.855c-3.975,0-5.402,5.248-5.402,8.49
				c0,3.743,1.775,6.868,5.441,6.868c4.168,0,5.133-3.82,5.48-3.82c0.193,0,0.578,0.695,0.578,2.277
				c0,4.631-3.049,7.486-7.602,7.486C104.662,33.265,101.961,27.207,101.961,21.573z"/>
		</g>
		<g enable-background="new    ">
			<path fill="#F6921E" d="M130.789,3.166c0,1.041-1.158,3.396-1.158,3.858c0,0.694,0.193,1.158,0.771,1.158
				c0.502,0,0.965-0.193,1.467-0.193c1.467,0,1.506,1.042,1.506,2.354c0,0.541,0,2.007-0.811,2.007
				c-0.309,0-1.082-0.347-1.775-0.347c-2.123,0-2.123,2.47-2.123,5.904c0,10.265,2.162,11.962,2.162,12.618
				c0,0.579-4.477,2.74-5.365,2.74c-1.467,0-1.852-8.605-1.852-10.729c0-4.746,0.23-6.599,0.23-7.332
				c0-1.157,0.348-3.202-1.389-3.202c-0.695,0-1.08,0.463-1.504,0.463c-0.502,0-0.465-0.502-0.465-1.196
				c0-2.933,0.85-3.28,2.316-3.28c0.154,0,0.424,0.154,0.732,0.154c1.197,0,1.313-1.891,1.506-3.241
				c0.193-1.467,4.516-2.547,5.287-2.547C130.596,2.355,130.789,2.432,130.789,3.166z"/>
		</g>
		<g enable-background="new    ">
			<path fill="none" stroke="#F6921E" stroke-width="1.4439" stroke-miterlimit="10" d="M3.782,78.998
				c-1.312,0-2.123,1.234-2.123-10.188c0-16.246-0.501-15.744,4.747-15.744c0.811,0,1.66,0.038,1.66,0.617
				c0,0.463-0.463,1.196-0.463,1.736c0,0.386,0.386,0.656,0.772,0.656c0.463,0,1.003-0.463,1.852-0.888
				c0.849-0.463,2.007-0.888,3.627-0.888c1.891,0,3.126,1.775,4.091,1.775c0.54,0,1.312-0.116,2.276-0.695
				c0.965-0.54,2.161-1.08,3.55-1.08c7.101,0,6.946,9.3,6.946,14.239c0,11.771-1.466,10.458-2.585,10.458h-2.624
				c-0.386,0-1.466,0.077-1.466-0.617c0-0.695,1.466-4.939,1.466-11.384c0-7.371-2.624-8.143-4.091-8.143
				c-1.351,0-2.624-0.116-2.624,6.251c0,13.854-0.193,13.893-1.428,13.893h-3.473c-0.733,0-1.351,0.154-1.351-0.386
				c0-0.579,1.466-8.336,1.466-12.002c0-2.314,0-7.756-3.164-7.756c-2.894,0-3.975,3.55-3.975,9.3c0,7.757,1.081,9.223,1.081,10.304
				c0,0.656-0.695,0.54-1.119,0.54H3.782z"/>
		</g>
		<g enable-background="new    ">
			<path fill="none" stroke="#F6921E" stroke-width="1.4439" stroke-miterlimit="10" d="M33.305,67.691
				c0-9.339,5.171-13.97,10.342-13.97c4.245,0,7.833,2.393,7.833,6.946c0,8.297-12.426,6.561-12.426,10.573
				c0,1.814,2.933,3.126,4.862,3.126c6.329,0,6.329-4.823,6.869-4.823c0.579,0,0.694,2.006,0.694,2.315
				c0,4.9-3.782,7.718-8.412,7.718C36.16,79.577,33.305,73.865,33.305,67.691z M38.514,63.871c0,0.425,0.193,0.849,0.694,0.849
				c0.463,0,7.487-1.543,7.487-3.512c0-1.891-1.775-2.933-3.242-2.933C40.328,58.275,38.514,61.633,38.514,63.871z"/>
		</g>
	</g>
</g>
</svg>
