<?xml version="1.0" encoding="utf-8"?>
<!-- Generator: Adobe Illustrator 15.0.0, SVG Export Plug-In . SVG Version: 6.00 Build 0)  -->
<!DOCTYPE svg PUBLIC "-//W3C//DTD SVG 1.1//EN" "http://www.w3.org/Graphics/SVG/1.1/DTD/svg11.dtd">
<svg version="1.1" id="Layer_1" xmlns="http://www.w3.org/2000/svg" xmlns:xlink="http://www.w3.org/1999/xlink" x="0px" y="0px"
	 width="1200.572px" height="60.739px" viewBox="0 0 1200.572 60.739" enable-background="new 0 0 1200.572 60.739"
	 xml:space="preserve">
<g>
	<g>
		<path fill="none" stroke="#FFE4C4" stroke-width="0.2781" stroke-linecap="round" stroke-linejoin="round" d="M1185.937,15.746
			l14.349,26.489l-4.967,2.76l-9.382-17.108l-9.382,17.108l-4.967-2.76L1185.937,15.746z"/>
		<path fill="none" stroke="#FFE4C4" stroke-width="0.2781" stroke-linecap="round" stroke-linejoin="round" d="M1171.59,42.235
			l14.349-26.489l4.967,2.759l-9.934,17.66h19.314l-4.967,8.83L1171.59,42.235z"/>
		<path fill="none" stroke="#FFE4C4" stroke-width="0.2781" stroke-linecap="round" stroke-linejoin="round" d="M1176.555,44.995
			h18.764l-9.382-17.108l4.967-9.382l9.382,23.729h-28.696L1176.555,44.995z"/>
	</g>
	<g>
		<path fill="none" stroke="#FFE4C4" stroke-width="0.2781" stroke-linecap="round" stroke-linejoin="round" d="M1152.536,15.746
			l14.349,26.489l-4.967,2.76l-9.382-17.108l-9.382,17.108l-4.967-2.76L1152.536,15.746z"/>
		<path fill="none" stroke="#FFE4C4" stroke-width="0.2781" stroke-linecap="round" stroke-linejoin="round" d="M1138.187,42.235
			l14.349-26.489l4.967,2.759l-9.934,17.66h19.314l-4.967,8.83L1138.187,42.235z"/>
		<path fill="none" stroke="#FFE4C4" stroke-width="0.2781" stroke-linecap="round" stroke-linejoin="round" d="M1143.154,44.995
			h18.764l-9.382-17.108l4.967-9.382l9.382,23.729h-28.696L1143.154,44.995z"/>
	</g>
	<g>
		<path fill="none" stroke="#FFE4C4" stroke-width="0.2781" stroke-linecap="round" stroke-linejoin="round" d="M1119.134,15.746
			l14.349,26.489l-4.967,2.76l-9.382-17.108l-9.382,17.108l-4.967-2.76L1119.134,15.746z"/>
		<path fill="none" stroke="#FFE4C4" stroke-width="0.2781" stroke-linecap="round" stroke-linejoin="round" d="M1104.786,42.235
			l14.349-26.489l4.966,2.759l-9.933,17.66h19.313l-4.967,8.83L1104.786,42.235z"/>
		<path fill="none" stroke="#FFE4C4" stroke-width="0.2781" stroke-linecap="round" stroke-linejoin="round" d="M1109.753,44.995
			h18.763l-9.381-17.108l4.966-9.382l9.382,23.729h-28.695L1109.753,44.995z"/>
	</g>
	<g>
		<path fill="none" stroke="#FFE4C4" stroke-width="0.2781" stroke-linecap="round" stroke-linejoin="round" d="M1085.732,15.746
			l14.349,26.489l-4.967,2.76l-9.382-17.108l-9.382,17.108l-4.967-2.76L1085.732,15.746z"/>
		<path fill="none" stroke="#FFE4C4" stroke-width="0.2781" stroke-linecap="round" stroke-linejoin="round" d="M1071.384,42.235
			l14.349-26.489l4.967,2.759l-9.934,17.66h19.314l-4.967,8.83L1071.384,42.235z"/>
		<path fill="none" stroke="#FFE4C4" stroke-width="0.2781" stroke-linecap="round" stroke-linejoin="round" d="M1076.35,44.995
			h18.764l-9.382-17.108l4.967-9.382l9.382,23.729h-28.696L1076.35,44.995z"/>
	</g>
	<g>
		<path fill="none" stroke="#FFE4C4" stroke-width="0.2781" stroke-linecap="round" stroke-linejoin="round" d="M1052.33,15.746
			l14.349,26.489l-4.967,2.76l-9.382-17.108l-9.381,17.108l-4.968-2.76L1052.33,15.746z"/>
		<path fill="none" stroke="#FFE4C4" stroke-width="0.2781" stroke-linecap="round" stroke-linejoin="round" d="M1037.982,42.235
			l14.349-26.489l4.967,2.759l-9.934,17.66h19.314l-4.967,8.83L1037.982,42.235z"/>
		<path fill="none" stroke="#FFE4C4" stroke-width="0.2781" stroke-linecap="round" stroke-linejoin="round" d="M1042.949,44.995
			h18.764l-9.382-17.108l4.967-9.382l9.382,23.729h-28.696L1042.949,44.995z"/>
	</g>
	<g>
		<path fill="none" stroke="#FFE4C4" stroke-width="0.2781" stroke-linecap="round" stroke-linejoin="round" d="M1018.928,15.746
			l14.349,26.489l-4.967,2.76l-9.382-17.108l-9.382,17.108l-4.968-2.76L1018.928,15.746z"/>
		<path fill="none" stroke="#FFE4C4" stroke-width="0.2781" stroke-linecap="round" stroke-linejoin="round" d="M1004.58,42.235
			l14.349-26.489l4.967,2.759l-9.934,17.66h19.314l-4.967,8.83L1004.58,42.235z"/>
		<path fill="none" stroke="#FFE4C4" stroke-width="0.2781" stroke-linecap="round" stroke-linejoin="round" d="M1009.547,44.995
			h18.764l-9.382-17.108l4.967-9.382l9.382,23.729h-28.697L1009.547,44.995z"/>
	</g>
	<g>
		<path fill="none" stroke="#FFE4C4" stroke-width="0.2781" stroke-linecap="round" stroke-linejoin="round" d="M985.527,15.746
			l14.348,26.489l-4.966,2.76l-9.382-17.108l-9.382,17.108l-4.968-2.76L985.527,15.746z"/>
		<path fill="none" stroke="#FFE4C4" stroke-width="0.2781" stroke-linecap="round" stroke-linejoin="round" d="M971.177,42.235
			l14.35-26.489l4.967,2.759l-9.934,17.66h19.313l-4.967,8.83L971.177,42.235z"/>
		<path fill="none" stroke="#FFE4C4" stroke-width="0.2781" stroke-linecap="round" stroke-linejoin="round" d="M976.145,44.995
			h18.764l-9.382-17.108l4.967-9.382l9.381,23.729h-28.696L976.145,44.995z"/>
	</g>
	<g>
		<path fill="none" stroke="#FFE4C4" stroke-width="0.2781" stroke-linecap="round" stroke-linejoin="round" d="M952.125,15.746
			l14.349,26.489l-4.967,2.76l-9.382-17.108l-9.382,17.108l-4.967-2.76L952.125,15.746z"/>
		<path fill="none" stroke="#FFE4C4" stroke-width="0.2781" stroke-linecap="round" stroke-linejoin="round" d="M937.776,42.235
			l14.349-26.489l4.967,2.759l-9.934,17.66h19.314l-4.967,8.83L937.776,42.235z"/>
		<path fill="none" stroke="#FFE4C4" stroke-width="0.2781" stroke-linecap="round" stroke-linejoin="round" d="M942.743,44.995
			h18.764l-9.382-17.108l4.967-9.382l9.382,23.729h-28.696L942.743,44.995z"/>
	</g>
	<g>
		<path fill="none" stroke="#FFE4C4" stroke-width="0.2781" stroke-linecap="round" stroke-linejoin="round" d="M918.722,15.746
			l14.35,26.489l-4.968,2.76l-9.382-17.108l-9.382,17.108l-4.967-2.76L918.722,15.746z"/>
		<path fill="none" stroke="#FFE4C4" stroke-width="0.2781" stroke-linecap="round" stroke-linejoin="round" d="M904.374,42.235
			l14.349-26.489l4.967,2.759l-9.934,17.66h19.314l-4.967,8.83L904.374,42.235z"/>
		<path fill="none" stroke="#FFE4C4" stroke-width="0.2781" stroke-linecap="round" stroke-linejoin="round" d="M909.341,44.995
			h18.764l-9.382-17.108l4.967-9.382l9.383,23.729h-28.697L909.341,44.995z"/>
	</g>
	<g>
		<path fill="none" stroke="#FFE4C4" stroke-width="0.2781" stroke-linecap="round" stroke-linejoin="round" d="M885.32,15.746
			l14.349,26.489l-4.967,2.76l-9.381-17.108l-9.383,17.108l-4.967-2.76L885.32,15.746z"/>
		<path fill="none" stroke="#FFE4C4" stroke-width="0.2781" stroke-linecap="round" stroke-linejoin="round" d="M870.971,42.235
			l14.35-26.489l4.966,2.759l-9.934,17.66h19.315l-4.967,8.83L870.971,42.235z"/>
		<path fill="none" stroke="#FFE4C4" stroke-width="0.2781" stroke-linecap="round" stroke-linejoin="round" d="M875.938,44.995
			h18.763l-9.381-17.108l4.967-9.382l9.382,23.729h-28.696L875.938,44.995z"/>
	</g>
	<g>
		<path fill="none" stroke="#FFE4C4" stroke-width="0.2781" stroke-linecap="round" stroke-linejoin="round" d="M851.918,15.746
			l14.35,26.489l-4.967,2.76l-9.383-17.108l-9.382,17.108l-4.966-2.76L851.918,15.746z"/>
		<path fill="none" stroke="#FFE4C4" stroke-width="0.2781" stroke-linecap="round" stroke-linejoin="round" d="M837.57,42.235
			l14.349-26.489l4.968,2.759l-9.935,17.66h19.314l-4.966,8.83L837.57,42.235z"/>
		<path fill="none" stroke="#FFE4C4" stroke-width="0.2781" stroke-linecap="round" stroke-linejoin="round" d="M842.536,44.995
			h18.765l-9.382-17.108l4.967-9.382l9.382,23.729H837.57L842.536,44.995z"/>
	</g>
	<g>
		<path fill="none" stroke="#FFE4C4" stroke-width="0.2781" stroke-linecap="round" stroke-linejoin="round" d="M818.516,15.746
			l14.349,26.489l-4.967,2.76l-9.382-17.108l-9.382,17.108l-4.967-2.76L818.516,15.746z"/>
		<path fill="none" stroke="#FFE4C4" stroke-width="0.2781" stroke-linecap="round" stroke-linejoin="round" d="M804.168,42.235
			l14.349-26.489l4.968,2.759l-9.935,17.66h19.315l-4.967,8.83L804.168,42.235z"/>
		<path fill="none" stroke="#FFE4C4" stroke-width="0.2781" stroke-linecap="round" stroke-linejoin="round" d="M809.135,44.995
			h18.764l-9.383-17.108l4.968-9.382l9.382,23.729h-28.697L809.135,44.995z"/>
	</g>
	<g>
		<path fill="none" stroke="#FFE4C4" stroke-width="0.2781" stroke-linecap="round" stroke-linejoin="round" d="M785.115,15.746
			l14.349,26.489l-4.967,2.76l-9.382-17.108l-9.382,17.108l-4.967-2.76L785.115,15.746z"/>
		<path fill="none" stroke="#FFE4C4" stroke-width="0.2781" stroke-linecap="round" stroke-linejoin="round" d="M770.766,42.235
			l14.349-26.489l4.967,2.759l-9.935,17.66h19.315l-4.967,8.83L770.766,42.235z"/>
		<path fill="none" stroke="#FFE4C4" stroke-width="0.2781" stroke-linecap="round" stroke-linejoin="round" d="M775.733,44.995
			h18.763l-9.381-17.108l4.967-9.382l9.382,23.729h-28.697L775.733,44.995z"/>
	</g>
	<g>
		<path fill="none" stroke="#FFE4C4" stroke-width="0.2781" stroke-linecap="round" stroke-linejoin="round" d="M751.713,15.746
			l14.349,26.489l-4.967,2.76l-9.382-17.108l-9.382,17.108l-4.967-2.76L751.713,15.746z"/>
		<path fill="none" stroke="#FFE4C4" stroke-width="0.2781" stroke-linecap="round" stroke-linejoin="round" d="M737.365,42.235
			l14.349-26.489l4.967,2.759l-9.934,17.66h19.314l-4.967,8.83L737.365,42.235z"/>
		<path fill="none" stroke="#FFE4C4" stroke-width="0.2781" stroke-linecap="round" stroke-linejoin="round" d="M742.332,44.995
			h18.763l-9.381-17.108l4.967-9.382l9.382,23.729h-28.696L742.332,44.995z"/>
	</g>
	<g>
		<path fill="none" stroke="#FFE4C4" stroke-width="0.2781" stroke-linecap="round" stroke-linejoin="round" d="M718.311,15.746
			l14.349,26.489l-4.967,2.76l-9.382-17.108l-9.382,17.108l-4.967-2.76L718.311,15.746z"/>
		<path fill="none" stroke="#FFE4C4" stroke-width="0.2781" stroke-linecap="round" stroke-linejoin="round" d="M703.963,42.235
			l14.349-26.489l4.967,2.759l-9.934,17.66h19.314l-4.967,8.83L703.963,42.235z"/>
		<path fill="none" stroke="#FFE4C4" stroke-width="0.2781" stroke-linecap="round" stroke-linejoin="round" d="M708.929,44.995
			h18.764l-9.382-17.108l4.967-9.382l9.381,23.729h-28.696L708.929,44.995z"/>
	</g>
	<g>
		<path fill="none" stroke="#FFE4C4" stroke-width="0.2781" stroke-linecap="round" stroke-linejoin="round" d="M684.91,15.746
			l14.349,26.489l-4.967,2.76l-9.382-17.108l-9.382,17.108l-4.967-2.76L684.91,15.746z"/>
		<path fill="none" stroke="#FFE4C4" stroke-width="0.2781" stroke-linecap="round" stroke-linejoin="round" d="M670.561,42.235
			l14.349-26.489l4.967,2.759l-9.934,17.66h19.314l-4.967,8.83L670.561,42.235z"/>
		<path fill="none" stroke="#FFE4C4" stroke-width="0.2781" stroke-linecap="round" stroke-linejoin="round" d="M675.528,44.995
			h18.764l-9.382-17.108l4.967-9.382l9.381,23.729h-28.696L675.528,44.995z"/>
	</g>
	<g>
		<path fill="none" stroke="#FFE4C4" stroke-width="0.2781" stroke-linecap="round" stroke-linejoin="round" d="M651.508,15.746
			l14.349,26.489l-4.967,2.76l-9.382-17.108l-9.381,17.108l-4.968-2.76L651.508,15.746z"/>
		<path fill="none" stroke="#FFE4C4" stroke-width="0.2781" stroke-linecap="round" stroke-linejoin="round" d="M637.16,42.235
			l14.349-26.489l4.966,2.759l-9.933,17.66h19.314l-4.967,8.83L637.16,42.235z"/>
		<path fill="none" stroke="#FFE4C4" stroke-width="0.2781" stroke-linecap="round" stroke-linejoin="round" d="M642.127,44.995
			h18.763l-9.382-17.108l4.967-9.382l9.382,23.729H637.16L642.127,44.995z"/>
	</g>
	<g>
		<path fill="none" stroke="#FFE4C4" stroke-width="0.2781" stroke-linecap="round" stroke-linejoin="round" d="M618.106,15.746
			l14.349,26.489l-4.967,2.76l-9.382-17.108l-9.382,17.107l-4.966-2.76L618.106,15.746z"/>
		<path fill="none" stroke="#FFE4C4" stroke-width="0.2781" stroke-linecap="round" stroke-linejoin="round" d="M603.759,42.235
			l14.348-26.489l4.967,2.759l-9.934,17.66h19.314l-4.966,8.83L603.759,42.235z"/>
		<path fill="none" stroke="#FFE4C4" stroke-width="0.2781" stroke-linecap="round" stroke-linejoin="round" d="M608.724,44.995
			h18.764l-9.382-17.108l4.967-9.382l9.382,23.729h-28.696L608.724,44.995z"/>
	</g>
	<g>
		<path fill="none" stroke="#FFE4C4" stroke-width="0.2781" stroke-linecap="round" stroke-linejoin="round" d="M584.705,15.746
			l14.349,26.489l-4.967,2.76l-9.382-17.108l-9.382,17.108l-4.967-2.76L584.705,15.746z"/>
		<path fill="none" stroke="#FFE4C4" stroke-width="0.2781" stroke-linecap="round" stroke-linejoin="round" d="M570.357,42.235
			l14.349-26.489l4.966,2.759l-9.934,17.66h19.314l-4.967,8.83L570.357,42.235z"/>
		<path fill="none" stroke="#FFE4C4" stroke-width="0.2781" stroke-linecap="round" stroke-linejoin="round" d="M575.323,44.995
			h18.764l-9.382-17.108l4.967-9.382l9.382,23.729h-28.696L575.323,44.995z"/>
	</g>
	<g>
		<path fill="none" stroke="#FFE4C4" stroke-width="0.2781" stroke-linecap="round" stroke-linejoin="round" d="M551.303,15.746
			l14.348,26.489l-4.966,2.76l-9.382-17.108l-9.382,17.108l-4.966-2.76L551.303,15.746z"/>
		<path fill="none" stroke="#FFE4C4" stroke-width="0.2781" stroke-linecap="round" stroke-linejoin="round" d="M536.955,42.235
			l14.349-26.489l4.967,2.759l-9.935,17.66h19.315l-4.966,8.83L536.955,42.235z"/>
		<path fill="none" stroke="#FFE4C4" stroke-width="0.2781" stroke-linecap="round" stroke-linejoin="round" d="M541.922,44.995
			h18.764l-9.382-17.108l4.967-9.382l9.381,23.729h-28.696L541.922,44.995z"/>
	</g>
	<g>
		<path fill="none" stroke="#FFE4C4" stroke-width="0.2781" stroke-linecap="round" stroke-linejoin="round" d="M517.901,15.746
			l14.349,26.489l-4.967,2.76l-9.382-17.108l-9.382,17.108l-4.966-2.76L517.901,15.746z"/>
		<path fill="none" stroke="#FFE4C4" stroke-width="0.2781" stroke-linecap="round" stroke-linejoin="round" d="M503.553,42.235
			l14.348-26.489l4.967,2.759l-9.934,17.66h19.314l-4.967,8.83L503.553,42.235z"/>
		<path fill="none" stroke="#FFE4C4" stroke-width="0.2781" stroke-linecap="round" stroke-linejoin="round" d="M508.519,44.995
			h18.764l-9.382-17.108l4.967-9.382l9.382,23.729h-28.696L508.519,44.995z"/>
	</g>
	<g>
		<path fill="none" stroke="#FFE4C4" stroke-width="0.2781" stroke-linecap="round" stroke-linejoin="round" d="M484.499,15.746
			l14.349,26.489l-4.967,2.76l-9.382-17.108l-9.381,17.108l-4.967-2.76L484.499,15.746z"/>
		<path fill="none" stroke="#FFE4C4" stroke-width="0.2781" stroke-linecap="round" stroke-linejoin="round" d="M470.151,42.235
			L484.5,15.746l4.967,2.759l-9.933,17.66h19.314l-4.967,8.83L470.151,42.235z"/>
		<path fill="none" stroke="#FFE4C4" stroke-width="0.2781" stroke-linecap="round" stroke-linejoin="round" d="M475.118,44.995
			h18.763l-9.382-17.108l4.967-9.382l9.382,23.729h-28.696L475.118,44.995z"/>
	</g>
	<g>
		<path fill="none" stroke="#FFE4C4" stroke-width="0.2781" stroke-linecap="round" stroke-linejoin="round" d="M451.097,15.746
			l14.349,26.489l-4.967,2.76l-9.382-17.108l-9.382,17.108l-4.967-2.76L451.097,15.746z"/>
		<path fill="none" stroke="#FFE4C4" stroke-width="0.2781" stroke-linecap="round" stroke-linejoin="round" d="M436.749,42.235
			l14.349-26.489l4.967,2.759l-9.934,17.66h19.314l-4.967,8.83L436.749,42.235z"/>
		<path fill="none" stroke="#FFE4C4" stroke-width="0.2781" stroke-linecap="round" stroke-linejoin="round" d="M441.716,44.995
			h18.764l-9.382-17.108l4.967-9.382l9.382,23.729H436.75L441.716,44.995z"/>
	</g>
	<g>
		<path fill="none" stroke="#FFE4C4" stroke-width="0.2781" stroke-linecap="round" stroke-linejoin="round" d="M417.696,15.746
			l14.348,26.489l-4.966,2.76l-9.382-17.108l-9.382,17.108l-4.967-2.76L417.696,15.746z"/>
		<path fill="none" stroke="#FFE4C4" stroke-width="0.2781" stroke-linecap="round" stroke-linejoin="round" d="M403.347,42.235
			l14.349-26.489l4.967,2.759l-9.934,17.66h19.314l-4.966,8.83L403.347,42.235z"/>
		<path fill="none" stroke="#FFE4C4" stroke-width="0.2781" stroke-linecap="round" stroke-linejoin="round" d="M408.313,44.995
			h18.764l-9.382-17.108l4.967-9.382l9.381,23.729h-28.696L408.313,44.995z"/>
	</g>
	<g>
		<path fill="none" stroke="#FFE4C4" stroke-width="0.2781" stroke-linecap="round" stroke-linejoin="round" d="M384.294,15.746
			l14.349,26.489l-4.967,2.76l-9.382-17.108l-9.382,17.108l-4.967-2.76L384.294,15.746z"/>
		<path fill="none" stroke="#FFE4C4" stroke-width="0.2781" stroke-linecap="round" stroke-linejoin="round" d="M369.945,42.235
			l14.349-26.489l4.967,2.759l-9.934,17.66h19.314l-4.967,8.83L369.945,42.235z"/>
		<path fill="none" stroke="#FFE4C4" stroke-width="0.2781" stroke-linecap="round" stroke-linejoin="round" d="M374.912,44.995
			h18.763l-9.382-17.108l4.967-9.382l9.381,23.729h-28.697L374.912,44.995z"/>
	</g>
	<g>
		<path fill="none" stroke="#FFE4C4" stroke-width="0.2781" stroke-linecap="round" stroke-linejoin="round" d="M350.892,15.746
			l14.348,26.489l-4.967,2.76l-9.381-17.108l-9.382,17.108l-4.967-2.76L350.892,15.746z"/>
		<path fill="none" stroke="#FFE4C4" stroke-width="0.2781" stroke-linecap="round" stroke-linejoin="round" d="M336.543,42.235
			l14.349-26.489l4.966,2.759l-9.934,17.66h19.314l-4.967,8.83L336.543,42.235z"/>
		<path fill="none" stroke="#FFE4C4" stroke-width="0.2781" stroke-linecap="round" stroke-linejoin="round" d="M341.51,44.995
			h18.764l-9.381-17.108l4.966-9.382l9.382,23.729h-28.696L341.51,44.995z"/>
	</g>
	<g>
		<path fill="none" stroke="#FFE4C4" stroke-width="0.2781" stroke-linecap="round" stroke-linejoin="round" d="M317.49,15.746
			l14.349,26.489l-4.967,2.76l-9.382-17.108l-9.382,17.108l-4.966-2.76L317.49,15.746z"/>
		<path fill="none" stroke="#FFE4C4" stroke-width="0.2781" stroke-linecap="round" stroke-linejoin="round" d="M303.141,42.235
			l14.349-26.489l4.967,2.759l-9.934,17.66h19.315l-4.967,8.83L303.141,42.235z"/>
		<path fill="none" stroke="#FFE4C4" stroke-width="0.2781" stroke-linecap="round" stroke-linejoin="round" d="M308.108,44.995
			h18.764l-9.381-17.108l4.967-9.382l9.382,23.729h-28.697L308.108,44.995z"/>
	</g>
	<g>
		<path fill="none" stroke="#FFE4C4" stroke-width="0.2781" stroke-linecap="round" stroke-linejoin="round" d="M284.088,15.746
			l14.349,26.489l-4.967,2.76l-9.381-17.108l-9.382,17.108l-4.966-2.76L284.088,15.746z"/>
		<path fill="none" stroke="#FFE4C4" stroke-width="0.2781" stroke-linecap="round" stroke-linejoin="round" d="M269.74,42.235
			l14.349-26.489l4.967,2.759l-9.934,17.66h19.315l-4.967,8.83L269.74,42.235z"/>
		<path fill="none" stroke="#FFE4C4" stroke-width="0.2781" stroke-linecap="round" stroke-linejoin="round" d="M274.706,44.995
			h18.763l-9.381-17.108l4.967-9.382l9.382,23.729H269.74L274.706,44.995z"/>
	</g>
	<g>
		<path fill="none" stroke="#FFE4C4" stroke-width="0.2781" stroke-linecap="round" stroke-linejoin="round" d="M250.686,15.746
			l14.349,26.489l-4.967,2.76l-9.382-17.108l-9.382,17.108l-4.967-2.76L250.686,15.746z"/>
		<path fill="none" stroke="#FFE4C4" stroke-width="0.2781" stroke-linecap="round" stroke-linejoin="round" d="M236.338,42.235
			l14.349-26.489l4.967,2.759l-9.934,17.66h19.315l-4.967,8.83L236.338,42.235z"/>
		<path fill="none" stroke="#FFE4C4" stroke-width="0.2781" stroke-linecap="round" stroke-linejoin="round" d="M241.304,44.995
			h18.764l-9.382-17.108l4.967-9.382l9.382,23.729h-28.697L241.304,44.995z"/>
	</g>
	<g>
		<path fill="none" stroke="#FFE4C4" stroke-width="0.2781" stroke-linecap="round" stroke-linejoin="round" d="M217.284,15.746
			l14.349,26.489l-4.967,2.76l-9.382-17.108l-9.382,17.108l-4.967-2.76L217.284,15.746z"/>
		<path fill="none" stroke="#FFE4C4" stroke-width="0.2781" stroke-linecap="round" stroke-linejoin="round" d="M202.936,42.235
			l14.35-26.489l4.966,2.759l-9.934,17.66h19.315l-4.967,8.83L202.936,42.235z"/>
		<path fill="none" stroke="#FFE4C4" stroke-width="0.2781" stroke-linecap="round" stroke-linejoin="round" d="M207.903,44.995
			h18.764l-9.381-17.108l4.966-9.382l9.382,23.729h-28.697L207.903,44.995z"/>
	</g>
	<g>
		<path fill="none" stroke="#FFE4C4" stroke-width="0.2781" stroke-linecap="round" stroke-linejoin="round" d="M183.882,15.746
			l14.349,26.489l-4.966,2.76l-9.382-17.108l-9.382,17.108l-4.966-2.76L183.882,15.746z"/>
		<path fill="none" stroke="#FFE4C4" stroke-width="0.2781" stroke-linecap="round" stroke-linejoin="round" d="M169.534,42.235
			l14.348-26.489l4.967,2.759l-9.935,17.66h19.315l-4.966,8.83L169.534,42.235z"/>
		<path fill="none" stroke="#FFE4C4" stroke-width="0.2781" stroke-linecap="round" stroke-linejoin="round" d="M174.5,44.995
			h18.764l-9.382-17.108l4.967-9.382l9.381,23.729h-28.696L174.5,44.995z"/>
	</g>
	<g>
		<path fill="none" stroke="#FFE4C4" stroke-width="0.2781" stroke-linecap="round" stroke-linejoin="round" d="M150.481,15.746
			l14.349,26.489l-4.967,2.76l-9.382-17.108l-9.381,17.108l-4.967-2.76L150.481,15.746z"/>
		<path fill="none" stroke="#FFE4C4" stroke-width="0.2781" stroke-linecap="round" stroke-linejoin="round" d="M136.133,42.235
			l14.348-26.489l4.967,2.759l-9.934,17.66h19.314l-4.967,8.83L136.133,42.235z"/>
		<path fill="none" stroke="#FFE4C4" stroke-width="0.2781" stroke-linecap="round" stroke-linejoin="round" d="M141.099,44.995
			h18.764l-9.382-17.108l4.967-9.382l9.382,23.729h-28.696L141.099,44.995z"/>
	</g>
	<g>
		<path fill="none" stroke="#FFE4C4" stroke-width="0.2781" stroke-linecap="round" stroke-linejoin="round" d="M117.079,15.746
			l14.349,26.489l-4.968,2.76l-9.381-17.108l-9.382,17.108l-4.967-2.76L117.079,15.746z"/>
		<path fill="none" stroke="#FFE4C4" stroke-width="0.2781" stroke-linecap="round" stroke-linejoin="round" d="M102.731,42.235
			l14.348-26.489l4.968,2.759l-9.934,17.66h19.315l-4.968,8.83L102.731,42.235z"/>
		<path fill="none" stroke="#FFE4C4" stroke-width="0.2781" stroke-linecap="round" stroke-linejoin="round" d="M107.697,44.995
			h18.764l-9.382-17.108l4.967-9.382l9.381,23.729h-28.697L107.697,44.995z"/>
	</g>
	<g>
		<path fill="none" stroke="#FFE4C4" stroke-width="0.2781" stroke-linecap="round" stroke-linejoin="round" d="M83.677,15.746
			l14.349,26.489l-4.967,2.76l-9.381-17.108l-9.382,17.108l-4.967-2.76L83.677,15.746z"/>
		<path fill="none" stroke="#FFE4C4" stroke-width="0.2781" stroke-linecap="round" stroke-linejoin="round" d="M69.328,42.235
			l14.349-26.489l4.967,2.759l-9.934,17.66h19.315l-4.967,8.83L69.328,42.235z"/>
		<path fill="none" stroke="#FFE4C4" stroke-width="0.2781" stroke-linecap="round" stroke-linejoin="round" d="M74.296,44.995
			h18.764l-9.382-17.108l4.967-9.382l9.381,23.729H69.329L74.296,44.995z"/>
	</g>
	<g>
		<path fill="none" stroke="#FFE4C4" stroke-width="0.2781" stroke-linecap="round" stroke-linejoin="round" d="M50.276,15.746
			l14.349,26.489l-4.967,2.76l-9.382-17.108l-9.382,17.108l-4.967-2.76L50.276,15.746z"/>
		<path fill="none" stroke="#FFE4C4" stroke-width="0.2781" stroke-linecap="round" stroke-linejoin="round" d="M35.927,42.235
			l14.349-26.489l4.967,2.759l-9.934,17.66h19.314l-4.967,8.83L35.927,42.235z"/>
		<path fill="none" stroke="#FFE4C4" stroke-width="0.2781" stroke-linecap="round" stroke-linejoin="round" d="M40.894,44.995
			h18.764l-9.382-17.108l4.967-9.382l9.381,23.729H35.928L40.894,44.995z"/>
	</g>
	<g>
		<path fill="none" stroke="#FFE4C4" stroke-width="0.2781" stroke-linecap="round" stroke-linejoin="round" d="M16.873,15.746
			l14.349,26.489l-4.967,2.76l-9.382-17.108L7.492,44.995l-4.967-2.76L16.873,15.746z"/>
		<path fill="none" stroke="#FFE4C4" stroke-width="0.2781" stroke-linecap="round" stroke-linejoin="round" d="M2.526,42.235
			l14.348-26.489l4.967,2.759l-9.934,17.66h19.314l-4.967,8.83L2.526,42.235z"/>
		<path fill="none" stroke="#FFE4C4" stroke-width="0.2781" stroke-linecap="round" stroke-linejoin="round" d="M7.492,44.995
			h18.763l-9.382-17.108l4.967-9.382l9.382,23.729H2.526L7.492,44.995z"/>
	</g>
</g>
</svg>
